<?xml version="1.0" encoding="utf-8"?>
<!-- Generator: Adobe Illustrator 16.0.3, SVG Export Plug-In . SVG Version: 6.00 Build 0)  -->
<!DOCTYPE svg PUBLIC "-//W3C//DTD SVG 1.1//EN" "http://www.w3.org/Graphics/SVG/1.1/DTD/svg11.dtd">
<svg version="1.1" id="Layer_1" xmlns="http://www.w3.org/2000/svg" xmlns:xlink="http://www.w3.org/1999/xlink" x="0px" y="0px"
	 width="432px" height="288px" viewBox="0 0 432 288" enable-background="new 0 0 432 288" xml:space="preserve">
<g>
	<g>
		<defs>
			<rect id="SVGID_1_" width="432" height="288"/>
		</defs>
		<linearGradient id="SVGID_2_" gradientUnits="userSpaceOnUse" x1="215.9995" y1="47.3086" x2="215.9995" y2="306.7014">
			<stop  offset="0" style="stop-color:#F6F7FF"/>
			<stop  offset="0.328" style="stop-color:#F1F3FF"/>
			<stop  offset="0.5268" style="stop-color:#EBEEFF"/>
			<stop  offset="0.6126" style="stop-color:#F3F4FF"/>
			<stop  offset="0.6951" style="stop-color:#FFFFFF"/>
			<stop  offset="1" style="stop-color:#E8ECFF"/>
		</linearGradient>
		<use xlink:href="#SVGID_1_"  overflow="visible" fill="url(#SVGID_2_)"/>
		<clipPath id="SVGID_3_">
			<use xlink:href="#SVGID_1_"  overflow="visible"/>
		</clipPath>
		<g clip-path="url(#SVGID_3_)">
			<g>
				<g>
					<path fill="#999999" d="M-11.484,44.583c-31.051,0-62.409-3.561-93.676-10.772l0.224-0.975
						C9.799,59.297,125.989,36.51,222.23-31.326l0.575,0.817C152.556,19.007,71.687,44.583-11.484,44.583z"/>
				</g>
				<g>
					<path fill-rule="evenodd" clip-rule="evenodd" fill="#00D6AD" d="M-94.531,30.875c-1.996,10.073-3.992,20.146-5.987,30.22
						c5.135-1.615,7.67-2.463,12.676-4.238c4.361,3.571,6.582,5.328,11.101,8.779c1.443-10.179,2.887-20.357,4.331-30.536
						C-81.277,33.668-85.705,32.824-94.531,30.875z"/>
					<path fill="#FF2B34" d="M-61.16,36.75c-1.163,10.22-2.326,20.44-3.488,30.66c4.943-2.06,7.381-3.127,12.188-5.332
						c4.599,3.181,6.937,4.741,11.685,7.792c0.608-10.277,1.216-20.555,1.825-30.832C-47.837,38.378-52.283,37.922-61.16,36.75z"/>
					<path fill="#FFB938" d="M-27.684,39.712c-0.327,10.294-0.654,20.588-0.981,30.882c4.729-2.48,7.056-3.755,11.639-6.368
						c4.812,2.778,7.254,4.133,12.207,6.77c-0.227-10.303-0.454-20.606-0.68-30.91C-14.36,40.188-18.801,40.114-27.684,39.712z"/>
					<path fill-rule="evenodd" clip-rule="evenodd" fill="#00D6AD" d="M5.727,39.794C6.233,50.09,6.741,60.386,7.248,70.682
						c4.488-2.878,6.695-4.348,11.032-7.345c5,2.361,7.533,3.505,12.664,5.713c-1.057-10.258-2.115-20.516-3.172-30.774
						C18.981,39.132,14.569,39.437,5.727,39.794z"/>
					<path fill="#FF2B34" d="M135.271,12c3.74,9.602,7.481,19.205,11.222,28.806c3.321-4.238,4.938-6.375,8.087-10.679
						c5.472,0.558,8.23,0.79,13.788,1.153c-4.249-9.381-8.498-18.762-12.746-28.143C147.569,6.919,143.495,8.692,135.271,12z"/>
					<path fill="#FFB938" d="M165.771-1.811c4.502,9.257,9.005,18.515,13.507,27.772c2.981-4.522,4.428-6.797,7.234-11.372
						c5.515,0.075,8.291,0.063,13.878-0.067c-4.993-8.992-9.985-17.983-14.978-26.975C177.66-7.962,173.729-5.833,165.771-1.811z"/>
					<path fill-rule="evenodd" clip-rule="evenodd" fill="#00D6AD" d="M195.176-18.299c5.236,8.846,10.473,17.691,15.709,26.537
						c2.625-4.783,3.894-7.186,6.342-12.01c5.524-0.42,8.303-0.683,13.887-1.319c-5.707-8.536-11.412-17.072-17.118-25.608
						C206.586-25.508,202.818-23.027,195.176-18.299z"/>
					<path fill="#FF2B34" d="M38.899,37.03c1.335,10.227,2.67,20.454,4.005,30.681c4.228-3.252,6.302-4.906,10.371-8.264
						c5.161,1.93,7.772,2.856,13.054,4.623c-1.879-10.143-3.758-20.285-5.637-30.427C52.018,35.244,47.656,35.922,38.899,37.03z"/>
					<path fill="#FFB938" d="M71.662,31.454c2.153,10.088,4.306,20.175,6.458,30.263c3.945-3.604,5.877-5.43,9.658-9.126
						c5.294,1.486,7.97,2.187,13.374,3.499c-2.688-9.957-5.375-19.914-8.063-29.871C84.576,28.557,80.287,29.604,71.662,31.454z"/>
					<path fill-rule="evenodd" clip-rule="evenodd" fill="#00D6AD" d="M103.843,23.099c2.957,9.879,5.913,19.758,8.869,29.637
						c3.642-3.932,5.421-5.919,8.896-9.931c5.397,1.029,8.122,1.499,13.617,2.343c-3.479-9.703-6.958-19.406-10.437-29.109
						C116.483,19.104,112.291,20.517,103.843,23.099z"/>
				</g>
				<g opacity="0.5">

						<linearGradient id="SVGID_4_" gradientUnits="userSpaceOnUse" x1="-420.6685" y1="255.0908" x2="-420.6685" y2="217.5557" gradientTransform="matrix(0.9813 -0.1924 0.1924 0.9813 280.9297 -264.4333)">
						<stop  offset="0.3688" style="stop-color:#FFFFFF"/>
						<stop  offset="0.4535" style="stop-color:#F9F9F9"/>
						<stop  offset="0.5626" style="stop-color:#E9E9E9"/>
						<stop  offset="0.6847" style="stop-color:#CFCFCF"/>
						<stop  offset="0.7871" style="stop-color:#B3B3B3"/>
						<stop  offset="1" style="stop-color:#FFFFFF"/>
					</linearGradient>
					<path fill-rule="evenodd" clip-rule="evenodd" fill="url(#SVGID_4_)" d="M-94.531,30.875
						c-1.996,10.073-3.992,20.146-5.987,30.22c5.135-1.615,7.67-2.463,12.676-4.238c4.361,3.571,6.582,5.328,11.101,8.779
						c1.443-10.179,2.887-20.357,4.331-30.536C-81.277,33.668-85.705,32.824-94.531,30.875z"/>

						<linearGradient id="SVGID_5_" gradientUnits="userSpaceOnUse" x1="-387.6372" y1="266.165" x2="-387.6372" y2="229.7412" gradientTransform="matrix(0.9813 -0.1924 0.1924 0.9813 280.9297 -264.4333)">
						<stop  offset="0.3688" style="stop-color:#FFFFFF"/>
						<stop  offset="0.4535" style="stop-color:#F9F9F9"/>
						<stop  offset="0.5626" style="stop-color:#E9E9E9"/>
						<stop  offset="0.6847" style="stop-color:#CFCFCF"/>
						<stop  offset="0.7871" style="stop-color:#B3B3B3"/>
						<stop  offset="1" style="stop-color:#FFFFFF"/>
					</linearGradient>
					<path fill="url(#SVGID_5_)" d="M-61.16,36.75c-1.163,10.22-2.326,20.44-3.488,30.66c4.943-2.06,7.381-3.127,12.188-5.332
						c4.599,3.181,6.937,4.741,11.685,7.792c0.608-10.277,1.216-20.555,1.825-30.832C-47.837,38.378-52.283,37.922-61.16,36.75z"/>

						<linearGradient id="SVGID_6_" gradientUnits="userSpaceOnUse" x1="-353.9741" y1="274.1875" x2="-353.9741" y2="239.0889" gradientTransform="matrix(0.9813 -0.1924 0.1924 0.9813 280.9297 -264.4333)">
						<stop  offset="0.3688" style="stop-color:#FFFFFF"/>
						<stop  offset="0.4535" style="stop-color:#F9F9F9"/>
						<stop  offset="0.5626" style="stop-color:#E9E9E9"/>
						<stop  offset="0.6847" style="stop-color:#CFCFCF"/>
						<stop  offset="0.7871" style="stop-color:#B3B3B3"/>
						<stop  offset="1" style="stop-color:#FFFFFF"/>
					</linearGradient>
					<path fill="url(#SVGID_6_)" d="M-27.684,39.712c-0.327,10.294-0.654,20.588-0.981,30.882c4.729-2.48,7.056-3.755,11.639-6.368
						c4.812,2.778,7.254,4.133,12.207,6.77c-0.227-10.303-0.454-20.606-0.68-30.91C-14.36,40.188-18.801,40.114-27.684,39.712z"/>

						<linearGradient id="SVGID_7_" gradientUnits="userSpaceOnUse" x1="-319.8618" y1="279.1592" x2="-319.8618" y2="245.5977" gradientTransform="matrix(0.9813 -0.1924 0.1924 0.9813 280.9297 -264.4333)">
						<stop  offset="0.3688" style="stop-color:#FFFFFF"/>
						<stop  offset="0.4535" style="stop-color:#F9F9F9"/>
						<stop  offset="0.5626" style="stop-color:#E9E9E9"/>
						<stop  offset="0.6847" style="stop-color:#CFCFCF"/>
						<stop  offset="0.7871" style="stop-color:#B3B3B3"/>
						<stop  offset="1" style="stop-color:#FFFFFF"/>
					</linearGradient>
					<path fill-rule="evenodd" clip-rule="evenodd" fill="url(#SVGID_7_)" d="M5.727,39.794C6.233,50.09,6.741,60.386,7.248,70.682
						c4.488-2.878,6.695-4.348,11.032-7.345c5,2.361,7.533,3.505,12.664,5.713c-1.057-10.258-2.115-20.516-3.172-30.774
						C18.981,39.132,14.569,39.437,5.727,39.794z"/>

						<linearGradient id="SVGID_8_" gradientUnits="userSpaceOnUse" x1="-181.7427" y1="273.6748" x2="-181.7427" y2="238.4658" gradientTransform="matrix(0.9813 -0.1924 0.1924 0.9813 280.9297 -264.4333)">
						<stop  offset="0.3688" style="stop-color:#FFFFFF"/>
						<stop  offset="0.4535" style="stop-color:#F9F9F9"/>
						<stop  offset="0.5626" style="stop-color:#E9E9E9"/>
						<stop  offset="0.6847" style="stop-color:#CFCFCF"/>
						<stop  offset="0.7871" style="stop-color:#B3B3B3"/>
						<stop  offset="1" style="stop-color:#FFFFFF"/>
					</linearGradient>
					<path fill="url(#SVGID_8_)" d="M135.271,12c3.74,9.602,7.481,19.205,11.222,28.806c3.321-4.238,4.938-6.375,8.087-10.679
						c5.472,0.558,8.23,0.79,13.788,1.153c-4.249-9.381-8.498-18.762-12.746-28.143C147.569,6.919,143.495,8.692,135.271,12z"/>

						<linearGradient id="SVGID_9_" gradientUnits="userSpaceOnUse" x1="-148.1226" y1="265.415" x2="-148.1226" y2="228.8984" gradientTransform="matrix(0.9813 -0.1924 0.1924 0.9813 280.9297 -264.4333)">
						<stop  offset="0.3688" style="stop-color:#FFFFFF"/>
						<stop  offset="0.4535" style="stop-color:#F9F9F9"/>
						<stop  offset="0.5626" style="stop-color:#E9E9E9"/>
						<stop  offset="0.6847" style="stop-color:#CFCFCF"/>
						<stop  offset="0.7871" style="stop-color:#B3B3B3"/>
						<stop  offset="1" style="stop-color:#FFFFFF"/>
					</linearGradient>
					<path fill="url(#SVGID_9_)" d="M165.771-1.811c4.502,9.257,9.005,18.515,13.507,27.772c2.981-4.522,4.428-6.797,7.234-11.372
						c5.515,0.075,8.291,0.063,13.878-0.067c-4.993-8.992-9.985-17.983-14.978-26.975C177.66-7.962,173.729-5.833,165.771-1.811z"/>

						<linearGradient id="SVGID_10_" gradientUnits="userSpaceOnUse" x1="-115.1479" y1="254.1045" x2="-115.1479" y2="216.4922" gradientTransform="matrix(0.9813 -0.1924 0.1924 0.9813 280.9297 -264.4333)">
						<stop  offset="0.3688" style="stop-color:#FFFFFF"/>
						<stop  offset="0.4535" style="stop-color:#F9F9F9"/>
						<stop  offset="0.5626" style="stop-color:#E9E9E9"/>
						<stop  offset="0.6847" style="stop-color:#CFCFCF"/>
						<stop  offset="0.7871" style="stop-color:#B3B3B3"/>
						<stop  offset="1" style="stop-color:#FFFFFF"/>
					</linearGradient>
					<path fill-rule="evenodd" clip-rule="evenodd" fill="url(#SVGID_10_)" d="M195.176-18.299
						c5.236,8.846,10.473,17.691,15.709,26.537c2.625-4.783,3.894-7.186,6.342-12.01c5.524-0.42,8.303-0.683,13.887-1.319
						c-5.707-8.536-11.412-17.072-17.118-25.608C206.586-25.508,202.818-23.027,195.176-18.299z"/>

						<linearGradient id="SVGID_11_" gradientUnits="userSpaceOnUse" x1="-285.4829" y1="281.0811" x2="-285.4829" y2="249.2686" gradientTransform="matrix(0.9813 -0.1924 0.1924 0.9813 280.9297 -264.4333)">
						<stop  offset="0.3688" style="stop-color:#FFFFFF"/>
						<stop  offset="0.4535" style="stop-color:#F9F9F9"/>
						<stop  offset="0.5626" style="stop-color:#E9E9E9"/>
						<stop  offset="0.6847" style="stop-color:#CFCFCF"/>
						<stop  offset="0.7871" style="stop-color:#B3B3B3"/>
						<stop  offset="1" style="stop-color:#FFFFFF"/>
					</linearGradient>
					<path fill="url(#SVGID_11_)" d="M38.899,37.03c1.335,10.227,2.67,20.454,4.005,30.681c4.228-3.252,6.302-4.906,10.371-8.264
						c5.161,1.93,7.772,2.856,13.054,4.623c-1.879-10.143-3.758-20.285-5.637-30.427C52.018,35.244,47.656,35.922,38.899,37.03z"/>

						<linearGradient id="SVGID_12_" gradientUnits="userSpaceOnUse" x1="-250.1919" y1="281.041" x2="-250.1919" y2="249.085" gradientTransform="matrix(0.9813 -0.1924 0.1924 0.9813 280.9297 -264.4333)">
						<stop  offset="0.3688" style="stop-color:#FFFFFF"/>
						<stop  offset="0.4535" style="stop-color:#F9F9F9"/>
						<stop  offset="0.5626" style="stop-color:#E9E9E9"/>
						<stop  offset="0.6847" style="stop-color:#CFCFCF"/>
						<stop  offset="0.7871" style="stop-color:#B3B3B3"/>
						<stop  offset="1" style="stop-color:#FFFFFF"/>
					</linearGradient>
					<path fill="url(#SVGID_12_)" d="M71.662,31.454c2.153,10.088,4.306,20.175,6.458,30.263c3.945-3.604,5.877-5.43,9.658-9.126
						c5.294,1.486,7.97,2.187,13.374,3.499c-2.688-9.957-5.375-19.914-8.063-29.871C84.576,28.557,80.287,29.604,71.662,31.454z"/>

						<linearGradient id="SVGID_13_" gradientUnits="userSpaceOnUse" x1="-215.8267" y1="278.8828" x2="-215.8267" y2="245.1943" gradientTransform="matrix(0.9813 -0.1924 0.1924 0.9813 280.9297 -264.4333)">
						<stop  offset="0.3688" style="stop-color:#FFFFFF"/>
						<stop  offset="0.4535" style="stop-color:#F9F9F9"/>
						<stop  offset="0.5626" style="stop-color:#E9E9E9"/>
						<stop  offset="0.6847" style="stop-color:#CFCFCF"/>
						<stop  offset="0.7871" style="stop-color:#B3B3B3"/>
						<stop  offset="1" style="stop-color:#FFFFFF"/>
					</linearGradient>
					<path fill-rule="evenodd" clip-rule="evenodd" fill="url(#SVGID_13_)" d="M103.843,23.099
						c2.957,9.879,5.913,19.758,8.869,29.637c3.642-3.932,5.421-5.919,8.896-9.931c5.397,1.029,8.122,1.499,13.617,2.343
						c-3.479-9.703-6.958-19.406-10.437-29.109C116.483,19.104,112.291,20.517,103.843,23.099z"/>
				</g>
				<g>

						<linearGradient id="SVGID_14_" gradientUnits="userSpaceOnUse" x1="-420.6685" y1="255.0908" x2="-420.6685" y2="217.5557" gradientTransform="matrix(0.9813 -0.1924 0.1924 0.9813 280.9297 -264.4333)">
						<stop  offset="0.3688" style="stop-color:#FFFFFF"/>
						<stop  offset="0.4535" style="stop-color:#F9F9F9"/>
						<stop  offset="0.5626" style="stop-color:#E9E9E9"/>
						<stop  offset="0.6847" style="stop-color:#CFCFCF"/>
						<stop  offset="0.7871" style="stop-color:#B3B3B3"/>
						<stop  offset="1" style="stop-color:#FFFFFF"/>
					</linearGradient>
					<path fill-rule="evenodd" clip-rule="evenodd" fill="url(#SVGID_14_)" d="M-94.531,30.875
						c-1.996,10.073-3.992,20.146-5.987,30.22c5.135-1.615,7.67-2.463,12.676-4.238c4.361,3.571,6.582,5.328,11.101,8.779
						c1.443-10.179,2.887-20.357,4.331-30.536C-81.277,33.668-85.705,32.824-94.531,30.875z"/>

						<linearGradient id="SVGID_15_" gradientUnits="userSpaceOnUse" x1="-387.6372" y1="266.165" x2="-387.6372" y2="229.7412" gradientTransform="matrix(0.9813 -0.1924 0.1924 0.9813 280.9297 -264.4333)">
						<stop  offset="0.3688" style="stop-color:#FFFFFF"/>
						<stop  offset="0.4535" style="stop-color:#F9F9F9"/>
						<stop  offset="0.5626" style="stop-color:#E9E9E9"/>
						<stop  offset="0.6847" style="stop-color:#CFCFCF"/>
						<stop  offset="0.7871" style="stop-color:#B3B3B3"/>
						<stop  offset="1" style="stop-color:#FFFFFF"/>
					</linearGradient>
					<path fill="url(#SVGID_15_)" d="M-61.16,36.75c-1.163,10.22-2.326,20.44-3.488,30.66c4.943-2.06,7.381-3.127,12.188-5.332
						c4.599,3.181,6.937,4.741,11.685,7.792c0.608-10.277,1.216-20.555,1.825-30.832C-47.837,38.378-52.283,37.922-61.16,36.75z"/>

						<linearGradient id="SVGID_16_" gradientUnits="userSpaceOnUse" x1="-353.9741" y1="274.1875" x2="-353.9741" y2="239.0889" gradientTransform="matrix(0.9813 -0.1924 0.1924 0.9813 280.9297 -264.4333)">
						<stop  offset="0.3688" style="stop-color:#FFFFFF"/>
						<stop  offset="0.4535" style="stop-color:#F9F9F9"/>
						<stop  offset="0.5626" style="stop-color:#E9E9E9"/>
						<stop  offset="0.6847" style="stop-color:#CFCFCF"/>
						<stop  offset="0.7871" style="stop-color:#B3B3B3"/>
						<stop  offset="1" style="stop-color:#FFFFFF"/>
					</linearGradient>
					<path fill="url(#SVGID_16_)" d="M-27.684,39.712c-0.327,10.294-0.654,20.588-0.981,30.882c4.729-2.48,7.056-3.755,11.639-6.368
						c4.812,2.778,7.254,4.133,12.207,6.77c-0.227-10.303-0.454-20.606-0.68-30.91C-14.36,40.188-18.801,40.114-27.684,39.712z"/>

						<linearGradient id="SVGID_17_" gradientUnits="userSpaceOnUse" x1="-319.8618" y1="279.1592" x2="-319.8618" y2="245.5977" gradientTransform="matrix(0.9813 -0.1924 0.1924 0.9813 280.9297 -264.4333)">
						<stop  offset="0.3688" style="stop-color:#FFFFFF"/>
						<stop  offset="0.4535" style="stop-color:#F9F9F9"/>
						<stop  offset="0.5626" style="stop-color:#E9E9E9"/>
						<stop  offset="0.6847" style="stop-color:#CFCFCF"/>
						<stop  offset="0.7871" style="stop-color:#B3B3B3"/>
						<stop  offset="1" style="stop-color:#FFFFFF"/>
					</linearGradient>
					<path fill-rule="evenodd" clip-rule="evenodd" fill="url(#SVGID_17_)" d="M5.727,39.794C6.233,50.09,6.741,60.386,7.248,70.682
						c4.488-2.878,6.695-4.348,11.032-7.345c5,2.361,7.533,3.505,12.664,5.713c-1.057-10.258-2.115-20.516-3.172-30.774
						C18.981,39.132,14.569,39.437,5.727,39.794z"/>

						<linearGradient id="SVGID_18_" gradientUnits="userSpaceOnUse" x1="-181.7427" y1="273.6748" x2="-181.7427" y2="238.4658" gradientTransform="matrix(0.9813 -0.1924 0.1924 0.9813 280.9297 -264.4333)">
						<stop  offset="0.3688" style="stop-color:#FFFFFF"/>
						<stop  offset="0.4535" style="stop-color:#F9F9F9"/>
						<stop  offset="0.5626" style="stop-color:#E9E9E9"/>
						<stop  offset="0.6847" style="stop-color:#CFCFCF"/>
						<stop  offset="0.7871" style="stop-color:#B3B3B3"/>
						<stop  offset="1" style="stop-color:#FFFFFF"/>
					</linearGradient>
					<path fill="url(#SVGID_18_)" d="M135.271,12c3.74,9.602,7.481,19.205,11.222,28.806c3.321-4.238,4.938-6.375,8.087-10.679
						c5.472,0.558,8.23,0.79,13.788,1.153c-4.249-9.381-8.498-18.762-12.746-28.143C147.569,6.919,143.495,8.692,135.271,12z"/>

						<linearGradient id="SVGID_19_" gradientUnits="userSpaceOnUse" x1="-148.1226" y1="265.415" x2="-148.1226" y2="228.8984" gradientTransform="matrix(0.9813 -0.1924 0.1924 0.9813 280.9297 -264.4333)">
						<stop  offset="0.3688" style="stop-color:#FFFFFF"/>
						<stop  offset="0.4535" style="stop-color:#F9F9F9"/>
						<stop  offset="0.5626" style="stop-color:#E9E9E9"/>
						<stop  offset="0.6847" style="stop-color:#CFCFCF"/>
						<stop  offset="0.7871" style="stop-color:#B3B3B3"/>
						<stop  offset="1" style="stop-color:#FFFFFF"/>
					</linearGradient>
					<path fill="url(#SVGID_19_)" d="M165.771-1.811c4.502,9.257,9.005,18.515,13.507,27.772c2.981-4.522,4.428-6.797,7.234-11.372
						c5.515,0.075,8.291,0.063,13.878-0.067c-4.993-8.992-9.985-17.983-14.978-26.975C177.66-7.962,173.729-5.833,165.771-1.811z"/>

						<linearGradient id="SVGID_20_" gradientUnits="userSpaceOnUse" x1="-115.1479" y1="254.1045" x2="-115.1479" y2="216.4922" gradientTransform="matrix(0.9813 -0.1924 0.1924 0.9813 280.9297 -264.4333)">
						<stop  offset="0.3688" style="stop-color:#FFFFFF"/>
						<stop  offset="0.4535" style="stop-color:#F9F9F9"/>
						<stop  offset="0.5626" style="stop-color:#E9E9E9"/>
						<stop  offset="0.6847" style="stop-color:#CFCFCF"/>
						<stop  offset="0.7871" style="stop-color:#B3B3B3"/>
						<stop  offset="1" style="stop-color:#FFFFFF"/>
					</linearGradient>
					<path fill-rule="evenodd" clip-rule="evenodd" fill="url(#SVGID_20_)" d="M195.176-18.299
						c5.236,8.846,10.473,17.691,15.709,26.537c2.625-4.783,3.894-7.186,6.342-12.01c5.524-0.42,8.303-0.683,13.887-1.319
						c-5.707-8.536-11.412-17.072-17.118-25.608C206.586-25.508,202.818-23.027,195.176-18.299z"/>

						<linearGradient id="SVGID_21_" gradientUnits="userSpaceOnUse" x1="-285.4829" y1="281.0811" x2="-285.4829" y2="249.2686" gradientTransform="matrix(0.9813 -0.1924 0.1924 0.9813 280.9297 -264.4333)">
						<stop  offset="0.3688" style="stop-color:#FFFFFF"/>
						<stop  offset="0.4535" style="stop-color:#F9F9F9"/>
						<stop  offset="0.5626" style="stop-color:#E9E9E9"/>
						<stop  offset="0.6847" style="stop-color:#CFCFCF"/>
						<stop  offset="0.7871" style="stop-color:#B3B3B3"/>
						<stop  offset="1" style="stop-color:#FFFFFF"/>
					</linearGradient>
					<path fill="url(#SVGID_21_)" d="M38.899,37.03c1.335,10.227,2.67,20.454,4.005,30.681c4.228-3.252,6.302-4.906,10.371-8.264
						c5.161,1.93,7.772,2.856,13.054,4.623c-1.879-10.143-3.758-20.285-5.637-30.427C52.018,35.244,47.656,35.922,38.899,37.03z"/>

						<linearGradient id="SVGID_22_" gradientUnits="userSpaceOnUse" x1="-250.1919" y1="281.041" x2="-250.1919" y2="249.085" gradientTransform="matrix(0.9813 -0.1924 0.1924 0.9813 280.9297 -264.4333)">
						<stop  offset="0.3688" style="stop-color:#FFFFFF"/>
						<stop  offset="0.4535" style="stop-color:#F9F9F9"/>
						<stop  offset="0.5626" style="stop-color:#E9E9E9"/>
						<stop  offset="0.6847" style="stop-color:#CFCFCF"/>
						<stop  offset="0.7871" style="stop-color:#B3B3B3"/>
						<stop  offset="1" style="stop-color:#FFFFFF"/>
					</linearGradient>
					<path fill="url(#SVGID_22_)" d="M71.662,31.454c2.153,10.088,4.306,20.175,6.458,30.263c3.945-3.604,5.877-5.43,9.658-9.126
						c5.294,1.486,7.97,2.187,13.374,3.499c-2.688-9.957-5.375-19.914-8.063-29.871C84.576,28.557,80.287,29.604,71.662,31.454z"/>

						<linearGradient id="SVGID_23_" gradientUnits="userSpaceOnUse" x1="-215.8267" y1="278.8828" x2="-215.8267" y2="245.1943" gradientTransform="matrix(0.9813 -0.1924 0.1924 0.9813 280.9297 -264.4333)">
						<stop  offset="0.3688" style="stop-color:#FFFFFF"/>
						<stop  offset="0.4535" style="stop-color:#F9F9F9"/>
						<stop  offset="0.5626" style="stop-color:#E9E9E9"/>
						<stop  offset="0.6847" style="stop-color:#CFCFCF"/>
						<stop  offset="0.7871" style="stop-color:#B3B3B3"/>
						<stop  offset="1" style="stop-color:#FFFFFF"/>
					</linearGradient>
					<path fill-rule="evenodd" clip-rule="evenodd" fill="url(#SVGID_23_)" d="M103.843,23.099
						c2.957,9.879,5.913,19.758,8.869,29.637c3.642-3.932,5.421-5.919,8.896-9.931c5.397,1.029,8.122,1.499,13.617,2.343
						c-3.479-9.703-6.958-19.406-10.437-29.109C116.483,19.104,112.291,20.517,103.843,23.099z"/>
				</g>
			</g>
		</g>
		<g clip-path="url(#SVGID_3_)">
			<g>
				<g>
					<path fill="#999999" d="M473.467,67.668c-102.416,0-199.08-37.641-275.765-108.159l0.678-0.736
						c86.669,79.701,198.945,117.309,316.134,105.89l0.098,0.995C500.822,67.001,487.086,67.668,473.467,67.668z"/>
				</g>
				<g>
					<path fill-rule="evenodd" clip-rule="evenodd" fill="#00D6AD" d="M208.393-37.791c-6.713,7.771-13.426,15.542-20.139,23.314
						c5.262,1.133,7.886,1.648,13.114,2.58c2.027,5.259,3.089,7.884,5.313,13.118c6.285-8.136,12.569-16.272,18.854-24.408
						C218.535-28.813,215.104-31.734,208.393-37.791z"/>
					<path fill="#FF2B34" d="M234.501-16.192c-6.062,8.31-12.122,16.621-18.183,24.931c5.315,0.652,7.962,0.929,13.231,1.387
						c2.426,5.038,3.688,7.549,6.308,12.548c5.607-8.634,11.214-17.269,16.821-25.902C245.279-8.193,241.641-10.787,234.501-16.192z
						"/>
					<path fill="#FFB938" d="M262.141,2.925c-5.371,8.788-10.742,17.575-16.113,26.363c5.336,0.18,7.99,0.222,13.266,0.215
						c2.811,4.793,4.264,7.178,7.268,11.918c4.895-9.069,9.788-18.139,14.683-27.208C273.488,9.923,269.665,7.664,262.141,2.925z"/>
					<path fill-rule="evenodd" clip-rule="evenodd" fill="#00D6AD" d="M291.146,19.506c-4.646,9.202-9.293,18.403-13.94,27.604
						c5.324-0.284,7.97-0.472,13.22-0.934c3.181,4.523,4.818,6.77,8.188,11.226c4.15-9.441,8.3-18.881,12.449-28.322
						C302.998,25.481,299.011,23.565,291.146,19.506z"/>
					<path fill="#FF2B34" d="M417.504,59.357c-1.494,10.196-2.986,20.393-4.479,30.589c4.981-2.044,7.443-3.103,12.308-5.288
						c4.48,3.189,6.766,4.754,11.417,7.816c0.942-10.255,1.884-20.51,2.825-30.765C430.705,61.019,426.288,60.547,417.504,59.357z"
						/>
					<path fill="#FFB938" d="M450.846,62.423c-0.661,10.273-1.322,20.546-1.982,30.819c4.826-2.458,7.209-3.721,11.909-6.312
						c4.757,2.791,7.177,4.152,12.099,6.799c0.104-10.284,0.205-20.568,0.309-30.853C464.221,62.95,459.75,62.858,450.846,62.423z"
						/>
					<path fill-rule="evenodd" clip-rule="evenodd" fill="#00D6AD" d="M484.557,62.619c0.18,10.278,0.361,20.556,0.543,30.833
						c4.646-2.861,6.936-4.324,11.447-7.308c5.012,2.365,7.557,3.509,12.725,5.716c-0.742-10.241-1.484-20.482-2.228-30.722
						C498.037,61.99,493.537,62.286,484.557,62.619z"/>
					<path fill="#FF2B34" d="M321.352,33.496c-3.893,9.551-7.785,19.102-11.679,28.652c5.282-0.739,7.903-1.151,13.101-2.06
						c3.531,4.228,5.346,6.323,9.064,10.47c3.377-9.746,6.756-19.492,10.135-29.238C333.639,38.425,329.512,36.859,321.352,33.496z"
						/>
					<path fill="#FFB938" d="M352.59,44.838c-3.113,9.834-6.227,19.668-9.34,29.501c5.211-1.184,7.793-1.817,12.906-3.161
						c3.868,3.908,5.848,5.839,9.898,9.65c2.584-9.985,5.166-19.969,7.75-29.954C365.249,48.7,361.003,47.492,352.59,44.838z"/>
					<path fill-rule="evenodd" clip-rule="evenodd" fill="#00D6AD" d="M384.696,53.477c-2.312,10.049-4.624,20.099-6.935,30.148
						c5.109-1.619,7.638-2.467,12.641-4.238c4.184,3.562,6.32,5.316,10.681,8.766c1.771-10.155,3.54-20.31,5.311-30.464
						C397.659,56.25,393.316,55.406,384.696,53.477z"/>
				</g>
				<g opacity="0.5">

						<linearGradient id="SVGID_24_" gradientUnits="userSpaceOnUse" x1="682.6309" y1="-466.8569" x2="682.6309" y2="-504.3931" gradientTransform="matrix(0.9482 0.3176 -0.3176 0.9482 -594.7112 225.1316)">
						<stop  offset="0.3688" style="stop-color:#FFFFFF"/>
						<stop  offset="0.4535" style="stop-color:#F9F9F9"/>
						<stop  offset="0.5626" style="stop-color:#E9E9E9"/>
						<stop  offset="0.6847" style="stop-color:#CFCFCF"/>
						<stop  offset="0.7871" style="stop-color:#B3B3B3"/>
						<stop  offset="1" style="stop-color:#FFFFFF"/>
					</linearGradient>
					<path fill-rule="evenodd" clip-rule="evenodd" fill="url(#SVGID_24_)" d="M208.393-37.791
						c-6.713,7.771-13.426,15.542-20.139,23.314c5.262,1.133,7.886,1.648,13.114,2.58c2.027,5.259,3.089,7.884,5.313,13.118
						c6.285-8.136,12.569-16.272,18.854-24.408C218.535-28.813,215.104-31.734,208.393-37.791z"/>

						<linearGradient id="SVGID_25_" gradientUnits="userSpaceOnUse" x1="715.6621" y1="-455.7808" x2="715.6621" y2="-492.2051" gradientTransform="matrix(0.9482 0.3176 -0.3176 0.9482 -594.7112 225.1316)">
						<stop  offset="0.3688" style="stop-color:#FFFFFF"/>
						<stop  offset="0.4535" style="stop-color:#F9F9F9"/>
						<stop  offset="0.5626" style="stop-color:#E9E9E9"/>
						<stop  offset="0.6847" style="stop-color:#CFCFCF"/>
						<stop  offset="0.7871" style="stop-color:#B3B3B3"/>
						<stop  offset="1" style="stop-color:#FFFFFF"/>
					</linearGradient>
					<path fill="url(#SVGID_25_)" d="M234.501-16.192c-6.062,8.31-12.122,16.621-18.183,24.931
						c5.315,0.652,7.962,0.929,13.231,1.387c2.426,5.038,3.688,7.549,6.308,12.548c5.607-8.634,11.214-17.269,16.821-25.902
						C245.279-8.193,241.641-10.787,234.501-16.192z"/>

						<linearGradient id="SVGID_26_" gradientUnits="userSpaceOnUse" x1="749.3242" y1="-447.7563" x2="749.3242" y2="-482.856" gradientTransform="matrix(0.9482 0.3176 -0.3176 0.9482 -594.7112 225.1316)">
						<stop  offset="0.3688" style="stop-color:#FFFFFF"/>
						<stop  offset="0.4535" style="stop-color:#F9F9F9"/>
						<stop  offset="0.5626" style="stop-color:#E9E9E9"/>
						<stop  offset="0.6847" style="stop-color:#CFCFCF"/>
						<stop  offset="0.7871" style="stop-color:#B3B3B3"/>
						<stop  offset="1" style="stop-color:#FFFFFF"/>
					</linearGradient>
					<path fill="url(#SVGID_26_)" d="M262.141,2.925c-5.371,8.788-10.742,17.575-16.113,26.363c5.336,0.18,7.99,0.222,13.266,0.215
						c2.811,4.793,4.264,7.178,7.268,11.918c4.895-9.069,9.788-18.139,14.683-27.208C273.488,9.923,269.665,7.664,262.141,2.925z"/>

						<linearGradient id="SVGID_27_" gradientUnits="userSpaceOnUse" x1="783.4375" y1="-442.7822" x2="783.4375" y2="-476.3452" gradientTransform="matrix(0.9482 0.3176 -0.3176 0.9482 -594.7112 225.1316)">
						<stop  offset="0.3688" style="stop-color:#FFFFFF"/>
						<stop  offset="0.4535" style="stop-color:#F9F9F9"/>
						<stop  offset="0.5626" style="stop-color:#E9E9E9"/>
						<stop  offset="0.6847" style="stop-color:#CFCFCF"/>
						<stop  offset="0.7871" style="stop-color:#B3B3B3"/>
						<stop  offset="1" style="stop-color:#FFFFFF"/>
					</linearGradient>
					<path fill-rule="evenodd" clip-rule="evenodd" fill="url(#SVGID_27_)" d="M291.146,19.506
						c-4.646,9.202-9.293,18.403-13.94,27.604c5.324-0.284,7.97-0.472,13.22-0.934c3.181,4.523,4.818,6.77,8.188,11.226
						c4.15-9.441,8.3-18.881,12.449-28.322C302.998,25.481,299.011,23.565,291.146,19.506z"/>

						<linearGradient id="SVGID_28_" gradientUnits="userSpaceOnUse" x1="921.5586" y1="-448.2612" x2="921.5586" y2="-483.4697" gradientTransform="matrix(0.9482 0.3176 -0.3176 0.9482 -594.7112 225.1316)">
						<stop  offset="0.3688" style="stop-color:#FFFFFF"/>
						<stop  offset="0.4535" style="stop-color:#F9F9F9"/>
						<stop  offset="0.5626" style="stop-color:#E9E9E9"/>
						<stop  offset="0.6847" style="stop-color:#CFCFCF"/>
						<stop  offset="0.7871" style="stop-color:#B3B3B3"/>
						<stop  offset="1" style="stop-color:#FFFFFF"/>
					</linearGradient>
					<path fill="url(#SVGID_28_)" d="M417.504,59.357c-1.494,10.196-2.986,20.393-4.479,30.589
						c4.981-2.044,7.443-3.103,12.308-5.288c4.48,3.189,6.766,4.754,11.417,7.816c0.942-10.255,1.884-20.51,2.825-30.765
						C430.705,61.019,426.288,60.547,417.504,59.357z"/>

						<linearGradient id="SVGID_29_" gradientUnits="userSpaceOnUse" x1="955.1787" y1="-456.5195" x2="955.1787" y2="-493.0356" gradientTransform="matrix(0.9482 0.3176 -0.3176 0.9482 -594.7112 225.1316)">
						<stop  offset="0.3688" style="stop-color:#FFFFFF"/>
						<stop  offset="0.4535" style="stop-color:#F9F9F9"/>
						<stop  offset="0.5626" style="stop-color:#E9E9E9"/>
						<stop  offset="0.6847" style="stop-color:#CFCFCF"/>
						<stop  offset="0.7871" style="stop-color:#B3B3B3"/>
						<stop  offset="1" style="stop-color:#FFFFFF"/>
					</linearGradient>
					<path fill="url(#SVGID_29_)" d="M450.846,62.423c-0.661,10.273-1.322,20.546-1.982,30.819
						c4.826-2.458,7.209-3.721,11.909-6.312c4.757,2.791,7.177,4.152,12.099,6.799c0.104-10.284,0.205-20.568,0.309-30.853
						C464.221,62.95,459.75,62.858,450.846,62.423z"/>

						<linearGradient id="SVGID_30_" gradientUnits="userSpaceOnUse" x1="988.1543" y1="-467.8286" x2="988.1543" y2="-505.4399" gradientTransform="matrix(0.9482 0.3176 -0.3176 0.9482 -594.7112 225.1316)">
						<stop  offset="0.3688" style="stop-color:#FFFFFF"/>
						<stop  offset="0.4535" style="stop-color:#F9F9F9"/>
						<stop  offset="0.5626" style="stop-color:#E9E9E9"/>
						<stop  offset="0.6847" style="stop-color:#CFCFCF"/>
						<stop  offset="0.7871" style="stop-color:#B3B3B3"/>
						<stop  offset="1" style="stop-color:#FFFFFF"/>
					</linearGradient>
					<path fill-rule="evenodd" clip-rule="evenodd" fill="url(#SVGID_30_)" d="M484.557,62.619
						c0.18,10.278,0.361,20.556,0.543,30.833c4.646-2.861,6.936-4.324,11.447-7.308c5.012,2.365,7.557,3.509,12.725,5.716
						c-0.742-10.241-1.484-20.482-2.228-30.722C498.037,61.99,493.537,62.286,484.557,62.619z"/>

						<linearGradient id="SVGID_31_" gradientUnits="userSpaceOnUse" x1="817.8164" y1="-440.8599" x2="817.8164" y2="-472.6738" gradientTransform="matrix(0.9482 0.3176 -0.3176 0.9482 -594.7112 225.1316)">
						<stop  offset="0.3688" style="stop-color:#FFFFFF"/>
						<stop  offset="0.4535" style="stop-color:#F9F9F9"/>
						<stop  offset="0.5626" style="stop-color:#E9E9E9"/>
						<stop  offset="0.6847" style="stop-color:#CFCFCF"/>
						<stop  offset="0.7871" style="stop-color:#B3B3B3"/>
						<stop  offset="1" style="stop-color:#FFFFFF"/>
					</linearGradient>
					<path fill="url(#SVGID_31_)" d="M321.352,33.496c-3.893,9.551-7.785,19.102-11.679,28.652c5.282-0.739,7.903-1.151,13.101-2.06
						c3.531,4.228,5.346,6.323,9.064,10.47c3.377-9.746,6.756-19.492,10.135-29.238C333.639,38.425,329.512,36.859,321.352,33.496z"
						/>

						<linearGradient id="SVGID_32_" gradientUnits="userSpaceOnUse" x1="853.1084" y1="-440.8989" x2="853.1084" y2="-472.8535" gradientTransform="matrix(0.9482 0.3176 -0.3176 0.9482 -594.7112 225.1316)">
						<stop  offset="0.3688" style="stop-color:#FFFFFF"/>
						<stop  offset="0.4535" style="stop-color:#F9F9F9"/>
						<stop  offset="0.5626" style="stop-color:#E9E9E9"/>
						<stop  offset="0.6847" style="stop-color:#CFCFCF"/>
						<stop  offset="0.7871" style="stop-color:#B3B3B3"/>
						<stop  offset="1" style="stop-color:#FFFFFF"/>
					</linearGradient>
					<path fill="url(#SVGID_32_)" d="M352.59,44.838c-3.113,9.834-6.227,19.668-9.34,29.501c5.211-1.184,7.793-1.817,12.906-3.161
						c3.868,3.908,5.848,5.839,9.898,9.65c2.584-9.985,5.166-19.969,7.75-29.954C365.249,48.7,361.003,47.492,352.59,44.838z"/>

						<linearGradient id="SVGID_33_" gradientUnits="userSpaceOnUse" x1="887.4736" y1="-443.0552" x2="887.4736" y2="-476.7427" gradientTransform="matrix(0.9482 0.3176 -0.3176 0.9482 -594.7112 225.1316)">
						<stop  offset="0.3688" style="stop-color:#FFFFFF"/>
						<stop  offset="0.4535" style="stop-color:#F9F9F9"/>
						<stop  offset="0.5626" style="stop-color:#E9E9E9"/>
						<stop  offset="0.6847" style="stop-color:#CFCFCF"/>
						<stop  offset="0.7871" style="stop-color:#B3B3B3"/>
						<stop  offset="1" style="stop-color:#FFFFFF"/>
					</linearGradient>
					<path fill-rule="evenodd" clip-rule="evenodd" fill="url(#SVGID_33_)" d="M384.696,53.477
						c-2.312,10.049-4.624,20.099-6.935,30.148c5.109-1.619,7.638-2.467,12.641-4.238c4.184,3.562,6.32,5.316,10.681,8.766
						c1.771-10.155,3.54-20.31,5.311-30.464C397.659,56.25,393.316,55.406,384.696,53.477z"/>
				</g>
				<g>

						<linearGradient id="SVGID_34_" gradientUnits="userSpaceOnUse" x1="682.6309" y1="-466.8569" x2="682.6309" y2="-504.3931" gradientTransform="matrix(0.9482 0.3176 -0.3176 0.9482 -594.7112 225.1316)">
						<stop  offset="0.3688" style="stop-color:#FFFFFF"/>
						<stop  offset="0.4535" style="stop-color:#F9F9F9"/>
						<stop  offset="0.5626" style="stop-color:#E9E9E9"/>
						<stop  offset="0.6847" style="stop-color:#CFCFCF"/>
						<stop  offset="0.7871" style="stop-color:#B3B3B3"/>
						<stop  offset="1" style="stop-color:#FFFFFF"/>
					</linearGradient>
					<path fill-rule="evenodd" clip-rule="evenodd" fill="url(#SVGID_34_)" d="M208.393-37.791
						c-6.713,7.771-13.426,15.542-20.139,23.314c5.262,1.133,7.886,1.648,13.114,2.58c2.027,5.259,3.089,7.884,5.313,13.118
						c6.285-8.136,12.569-16.272,18.854-24.408C218.535-28.813,215.104-31.734,208.393-37.791z"/>

						<linearGradient id="SVGID_35_" gradientUnits="userSpaceOnUse" x1="715.6621" y1="-455.7808" x2="715.6621" y2="-492.2051" gradientTransform="matrix(0.9482 0.3176 -0.3176 0.9482 -594.7112 225.1316)">
						<stop  offset="0.3688" style="stop-color:#FFFFFF"/>
						<stop  offset="0.4535" style="stop-color:#F9F9F9"/>
						<stop  offset="0.5626" style="stop-color:#E9E9E9"/>
						<stop  offset="0.6847" style="stop-color:#CFCFCF"/>
						<stop  offset="0.7871" style="stop-color:#B3B3B3"/>
						<stop  offset="1" style="stop-color:#FFFFFF"/>
					</linearGradient>
					<path fill="url(#SVGID_35_)" d="M234.501-16.192c-6.062,8.31-12.122,16.621-18.183,24.931
						c5.315,0.652,7.962,0.929,13.231,1.387c2.426,5.038,3.688,7.549,6.308,12.548c5.607-8.634,11.214-17.269,16.821-25.902
						C245.279-8.193,241.641-10.787,234.501-16.192z"/>

						<linearGradient id="SVGID_36_" gradientUnits="userSpaceOnUse" x1="749.3242" y1="-447.7563" x2="749.3242" y2="-482.856" gradientTransform="matrix(0.9482 0.3176 -0.3176 0.9482 -594.7112 225.1316)">
						<stop  offset="0.3688" style="stop-color:#FFFFFF"/>
						<stop  offset="0.4535" style="stop-color:#F9F9F9"/>
						<stop  offset="0.5626" style="stop-color:#E9E9E9"/>
						<stop  offset="0.6847" style="stop-color:#CFCFCF"/>
						<stop  offset="0.7871" style="stop-color:#B3B3B3"/>
						<stop  offset="1" style="stop-color:#FFFFFF"/>
					</linearGradient>
					<path fill="url(#SVGID_36_)" d="M262.141,2.925c-5.371,8.788-10.742,17.575-16.113,26.363c5.336,0.18,7.99,0.222,13.266,0.215
						c2.811,4.793,4.264,7.178,7.268,11.918c4.895-9.069,9.788-18.139,14.683-27.208C273.488,9.923,269.665,7.664,262.141,2.925z"/>

						<linearGradient id="SVGID_37_" gradientUnits="userSpaceOnUse" x1="783.4375" y1="-442.7822" x2="783.4375" y2="-476.3452" gradientTransform="matrix(0.9482 0.3176 -0.3176 0.9482 -594.7112 225.1316)">
						<stop  offset="0.3688" style="stop-color:#FFFFFF"/>
						<stop  offset="0.4535" style="stop-color:#F9F9F9"/>
						<stop  offset="0.5626" style="stop-color:#E9E9E9"/>
						<stop  offset="0.6847" style="stop-color:#CFCFCF"/>
						<stop  offset="0.7871" style="stop-color:#B3B3B3"/>
						<stop  offset="1" style="stop-color:#FFFFFF"/>
					</linearGradient>
					<path fill-rule="evenodd" clip-rule="evenodd" fill="url(#SVGID_37_)" d="M291.146,19.506
						c-4.646,9.202-9.293,18.403-13.94,27.604c5.324-0.284,7.97-0.472,13.22-0.934c3.181,4.523,4.818,6.77,8.188,11.226
						c4.15-9.441,8.3-18.881,12.449-28.322C302.998,25.481,299.011,23.565,291.146,19.506z"/>

						<linearGradient id="SVGID_38_" gradientUnits="userSpaceOnUse" x1="921.5586" y1="-448.2612" x2="921.5586" y2="-483.4697" gradientTransform="matrix(0.9482 0.3176 -0.3176 0.9482 -594.7112 225.1316)">
						<stop  offset="0.3688" style="stop-color:#FFFFFF"/>
						<stop  offset="0.4535" style="stop-color:#F9F9F9"/>
						<stop  offset="0.5626" style="stop-color:#E9E9E9"/>
						<stop  offset="0.6847" style="stop-color:#CFCFCF"/>
						<stop  offset="0.7871" style="stop-color:#B3B3B3"/>
						<stop  offset="1" style="stop-color:#FFFFFF"/>
					</linearGradient>
					<path fill="url(#SVGID_38_)" d="M417.504,59.357c-1.494,10.196-2.986,20.393-4.479,30.589
						c4.981-2.044,7.443-3.103,12.308-5.288c4.48,3.189,6.766,4.754,11.417,7.816c0.942-10.255,1.884-20.51,2.825-30.765
						C430.705,61.019,426.288,60.547,417.504,59.357z"/>

						<linearGradient id="SVGID_39_" gradientUnits="userSpaceOnUse" x1="955.1787" y1="-456.5195" x2="955.1787" y2="-493.0356" gradientTransform="matrix(0.9482 0.3176 -0.3176 0.9482 -594.7112 225.1316)">
						<stop  offset="0.3688" style="stop-color:#FFFFFF"/>
						<stop  offset="0.4535" style="stop-color:#F9F9F9"/>
						<stop  offset="0.5626" style="stop-color:#E9E9E9"/>
						<stop  offset="0.6847" style="stop-color:#CFCFCF"/>
						<stop  offset="0.7871" style="stop-color:#B3B3B3"/>
						<stop  offset="1" style="stop-color:#FFFFFF"/>
					</linearGradient>
					<path fill="url(#SVGID_39_)" d="M450.846,62.423c-0.661,10.273-1.322,20.546-1.982,30.819
						c4.826-2.458,7.209-3.721,11.909-6.312c4.757,2.791,7.177,4.152,12.099,6.799c0.104-10.284,0.205-20.568,0.309-30.853
						C464.221,62.95,459.75,62.858,450.846,62.423z"/>

						<linearGradient id="SVGID_40_" gradientUnits="userSpaceOnUse" x1="988.1543" y1="-467.8286" x2="988.1543" y2="-505.4399" gradientTransform="matrix(0.9482 0.3176 -0.3176 0.9482 -594.7112 225.1316)">
						<stop  offset="0.3688" style="stop-color:#FFFFFF"/>
						<stop  offset="0.4535" style="stop-color:#F9F9F9"/>
						<stop  offset="0.5626" style="stop-color:#E9E9E9"/>
						<stop  offset="0.6847" style="stop-color:#CFCFCF"/>
						<stop  offset="0.7871" style="stop-color:#B3B3B3"/>
						<stop  offset="1" style="stop-color:#FFFFFF"/>
					</linearGradient>
					<path fill-rule="evenodd" clip-rule="evenodd" fill="url(#SVGID_40_)" d="M484.557,62.619
						c0.18,10.278,0.361,20.556,0.543,30.833c4.646-2.861,6.936-4.324,11.447-7.308c5.012,2.365,7.557,3.509,12.725,5.716
						c-0.742-10.241-1.484-20.482-2.228-30.722C498.037,61.99,493.537,62.286,484.557,62.619z"/>

						<linearGradient id="SVGID_41_" gradientUnits="userSpaceOnUse" x1="817.8164" y1="-440.8599" x2="817.8164" y2="-472.6738" gradientTransform="matrix(0.9482 0.3176 -0.3176 0.9482 -594.7112 225.1316)">
						<stop  offset="0.3688" style="stop-color:#FFFFFF"/>
						<stop  offset="0.4535" style="stop-color:#F9F9F9"/>
						<stop  offset="0.5626" style="stop-color:#E9E9E9"/>
						<stop  offset="0.6847" style="stop-color:#CFCFCF"/>
						<stop  offset="0.7871" style="stop-color:#B3B3B3"/>
						<stop  offset="1" style="stop-color:#FFFFFF"/>
					</linearGradient>
					<path fill="url(#SVGID_41_)" d="M321.352,33.496c-3.893,9.551-7.785,19.102-11.679,28.652c5.282-0.739,7.903-1.151,13.101-2.06
						c3.531,4.228,5.346,6.323,9.064,10.47c3.377-9.746,6.756-19.492,10.135-29.238C333.639,38.425,329.512,36.859,321.352,33.496z"
						/>

						<linearGradient id="SVGID_42_" gradientUnits="userSpaceOnUse" x1="853.1084" y1="-440.8989" x2="853.1084" y2="-472.8535" gradientTransform="matrix(0.9482 0.3176 -0.3176 0.9482 -594.7112 225.1316)">
						<stop  offset="0.3688" style="stop-color:#FFFFFF"/>
						<stop  offset="0.4535" style="stop-color:#F9F9F9"/>
						<stop  offset="0.5626" style="stop-color:#E9E9E9"/>
						<stop  offset="0.6847" style="stop-color:#CFCFCF"/>
						<stop  offset="0.7871" style="stop-color:#B3B3B3"/>
						<stop  offset="1" style="stop-color:#FFFFFF"/>
					</linearGradient>
					<path fill="url(#SVGID_42_)" d="M352.59,44.838c-3.113,9.834-6.227,19.668-9.34,29.501c5.211-1.184,7.793-1.817,12.906-3.161
						c3.868,3.908,5.848,5.839,9.898,9.65c2.584-9.985,5.166-19.969,7.75-29.954C365.249,48.7,361.003,47.492,352.59,44.838z"/>

						<linearGradient id="SVGID_43_" gradientUnits="userSpaceOnUse" x1="887.4736" y1="-443.0552" x2="887.4736" y2="-476.7427" gradientTransform="matrix(0.9482 0.3176 -0.3176 0.9482 -594.7112 225.1316)">
						<stop  offset="0.3688" style="stop-color:#FFFFFF"/>
						<stop  offset="0.4535" style="stop-color:#F9F9F9"/>
						<stop  offset="0.5626" style="stop-color:#E9E9E9"/>
						<stop  offset="0.6847" style="stop-color:#CFCFCF"/>
						<stop  offset="0.7871" style="stop-color:#B3B3B3"/>
						<stop  offset="1" style="stop-color:#FFFFFF"/>
					</linearGradient>
					<path fill-rule="evenodd" clip-rule="evenodd" fill="url(#SVGID_43_)" d="M384.696,53.477
						c-2.312,10.049-4.624,20.099-6.935,30.148c5.109-1.619,7.638-2.467,12.641-4.238c4.184,3.562,6.32,5.316,10.681,8.766
						c1.771-10.155,3.54-20.31,5.311-30.464C397.659,56.25,393.316,55.406,384.696,53.477z"/>
				</g>
			</g>
		</g>
		<g clip-path="url(#SVGID_3_)">
			<path fill="#FB242D" d="M304.748,102.731c0.055,0.721,0.448,1.204,1.25,1.801c1.08-1.148,1.847-1.701,3.221-2.309
				c-0.562-0.467-0.787-0.96-1.051-2.014C306.775,100.84,305.842,101.593,304.748,102.731z"/>
			<path fill="#FB242D" d="M68.77,11.403c-0.654,0.197-1.018,0.658-1.406,1.517c1.277,0.762,1.941,1.356,2.78,2.499
				c0.316-0.612,0.725-0.92,1.643-1.376C70.923,12.887,70.041,12.18,68.77,11.403z"/>
			<path fill="#FB242D" d="M311.912-4.396c-1.023,0.388-1.533,0.941-1.891,2.089c0.641,0.962,1.232,1.568,2.065,1.87
				c0.978-0.753,1.837-0.972,3.337-1.205C313.942-2.487,313.052-3.054,311.912-4.396z"/>
			<path fill="#FB242D" d="M37.719,276.271c0.372-0.646,0.402-1.158,0.096-1.917c-0.752-0.231-1.326-0.295-1.896-0.095
				c-0.19,0.818-0.549,1.305-1.24,2.074C35.824,276.14,36.538,276.055,37.719,276.271z"/>
			<path fill="#FB242D" d="M3.548,186.493c0.091,1.468,0.305,2.364,0.756,3.511c0.887-0.417,1.367-0.837,1.728-1.336
				c-0.434-0.628-0.491-1.219-0.499-2.143C4.743,186.827,4.264,186.785,3.548,186.493z"/>
			<path fill="#FB242D" d="M162.19-7.964c-1.848-2.122-3.219-3.235-5.24-4.45c-0.86,1.667-1.1,2.865-1.065,4.043
				c1.392,0.448,2.167,1.279,3.257,2.672C159.987-7.078,160.763-7.573,162.19-7.964z"/>
			<path fill="#FB242D" d="M162.89,75.728c-0.275,0.636-0.645,1.134-1.258,1.718c1.647,0.595,2.719,1.078,3.816,1.833
				c0.805-0.442,1.09-0.868,1.387-1.517C166.061,77.173,164.614,76.416,162.89,75.728z"/>
			<path fill="#FB242D" d="M260.69,57.502c1.571-0.134,2.969,0.072,4.801,0.672c-0.581-3.943-0.766-6.613-0.435-9.628
				c-1.754-1.137-2.915-1.249-4.535-1.147C260.173,49.588,260.214,53.304,260.69,57.502z"/>
			<path fill="#FB242D" d="M312.2,91.989c0.325,1.468,0.814,3.036,2.114,4.19c1.259,0.021,2.111,0.104,3.357,0.476
				c-0.494-1-0.296-1.744,0.555-3.085C316.309,93.502,314.561,92.869,312.2,91.989z"/>
			<path fill="#FB242D" d="M78.62-19.12c0.977,1.62,2.191,3.292,4.205,4.146c1.509-0.481,2.559-0.723,4.194-0.782
				c-0.992-0.994-1.053-1.96-0.579-3.901C84.126-18.968,81.787-19.02,78.62-19.12z"/>
			<path fill="#FB242D" d="M384.881,152.855c-2.122-0.166-3.338-0.444-5.305-1.314c-0.439,0.956-0.648,1.85-0.46,2.813
				c1.261,0.712,2.983,1.23,5.35,1.704C384.035,154.572,384.055,153.744,384.881,152.855z"/>
			<path fill="#FB242D" d="M194.96,40.629c1.861-1.422,3.062-2.087,5.312-2.819c-0.342-1.106-0.827-1.992-1.689-2.643
				c-1.556,0.343-3.347,1.184-5.634,2.534C194.393,38.602,194.984,39.294,194.96,40.629z"/>
			<path fill="#FB242D" d="M3.853,156.827c0.603,0.63,0.832,1.167,0.684,2.2c1.086-0.37,1.712-0.868,2.794-1.847
				c0.088-0.813-0.121-1.232-0.76-1.904C5.635,156.107,4.906,156.638,3.853,156.827z"/>
			<path fill="#FB242D" d="M90.581-30.187c-1.322,0.506-2.271,0.511-3.722-0.362c-0.131,1.858,0.22,3.108,1.004,5.344
				c1.161,0.644,1.92,0.595,3.328,0.063C90.536-27.066,90.201-28.49,90.581-30.187z"/>
			<path fill="#FB242D" d="M-0.722,19.633c1.243-1.223,2.115-2.332,2.5-3.735c-0.766-0.873-1.417-1.263-2.292-1.473
				c-0.604,1.659-1.182,2.505-2.491,3.657C-1.836,18.357-1.192,18.695-0.722,19.633z"/>
			<path fill="#FB242D" d="M172.012,18.805c-1.179-0.334-2.159-0.481-3.149-0.228c-0.267,0.77-0.279,1.303-0.103,1.911
				c1.223-0.208,1.94-0.148,3.099,0.251C171.62,19.929,171.602,19.418,172.012,18.805z"/>
			<path fill="#FB242D" d="M317.438,61.209c0.612,1.957,0.379,3.229-0.252,5.062c3.323-0.382,6.607-1.146,7.936-1.948
				c-0.126-1.601-0.605-2.912-1.51-4.629C322.119,60.622,320.381,60.88,317.438,61.209z"/>
			<path fill="#FB242D" d="M372.006,35.183c0.266,2.017-0.18,3.222-1.111,4.905c3.316,0.193,6.656,0.007,8.092-0.55
				c0.15-1.587-0.095-2.95-0.687-4.783C376.684,35.408,374.939,35.363,372.006,35.183z"/>
			<path fill="#FB242D" d="M1.302,65.788c-0.229,0.576-0.58,1.021-1.352,1.356c1.324,1.583,2.364,2.421,3.969,3.563
				c1.025-0.622,1.439-1.199,1.69-1.641C3.661,68.257,2.667,67.335,1.302,65.788z"/>
			<path fill="#FB242D" d="M216.274-13.956c0.632,0.023,1.179,0.207,1.766,0.833c1.065-1.813,1.515-3.1,2.061-5.032
				c-0.949-0.772-1.646-0.971-2.156-1.061C217.837-17.068,217.291-15.797,216.274-13.956z"/>
			<path fill="#FB242D" d="M444.553,139.192c-0.584-1.059-0.822-1.638-0.816-2.665c-0.469,0.107-0.774,0.103-1.037-0.063
				c-0.082,1.108,0.125,1.86,0.646,3.039C443.797,139.511,444.178,139.395,444.553,139.192z"/>
			<path fill="#FB242D" d="M53.642-22.662c-1.183,0.758-1.835,1.077-3.025,1.148c0.16,0.535,0.177,0.89,0.004,1.208
				c1.29,0.01,2.146-0.286,3.473-0.979C54.068-21.81,53.904-22.242,53.642-22.662z"/>
			<path fill="#FB242D" d="M46.247,87.758c1.589,0.412,3.01,1.478,5.11,4.873c1.304-1.134,2.123-2.475,2.672-4.562
				c-1.911-2.31-3.236-3.529-5.871-4.761C48.021,85.077,47.493,86.049,46.247,87.758z"/>
			<path fill="#FB242D" d="M214.431,84.314c-0.787-0.2-1.493-0.724-2.539-2.398c-0.643,0.564-1.044,1.229-1.311,2.262
				c0.95,1.138,1.608,1.738,2.915,2.341C213.56,85.645,213.818,85.163,214.431,84.314z"/>
			<path fill="#FB242D" d="M337.364,166.256c-0.266,1.676-0.156,2.719,0.597,4.492c1.873-1,3.148-1.229,4.628-1.097
				c0.368-1.553,0.354-2.656,0.13-4.357C340.924,166,339.534,166.194,337.364,166.256z"/>
			<path fill="#FB242D" d="M103.738-7.493c0.316,1.291,0.712,2.012,1.794,3.064c1.049-1.291,1.902-1.843,3.011-2.196
				c-0.205-1.233-0.55-2.026-1.229-3.187C106.232-8.757,105.287-8.196,103.738-7.493z"/>
			<path fill="#FB242D" d="M38.929-3.474c0.45-0.162,0.661-0.474,0.991-0.994c-1.165-0.675-2.199-1.738-3.283-3.082
				c-0.285,0.407-0.56,0.588-1.069,0.792C36.63-5.268,37.354-4.528,38.929-3.474z"/>
			<path fill="#FB242D" d="M-7.799,251.666c-0.527,0.242-0.751,0.642-1.095,1.306c1.478,0.694,2.84,1.874,4.29,3.387
				c0.302-0.521,0.616-0.771,1.21-1.068C-4.832,253.598-5.785,252.778-7.799,251.666z"/>
			<path fill="#FB242D" d="M-5.219,200.407c0.823-1.486,1.105-2.391,0.706-4.173c-2.724-0.77-4.291-1.417-6.75-2.698
				c-0.128,1.011-0.433,1.685-0.803,2.197C-9.2,197.116-7.615,198.33-5.219,200.407z"/>
			<path fill="#FB242D" d="M225.805-32.064c0.662-0.811,0.933-1.329,0.887-2.454c-1.567-0.767-2.446-1.332-3.798-2.38
				c-0.189,0.599-0.448,0.974-0.729,1.244C223.752-34.499,224.579-33.588,225.805-32.064z"/>
			<path fill="#00D6AD" d="M282.295,90.23c-0.844,0.834-1.029,1.84-0.928,3.476c2.584,0.132,4.09,0.504,6.309,1.579
				c-0.011-1.197,0.365-2.004,1.405-3.452C286.814,90.76,284.881,90.391,282.295,90.23z"/>
			<path fill="#00D6AD" d="M98.43,86.633c-0.39,1.063-0.142,2.006,0.612,3.376c2.283-0.936,3.733-1.227,6.084-1.202
				c-0.496-1.028-0.5-1.877-0.191-3.549C102.544,85.254,100.726,85.721,98.43,86.633z"/>
			<path fill="#00D6AD" d="M288.701,67.58c-0.52,0.652-0.637,1.212-0.423,2.101c0.792,0.379,1.415,0.545,2.077,0.418
				c0.346-0.873,0.822-1.35,1.711-2.086C290.771,68.038,289.968,68.014,288.701,67.58z"/>
			<path fill="#00D6AD" d="M295.524,17.647c0.022-1.09-0.3-1.767-1.228-2.522c-1.127,0.234-1.907,0.556-2.496,1.214
				c0.333,1.183,0.217,2.059-0.125,3.531C293.006,18.814,293.861,18.202,295.524,17.647z"/>
			<path fill="#00D6AD" d="M237.845,25.812c-3.135,0.31-5.038,0.838-7.458,1.895c0.964,1.865,1.9,2.86,2.998,3.593
				c1.311-0.979,2.571-1.146,4.549-1.238C237.224,28.396,237.275,27.368,237.845,25.812z"/>
			<path fill="#00D6AD" d="M-23.955,209.322c-0.301,1.454-0.332,2.385-0.196,3.621c0.975-0.171,1.554-0.452,2.037-0.843
				c-0.256-0.728-0.154-1.318,0.083-2.221C-22.879,209.965-23.335,209.797-23.955,209.322z"/>
			<path fill="#00D6AD" d="M289.455-7.312c-0.6-0.601-1-1.247-1.388-2.208c-1.421,1.606-2.456,2.608-3.812,3.518
				c0.141,1.116,0.497,1.632,1.102,2.264C286.379-4.354,287.893-5.659,289.455-7.312z"/>
			<path fill="#00D6AD" d="M28.438,213.236c0.728,1.01,1.154,2.039,1.491,3.521c2.433-1.992,4.164-3.199,6.338-4.197
				c0.058-1.648-0.336-2.479-1.063-3.534C33.583,209.678,31.086,211.212,28.438,213.236z"/>
			<path fill="#00D6AD" d="M-8.852,295.317c-0.988,0.387-2.027,0.899-2.69,1.932c0.123,0.88,0.157,1.483,0.035,2.394
				c0.643-0.455,1.184-0.396,2.211,0.05C-9.457,298.348-9.207,297.059-8.852,295.317z"/>
			<path fill="#00D6AD" d="M356.15,101.127c1.309-1.581,2.584-3.424,2.736-5.792c-1.033-1.373-1.658-2.36-2.305-4.014
				c-0.66,1.372-1.629,1.782-3.786,1.992C354.332,95.436,355.117,97.849,356.15,101.127z"/>
			<path fill="#00D6AD" d="M327.055,37.703c-1.316-0.513-2.035-0.922-3.115-1.851c-0.463,0.523-0.767,1.05-0.832,1.698
				c0.664,0.693,1.658,1.352,3.07,2.106C326.188,38.63,326.359,38.109,327.055,37.703z"/>
			<path fill="#00D6AD" d="M365.332,72.029c-0.382,1.134-0.7,1.759-1.445,2.712c0.462,0.371,0.921,0.607,1.472,0.637
				c0.562-0.59,1.08-1.458,1.663-2.684C366.152,72.727,365.704,72.602,365.332,72.029z"/>
			<path fill="#00D6AD" d="M403.746,249.063c-0.719,0.392-1.263,0.467-2.161,0.077c0.067,1.075,0.364,1.765,0.983,2.986
				c0.715,0.28,1.146,0.194,1.913-0.219C403.959,250.855,403.658,250.064,403.746,249.063z"/>
			<path fill="#00D6AD" d="M-7.413,322.537c-0.24,0.809-0.58,1.259-1.518,1.629c0.832,0.734,1.549,1.021,2.89,1.458
				c0.724-0.315,0.976-0.692,1.233-1.551C-5.954,323.687-6.749,323.33-7.413,322.537z"/>
			<path fill="#00D6AD" d="M109.968,26.625c-0.243,2.242-0.208,4.065,0.557,5.786c1.48,0.247,2.452,0.104,3.5-0.402
				c-0.754-2.155-0.868-3.475-0.5-5.701C112.127,26.989,111.206,27.18,109.968,26.625z"/>
			<path fill="#00D6AD" d="M296.596,50.726c-0.146,1.266-0.133,2.295,0.293,3.27c0.836,0.145,1.385,0.067,1.979-0.215
				c-0.419-1.219-0.479-1.965-0.264-3.221C297.813,50.939,297.292,51.043,296.596,50.726z"/>
			<path fill="#00D6AD" d="M405.758,36.27c-1.646-0.628-2.383-1.462-3.285-2.866c-1.511,2.45-2.742,5.075-2.908,6.4
				c1.148,0.767,2.289,1.141,3.932,1.443C403.662,39.746,404.414,38.434,405.758,36.27z"/>
			<path fill="#00D6AD" d="M279.716,31.454c0.968-1.145,1.845-1.5,3.224-1.828c-1.539-1.902-3.298-3.629-4.313-4.135
				c-0.938,0.706-1.56,1.515-2.265,2.747C277.519,28.794,278.359,29.766,279.716,31.454z"/>
			<path fill="#00D6AD" d="M398.342,205.906c0.361,0.11,0.648,0.301,0.889,0.753c0.895-0.88,1.353-1.551,1.967-2.579
				c-0.428-0.592-0.797-0.814-1.077-0.945C399.725,204.355,399.214,205.003,398.342,205.906z"/>
			<path fill="#00D6AD" d="M411.876,17.179c0.341-0.394,0.741-0.651,1.446-0.705c-0.615-1.62-1.211-2.572-2.17-3.919
				c-0.986,0.212-1.473,0.557-1.794,0.838C410.683,14.57,411.218,15.576,411.876,17.179z"/>
			<path fill="#00D6AD" d="M291.038-36.718c0.415,1.321,0.55,2.024,0.31,3.175c0.551-0.014,0.893,0.062,1.15,0.308
				c0.344-1.225,0.283-2.116-0.033-3.557C291.959-36.903,291.506-36.859,291.038-36.718z"/>
			<path fill="#00D6AD" d="M184.175-9.54c1.937-1.454,3.02-2.086,5.056-2.36c-0.343-0.899-0.419-1.508-0.162-2.076
				c-2.22,0.147-3.655,0.766-5.847,2.127C183.333-10.95,183.67-10.228,184.175-9.54z"/>
			<path fill="#00D6AD" d="M5.089,347.831c-0.555-0.827-0.769-1.884-0.353-4.271c-1.049-0.012-1.961,0.267-3.052,0.991
				c-0.064,1.818,0.045,2.906,0.744,4.527C3.203,348.332,3.835,348.104,5.089,347.831z"/>
			<path fill="#00D6AD" d="M64.308-0.618c-0.711-0.269-1.312-0.83-2.109-2.496c-0.656,0.457-1.1,1.033-1.456,1.966
				c0.765,1.158,1.313,1.785,2.465,2.482C63.357,0.527,63.649,0.106,64.308-0.618z"/>
			<path fill="#00D6AD" d="M404.645,151.743c0.419,1.414,0.896,2.191,2.15,3.3c1.094-1.485,2.01-2.143,3.219-2.594
				c-0.293-1.354-0.717-2.216-1.53-3.466C407.34,150.21,406.323,150.882,404.645,151.743z"/>
			<path fill="#00D6AD" d="M35.434,164.448c1.393-0.566,2.135-1.129,3.136-2.513c-1.618-0.963-2.377-1.826-2.955-3.011
				c-1.347,0.434-2.178,0.949-3.366,1.9C33.608,161.863,34.392,162.829,35.434,164.448z"/>
			<path fill="#00D6AD" d="M42.118,185.8c-0.57-0.707-1.261-0.893-2.401-1.16c-0.487,2.509-1.754,5.027-3.494,7.807
				c0.907,0.26,1.405,0.64,2.085,1.427C40.324,191.043,41.203,189.282,42.118,185.8z"/>
			<path fill="#00D6AD" d="M35.274,253.276c0.616-0.28,0.878-0.743,1.282-1.516c-1.72-0.817-3.301-2.197-4.982-3.967
				c-0.355,0.606-0.722,0.895-1.416,1.239C31.826,251.012,32.933,251.972,35.274,253.276z"/>
			<path fill="#00D6AD" d="M243.616,151.157c0.434-0.838,0.575-1.344,0.325-2.327c-1.524-0.383-2.404-0.718-3.791-1.39
				c-0.055,0.563-0.213,0.943-0.41,1.232C241.354,149.395,242.253,150.043,243.616,151.157z"/>
			<path fill="#00D6AD" d="M326.283,143.856c1.664,0.378,2.615,0.396,4.225-0.487c-0.021-2.843,0.166-4.536,0.714-7.268
				c-1.011,0.159-1.748,0.053-2.345-0.16C328.346,139.095,327.617,140.963,326.283,143.856z"/>
			<path fill="#FEB937" d="M184.717-30.244c0.953-1,1.134-2.175,0.956-4.071c-3.007-0.063-4.769-0.444-7.385-1.616
				c0.055,1.391-0.354,2.341-1.512,4.061C179.448-30.704,181.707-30.342,184.717-30.244z"/>
			<path fill="#FEB937" d="M435.232,97.706c0.793,0.396,1.549,0.286,2.68-0.18c-0.527-1.858-0.626-3.012-0.4-4.839
				c-0.843,0.296-1.504,0.224-2.777-0.163C434.521,94.385,434.725,95.84,435.232,97.706z"/>
			<path fill="#FEB937" d="M293.041,148.988c0.494,0.902,1.074,1.306,2.188,1.488c0.813-0.72,1.299-1.349,1.473-2.163
				c-0.827-0.812-1.142-1.582-1.553-2.947C294.555,146.853,294.143,147.755,293.041,148.988z"/>
			<path fill="#FEB937" d="M432.439,133.599c1.121,1.087,2.145,1.411,3.84,1.176c0.854-1.408,1.279-2.54,1.164-3.798
				c-1.564-0.806-2.365-1.782-3.576-3.577C433.674,129.822,433.481,131.315,432.439,133.599z"/>
			<path fill="#FEB937" d="M317.18,15.96c-1.902-1.235-3.211-1.794-5.05-2.289c-0.296,1.483-0.216,2.465,0.071,3.371
				c1.178,0.039,1.964,0.511,3.117,1.35C315.667,17.135,316.16,16.58,317.18,15.96z"/>
			<path fill="#FEB937" d="M2.867,274.264c-1.41,0.559-2.222,1.055-3.203,1.865c0.694,0.736,1.26,1.072,1.865,1.267
				c0.477-0.626,1.039-0.872,1.942-1.177C2.921,275.543,2.81,275.06,2.867,274.264z"/>
			<path fill="#FEB937" d="M-15.541,176.682c-0.636-0.403-1.107-0.885-1.63-1.643c-0.918,1.666-1.62,2.733-2.616,3.783
				c0.337,0.938,0.746,1.316,1.392,1.747C-17.631,179.838-16.573,178.414-15.541,176.682z"/>
			<path fill="#FEB937" d="M15.521,327.589c0.981,0.343,1.766,0.843,2.706,1.695c0.711-2.526,1.318-4.182,2.328-5.905
				c-0.748-1.154-1.416-1.534-2.418-1.909C17.34,322.692,16.364,324.937,15.521,327.589z"/>
			<path fill="#FEB937" d="M39.604,176.973c-1.062-0.182-2.233-0.28-3.35,0.27c-0.354,0.828-0.64,1.371-1.224,2.097
				c0.797-0.058,1.236,0.276,1.896,1.202C37.49,179.288,38.383,178.3,39.604,176.973z"/>
			<path fill="#FEB937" d="M153.639-27.61c-1.608-1.239-3.474-2.438-5.819-2.509c-1.322,1.069-2.277,1.72-3.89,2.415
				c1.379,0.607,1.817,1.55,2.098,3.676C148.073-25.619,150.432-26.478,153.639-27.61z"/>
			<path fill="#FEB937" d="M53.098,120.978c0.606-0.892,1.034-1.357,1.911-2.004c-0.31-0.434-0.651-0.75-1.123-0.909
				c-0.63,0.376-1.29,1.004-2.093,1.927C52.555,120.174,52.915,120.39,53.098,120.978z"/>
			<path fill="#FEB937" d="M420.486,194.419c-0.867,0.405-1.404,0.566-2.367,0.663c0.039,0.472,0.156,0.867,0.444,1.202
				c0.651-0.001,1.44-0.181,2.472-0.521C420.536,195.278,420.359,194.95,420.486,194.419z"/>
			<path fill="#FEB937" d="M108.9,149.637c-0.527-1.651-0.468-2.809,0.697-4.521c-2.26-0.287-3.813,0.055-6.596,0.86
				c-0.865,1.374-0.857,2.305-0.303,4.061C105.093,149.367,106.855,149.057,108.9,149.637z"/>
			<path fill="#FEB937" d="M-0.686,135.252c0.801,1.134,1.034,2.031,0.557,3.619c1.794-0.325,2.896-0.959,4.825-2.245
				c0.33-1.256,0.101-1.964-0.745-3.171C2.285,134.542,1.015,135.203-0.686,135.252z"/>
			<path fill="#FEB937" d="M419.146,307.95c1.424,0.793,2.648,1.284,4.01,1.259c0.582-0.916,0.76-1.603,0.717-2.443
				c-1.646-0.104-2.557-0.4-3.936-1.272C419.998,306.615,419.864,307.282,419.146,307.95z"/>
			<path fill="#FEB937" d="M266.424-31.195c-1.443-1.344-2.74-2.275-4.346-2.639c-0.949,0.907-1.357,1.663-1.551,2.663
				c1.904,0.6,2.888,1.211,4.256,2.634C265.036-29.874,265.387-30.618,266.424-31.195z"/>
			<path fill="#FEB937" d="M362.563,244.519c0.801-0.721,1.459-0.888,2.473-0.986c-0.91-1.504-1.993-2.904-2.666-3.363
				c-0.737,0.41-1.258,0.926-1.881,1.733C361.259,242.411,361.762,243.186,362.563,244.519z"/>
			<path fill="#FEB937" d="M433.193,162.692c1.545-1.438,2.829-1.788,4.813-2.017c-1.834-2.916-4.005-5.625-5.34-6.502
				c-1.431,0.83-2.433,1.857-3.625,3.462C430.566,158.606,431.579,160.106,433.193,162.692z"/>
			<path fill="#FEB937" d="M188.671,109.359c-0.587-0.602-0.945-1.278-0.936-2.417c-2.684,0.767-4.292,1.594-6.585,2.951
				c0.206,1.611,0.693,2.438,1.102,2.993C184.321,110.92,186.007,110.196,188.671,109.359z"/>
			<path fill="#FEB937" d="M356.979,148.799c0.415-0.72,0.962-1.242,2.048-1.538c-1.448-2.348-2.667-3.657-4.572-5.474
				c-1.477,0.627-2.133,1.313-2.553,1.85C354.328,145.078,355.469,146.488,356.979,148.799z"/>
			<path fill="#FEB937" d="M337.174,105.946c1.119,0.564,1.661,0.921,2.256,1.801c0.338-0.365,0.604-0.541,0.926-0.552
				c-0.578-0.994-1.195-1.518-2.33-2.221C337.635,105.232,337.377,105.554,337.174,105.946z"/>
			<path fill="#FEB937" d="M66.88,66.814c1.557-0.663,2.396-0.911,3.823-0.758c-0.083-0.667-0.033-1.093,0.235-1.435
				c-1.529-0.27-2.605-0.089-4.319,0.468C66.546,65.718,66.652,66.264,66.88,66.814z"/>
			<path fill="#FEB937" d="M144.026,105.737c-1.507,0.475-3.209,0.331-6.655-1.367c-0.484,1.591-0.468,3.103,0.149,5.084
				c2.735,0.908,4.438,1.227,7.218,0.886C143.947,108.83,143.883,107.767,144.026,105.737z"/>
			<path fill="#FEB937" d="M388.236,240.886c0.293,1.158,0.111,2.437-1.318,4.963c1.18,0.435,2.32,0.487,3.844,0.107
				c0.803-2.025,1.117-3.298,0.98-5.409C390.566,241.078,389.762,241.081,388.236,240.886z"/>
			<path fill="#FEB937" d="M414.133,275.289c-1.065,1.412-1.475,2.425-1.65,4.425c2.211-0.003,3.497,0.411,4.793,1.258
				c1.099-1.247,1.627-2.269,2.254-3.944C417.531,276.8,416.159,276.296,414.133,275.289z"/>
			<path fill="#FEB937" d="M16.223,111.44c1.643,0.5,2.702,0.536,4.583,0.029c-0.74-2.015-0.791-3.325-0.452-4.788
				c-1.503-0.585-2.611-0.726-4.346-0.738C16.466,107.84,16.464,109.259,16.223,111.44z"/>
			<path fill="#FEB937" d="M259.252,11.461c-0.6,0.554-0.726,1.185-0.897,2.222c2.278,0.289,4.612,1.274,7.207,2.668
				c0.179-0.829,0.489-1.296,1.155-1.955C264.059,12.759,262.429,12.075,259.252,11.461z"/>
			<path fill="#FEB937" d="M422.393,142.005c0.844-0.104,1.333-0.562,2.107-1.335c-1.752-1.626-3.129-3.875-4.48-6.627
				c-0.652,0.593-1.199,0.8-2.162,0.953C419.113,137.993,420.078,139.56,422.393,142.005z"/>
			<path fill="#FEB937" d="M-12.432,109.544c1.244-0.405,1.876-0.767,2.587-1.98c-1.131-1.862-1.673-3.049-2.387-5.062
				c-0.602,0.502-1.128,0.722-1.605,0.816C-12.947,105.601-12.692,107.117-12.432,109.544z"/>
			<path fill="#FEB937" d="M191.981,16.487c-1.118,1.194-1.593,1.972-1.64,3.729c2.362,1.358,3.672,2.332,5.668,4.106
				c0.356-0.913,0.8-1.471,1.267-1.863C194.924,20.496,193.73,18.989,191.981,16.487z"/>
			<path fill="#FB242D" d="M327.957,22.769c-0.346,0.815-0.189,1.561,0.344,2.658c1.819-0.639,2.962-0.809,4.796-0.696
				c-0.347-0.822-0.315-1.484-0.009-2.778C331.223,21.857,329.785,22.148,327.957,22.769z"/>
			<path fill="#FB242D" d="M58.345,149.641c0.146,0.603,0.545,0.956,1.303,1.351c0.755-1.118,1.327-1.691,2.405-2.394
				c-0.538-0.317-0.797-0.702-1.164-1.558C59.799,147.765,59.113,148.529,58.345,149.641z"/>
			<path fill="#FB242D" d="M177.402,61.384c0.55,0.96,1.184,1.38,2.385,1.552c0.859-0.792,1.369-1.479,1.537-2.359
				c-0.907-0.854-1.263-1.678-1.736-3.137C178.983,59.053,178.56,60.033,177.402,61.384z"/>
			<path fill="#FB242D" d="M307.65,74.059c0.849,0.142,1.414-0.033,2.108-0.671c-0.054-0.906-0.216-1.552-0.663-2.086
				c-0.961,0.125-1.631-0.066-2.742-0.5C307.025,71.96,307.407,72.697,307.65,74.059z"/>
			<path fill="#FB242D" d="M118.296-29.792c1.64,0.396,2.696,0.465,4.106,0.358c-0.159-1.113-0.457-1.782-0.882-2.346
				c-0.835,0.264-1.502,0.126-2.519-0.177C119.066-30.989,118.858-30.478,118.296-29.792z"/>
			<path fill="#FB242D" d="M386.168,18.359c-1.489,2.257-2.167,3.813-2.771,5.998c1.766,0.365,2.936,0.279,4.018-0.056
				c0.057-1.402,0.626-2.333,1.635-3.703C387.555,20.172,386.897,19.581,386.168,18.359z"/>
			<path fill="#FB242D" d="M17.776,290.68c0.045,1.352-0.193,2.538-0.788,4.079c3.401-0.323,5.695-0.364,8.26,0.054
				c1.051-1.451,1.198-2.439,1.183-3.831C24.572,290.586,21.391,290.457,17.776,290.68z"/>
			<path fill="#FB242D" d="M395.07,176.788c0.869,0.079,1.611,0.326,2.551,0.829c0.063-2.204,0.219-3.676,0.691-5.286
				c-0.846-0.788-1.468-0.962-2.359-1.063C395.553,172.428,395.216,174.455,395.07,176.788z"/>
			<path fill="#FB242D" d="M15.633,339.75c0.691,0.62,1.502,1.23,2.57,1.343c0.64-0.442,1.098-0.707,1.857-0.97
				c-0.609-0.324-0.777-0.77-0.833-1.748C18.24,339.03,17.134,339.343,15.633,339.75z"/>
			<path fill="#FB242D" d="M427.291,42.497c-1.1,1.389-2.166,3.003-2.255,5.049c0.917,1.166,1.476,2.007,2.063,3.422
				c0.545-1.197,1.375-1.568,3.231-1.789C428.967,47.375,428.244,45.308,427.291,42.497z"/>
			<path fill="#FB242D" d="M5.52,222.912c-1.34-1.602-1.979-2.645-2.72-4.622c-0.973,0.348-1.743,0.815-2.289,1.608
				c0.367,1.374,1.186,2.936,2.478,4.921C3.735,223.497,4.329,222.943,5.52,222.912z"/>
			<path fill="#FB242D" d="M238.365,90.403c2.023,0.958,3.115,1.687,4.724,3.28c0.79-0.776,1.331-1.576,1.506-2.594
				c-0.974-1.173-2.473-2.326-4.622-3.679C239.84,89.032,239.511,89.838,238.365,90.403z"/>
			<path fill="#FB242D" d="M336.003,49.164c0.7,0.051,1.127,0.248,1.596,0.944c0.448-0.807,0.554-1.442,0.671-2.611
				c-0.387-0.533-0.737-0.67-1.482-0.727C336.678,47.772,336.529,48.482,336.003,49.164z"/>
			<path fill="#FB242D" d="M351.061,307.164c-0.031,0.91-0.265,1.473-1.145,2.115c1.068,0.541,1.896,0.646,3.418,0.739
				c0.671-0.527,0.832-0.988,0.867-1.956C352.898,307.97,351.971,307.813,351.061,307.164z"/>
			<path fill="#FB242D" d="M-21.625,236.477c0.486,1.199,0.998,2.111,1.851,2.773c0.815-0.277,1.268-0.613,1.66-1.153
				c-0.966-0.884-1.381-1.521-1.8-2.745C-20.435,236.074-20.849,236.421-21.625,236.477z"/>
			<path fill="#FB242D" d="M203.094-39.504c-0.59,0.813-0.979,1.526-1.064,2.361c0.518,0.423,0.925,0.583,1.442,0.618
				c0.185-1,0.433-1.535,1.067-2.315C203.849-38.886,203.45-39.016,203.094-39.504z"/>
			<path fill="#FB242D" d="M408.719,357.08c-0.85,0.844-1.573,1.067-2.693,1.232c1.093,1.621,2.375,3.119,3.148,3.593
				c0.797-0.497,1.348-1.1,1.994-2.031C410.284,359.351,409.682,358.518,408.719,357.08z"/>
			<path fill="#FB242D" d="M-18.629,140.923c-0.033,0.981-0.339,1.521-0.916,2.248c1.563,0.354,3.169,0.528,3.897,0.376
				c0.196-0.744,0.187-1.413,0.05-2.333C-16.419,141.398-17.247,141.24-18.629,140.923z"/>
			<path fill="#FB242D" d="M27.358-12.691c0.007-0.681,0.19-1.276,0.85-1.925c-1.983-1.099-3.382-1.547-5.477-2.083
				c-0.807,1.043-1.001,1.799-1.085,2.351C23.963-14.291,25.347-13.737,27.358-12.691z"/>
			<path fill="#FB242D" d="M362.082,0.219c-0.395-0.229-0.68-0.531-0.841-1.128c-1.292,0.792-2.013,1.459-3.015,2.501
				c0.343,0.813,0.718,1.175,1.012,1.405C360.034,1.667,360.812,1.044,362.082,0.219z"/>
			<path fill="#FB242D" d="M380.917,269.405c-1.971,0.36-3.005,0.428-4.613-0.122c-0.078,0.792-0.247,1.271-0.647,1.596
				c1.697,0.711,2.988,0.784,5.112,0.587C381.018,270.76,381.037,270.102,380.917,269.405z"/>
			<path fill="#FB242D" d="M245.199-6.024c1.655-1.863,2.617-2.722,4.615-3.417c-0.531-0.836-0.731-1.435-0.59-2.06
				c-2.207,0.604-3.529,1.521-5.46,3.343C244.062-7.274,244.548-6.614,245.199-6.024z"/>
			<path fill="#FB242D" d="M435.287,201.089c-0.16,0.734-0.623,1.402-2.138,2.423c0.542,0.576,1.169,0.927,2.133,1.141
				c1.021-0.914,1.556-1.542,2.072-2.769C436.544,201.853,436.09,201.628,435.287,201.089z"/>
			<path fill="#FB242D" d="M-9.613,167.703c1.044-0.457,2.277-0.484,4.879,0.468c0.226-1.179,0.097-2.262-0.498-3.636
				c-2.034-0.44-3.28-0.538-5.246-0.08C-9.795,165.479-9.667,166.236-9.613,167.703z"/>
			<path fill="#FB242D" d="M291.525,58.373c-1.045-0.502-1.748-0.634-3.058-0.489c0.288,1.421,0.188,2.301-0.188,3.243
				c0.944,0.545,1.67,0.752,2.826,0.938C290.995,60.752,291.141,59.805,291.525,58.373z"/>
			<path fill="#FB242D" d="M311.926-30.188c-0.006,0.816,0.121,1.304,0.605,2.094c0.818-0.61,1.41-0.81,2.123-0.853
				c0.063-0.765-0.021-1.289-0.25-2.082C313.601-30.563,312.953-30.372,311.926-30.188z"/>
			<path fill="#FB242D" d="M137.33,57.689c0.353,0.957,1.021,1.403,2.139,2.098c1.42-2.496,3.673-4.721,6.522-7.055
				c-0.873-0.602-1.265-1.185-1.707-2.267C141.122,52.753,139.555,54.311,137.33,57.689z"/>
			<path fill="#FB242D" d="M354.154-5.737c-0.459,0.402-0.565,0.87-0.715,1.642c1.697,0.261,3.421,1.044,5.332,2.137
				c0.149-0.615,0.392-0.959,0.902-1.437C357.721-4.672,356.516-5.215,354.154-5.737z"/>
			<path fill="#FB242D" d="M147.907,6.359c-1.688-1.016-2.723-1.379-4.808-0.993c-1.005,3.125-1.821,4.915-3.41,7.713
				c1.167,0.19,1.936,0.573,2.513,1.022C143.926,10.836,145.399,9.05,147.907,6.359z"/>
			<path fill="#FB242D" d="M73.879,37.364c0.839-0.747,1.213-1.25,1.355-2.451c-1.532-1.078-2.369-1.825-3.624-3.165
				c-0.302,0.603-0.64,0.957-0.983,1.195C72.115,34.437,72.839,35.542,73.879,37.364z"/>
			<path fill="#00D6AD" d="M51.568,294.329c-0.524,0.425-0.685,0.983-0.717,1.913c1.453,0.219,2.283,0.513,3.478,1.242
				c0.06-0.677,0.317-1.112,0.986-1.873C54.093,294.88,53.021,294.563,51.568,294.329z"/>
			<path fill="#00D6AD" d="M409.027,89.733c0.208,1.351,1.02,2.202,2.611,3.208c1.867-2.316,3.229-3.468,5.726-4.811
				c-1.122-0.797-1.62-1.69-2.269-3.637C412.568,85.884,410.92,87.435,409.027,89.733z"/>
			<path fill="#00D6AD" d="M24.279,111.03c0.024,1.001,0.348,1.609,1.229,2.264c1.023-0.261,1.726-0.588,2.239-1.215
				c-0.353-1.07-0.281-1.878-0.029-3.243C26.542,109.857,25.783,110.454,24.279,111.03z"/>
			<path fill="#00D6AD" d="M187.18,4.012c-0.348,0.901-0.284,1.562,0.26,2.469c1.007,0.146,1.753,0.113,2.441-0.256
				c0.08-1.083,0.441-1.776,1.17-2.898C189.626,3.802,188.73,4.054,187.18,4.012z"/>
			<path fill="#00D6AD" d="M432.07,180.592c0.719-1.542,0.996-2.573,1.172-3.989c-1.133-0.064-1.854,0.097-2.496,0.405
				c0.094,0.878-0.174,1.512-0.676,2.456C431.039,179.591,431.503,179.899,432.07,180.592z"/>
			<path fill="#00D6AD" d="M322.809,117.734c2.958,1.414,4.939,1.97,7.664,2.333c0.145-2.18-0.152-3.571-0.734-4.815
				c-1.693,0.165-2.908-0.365-4.718-1.35C324.757,115.768,324.154,116.655,322.809,117.734z"/>
			<path fill="#00D6AD" d="M130.433,142.336c0.976,1.091,1.603,2.242,2.18,3.934c2.601-2.63,4.477-4.258,6.898-5.695
				c-0.136-1.935-0.7-2.858-1.681-4.004C136.013,137.535,133.28,139.639,130.433,142.336z"/>
			<path fill="#00D6AD" d="M100.813,51.704c0.117-0.79,0.382-1.454,0.891-2.286c-2.01-0.174-3.348-0.393-4.794-0.908
				c-0.765,0.731-0.955,1.29-1.093,2.101C96.854,51.038,98.689,51.45,100.813,51.704z"/>
			<path fill="#00D6AD" d="M104.688,120.007c-1.217-0.808-2.616-1.573-4.303-1.504c-0.895,0.833-1.547,1.348-2.669,1.93
				c1.02,0.365,1.382,1.021,1.691,2.53C100.795,121.718,102.444,120.983,104.688,120.007z"/>
			<path fill="#00D6AD" d="M285.822,123.681c-1.157-1.022-2.513-2.026-4.289-2.198c-1.059,0.743-1.816,1.189-3.075,1.636
				c1.017,0.53,1.301,1.269,1.406,2.895C281.498,124.911,283.332,124.38,285.822,123.681z"/>
			<path fill="#00D6AD" d="M48.72,29.749c-1.68,0.606-2.707,0.814-4.512,0.829c-0.007,0.884,0.143,1.64,0.62,2.312
				c1.212,0.108,2.708-0.091,4.683-0.547C48.666,31.355,48.395,30.715,48.72,29.749z"/>
			<path fill="#00D6AD" d="M182.411,91.331c0.277-0.941,0.52-1.463,1.1-2.267c-0.389-0.29-0.771-0.47-1.224-0.477
				c-0.442,0.501-0.84,1.228-1.28,2.25C181.718,90.785,182.089,90.873,182.411,91.331z"/>
			<path fill="#00D6AD" d="M337.652-11.056c-0.148-0.689-0.078-1.156,0.461-1.804c-0.904-0.206-1.547-0.128-2.706,0.088
				c-0.405,0.522-0.438,0.899-0.282,1.632C336.121-11.314,336.847-11.372,337.652-11.056z"/>
			<path fill="#00D6AD" d="M15.023,198.967c0.717,0.683,1.006,1.279,0.892,2.458c1.212-0.477,1.896-1.075,3.07-2.244
				c0.057-0.927-0.202-1.39-0.963-2.118C17.006,198.055,16.208,198.695,15.023,198.967z"/>
			<path fill="#00D6AD" d="M140.512,73.337c-1.766,0.709-3.109,1.459-4.086,2.712c0.404,1.2,0.896,1.867,1.689,2.446
				c1.305-1.417,2.242-2.026,4.045-2.636C141.098,75.089,140.591,74.479,140.512,73.337z"/>
			<path fill="#00D6AD" d="M23.87,194.881c-0.231-0.997-0.52-1.772-1.105-2.396c-0.671,0.116-1.066,0.323-1.439,0.696
				c0.646,0.811,0.893,1.359,1.068,2.368C22.89,195.049,23.256,194.829,23.87,194.881z"/>
			<path fill="#00D6AD" d="M389.07,284.408c-0.604-1.899-0.383-3.14,0.225-4.923c-3.23,0.387-6.42,1.145-7.709,1.93
				c0.13,1.555,0.602,2.827,1.489,4.494C384.521,284.998,386.211,284.739,389.07,284.408z"/>
			<path fill="#00D6AD" d="M424.721,224.271c-0.959-0.398-1.379-0.902-1.885-1.742c-0.931,1.415-1.7,2.939-1.82,3.716
				c0.662,0.47,1.327,0.71,2.289,0.916C423.428,226.28,423.893,225.521,424.721,224.271z"/>
			<path fill="#00D6AD" d="M430.017,254.359c-0.771,0.495-1.575,0.729-2.792,0.469c0.23,3.042,0.762,4.945,1.707,7.698
				c1.77,0.135,2.763-0.205,3.445-0.52C430.73,259.359,430.328,257.395,430.017,254.359z"/>
			<path fill="#00D6AD" d="M16.499,211.853c-0.431,0.565-0.954,0.948-1.909,1.08c0.972,2.152,1.862,3.397,3.278,5.151
				c1.323-0.37,1.957-0.88,2.37-1.289C18.34,215.303,17.527,213.98,16.499,211.853z"/>
			<path fill="#00D6AD" d="M381.193-15.834c1.648,0.15,2.486,0.325,3.645,1.119c0.238-0.613,0.479-0.958,0.869-1.127
				c-1.193-0.941-2.205-1.286-3.939-1.599C381.413-16.935,381.252-16.415,381.193-15.834z"/>
			<path fill="#00D6AD" d="M377.943,222.802c-1.314-0.101-1.982-0.231-2.914-0.851c-0.183,0.49-0.37,0.767-0.68,0.906
				c0.961,0.736,1.77,1,3.154,1.23C377.78,223.681,377.902,223.265,377.943,222.802z"/>
			<path fill="#00D6AD" d="M366.072,107.326c1.479-0.417,3.131-0.225,6.428,1.529c0.518-1.532,0.549-3.001,0.008-4.947
				c-2.633-0.965-4.279-1.326-6.989-1.079C366.24,104.321,366.273,105.357,366.072,107.326z"/>
			<path fill="#00D6AD" d="M422.523,336.209c-0.93-0.776-1.54-1.938-1.865-4.865c-1.229,0.345-2.199,0.979-3.226,2.197
				c0.544,2.144,1.042,3.376,2.409,5.031C420.492,337.438,421.152,336.955,422.523,336.209z"/>
			<path fill="#00D6AD" d="M29.811,141.125c-0.143,0.853-0.093,1.384,0.283,2.291c0.958-0.5,1.61-0.61,2.363-0.536
				c0.195-0.789,0.193-1.352,0.086-2.219C31.626,141.012,30.917,141.104,29.811,141.125z"/>
			<path fill="#00D6AD" d="M292.434,41.636c1.318-1.247,1.906-2.202,2.426-4.197c-2.238-0.376-3.469-1.016-4.637-2.094
				c-1.326,1.075-2.037,2.021-2.956,3.608C289.249,39.527,290.553,40.27,292.434,41.636z"/>
			<path fill="#00D6AD" d="M152.287,33.657c-0.151-0.918-0.673-1.433-1.554-2.248c-1.702,1.991-4.104,3.596-7.058,5.195
				c0.678,0.689,0.929,1.28,1.138,2.325C148.04,37.424,149.713,36.299,152.287,33.657z"/>
			<path fill="#00D6AD" d="M407.819,342.254c1.069,0.035,1.767-0.438,2.884-1.248c-1.863-2.366-3.135-5.436-4.275-9.125
				c-0.93,0.61-1.652,0.761-2.877,0.763C404.523,336.619,405.417,338.758,407.819,342.254z"/>
			<path fill="#00D6AD" d="M212.527,63.049c1.425-1.201,2.065-2.017,2.354-4c-2.489-1.854-3.842-3.13-5.862-5.405
				c-0.526,0.986-1.104,1.559-1.682,1.938C209.734,58.12,210.884,59.983,212.527,63.049z"/>
			<path fill="#00D6AD" d="M395.064,306.149c-1.01-0.687-1.64-0.947-2.942-0.777c-0.729,1.9-1.296,2.98-2.375,4.659
				c0.716,0.158,1.179,0.421,1.521,0.719C392.447,308.786,393.42,307.73,395.064,306.149z"/>
		</g>
		<g clip-path="url(#SVGID_3_)">
			<g>

					<rect x="356.497" y="151.892" transform="matrix(0.9951 0.0989 -0.0989 0.9951 24.0561 -34.1645)" fill="#FB242D" width="0.316" height="147.372"/>
				<path fill="#FB242D" d="M364.911,151.041c0.41,0.844,0.843,2.082,0.929,2.462c-0.031,0.014-0.563,0.214-1.904,0.069
					c-1.317-0.142-1.72-0.408-1.756-0.437c0.264-0.637,0.896-1.592,1.411-2.234c-4.882-1.677-21.992-15.893-19.794-37.802
					c1.527-15.237,13.513-26.511,26.771-25.181c13.258,1.33,22.768,14.759,21.24,29.996
					C389.563,140.302,369.993,150.429,364.911,151.041z"/>
				<path fill="#FFFFFF" d="M379.708,95.691c0,0,9.233,7.947,7.983,20.415c-1.251,12.468-7.797,19.947-13.039,25.551
					C374.652,141.657,390.117,119.693,379.708,95.691z"/>
			</g>
			<g>

					<rect x="367.362" y="193.351" transform="matrix(0.9538 0.3004 -0.3004 0.9538 97.1886 -98.0666)" fill="#FEB937" width="0.315" height="147.372"/>
				<path fill="#FEB937" d="M390.726,195.724c0.229,0.91,0.403,2.21,0.409,2.6c-0.033,0.007-0.594,0.096-1.878-0.318
					c-1.262-0.405-1.602-0.749-1.631-0.783c0.388-0.57,1.2-1.377,1.835-1.902c-4.439-2.632-18.311-20.024-11.715-41.031
					c4.588-14.61,18.611-23.218,31.324-19.226c12.713,3.992,19.3,19.071,14.713,33.681
					C417.043,190.209,395.826,196.155,390.726,195.724z"/>
				<path fill="#FFFFFF" d="M416.443,144.527c0,0,7.429,9.654,3.675,21.61c-3.754,11.955-11.681,17.95-17.95,22.374
					C402.168,188.512,421.767,170.142,416.443,144.527z"/>
			</g>
			<g>

					<rect x="346.204" y="202.519" transform="matrix(0.9875 -0.1574 0.1574 0.9875 -39.1548 57.9558)" fill="#00D6AD" width="0.316" height="147.372"/>
				<path fill="#00D6AD" d="M335.207,202.046c0.612,0.711,1.35,1.797,1.528,2.142c-0.026,0.021-0.488,0.352-1.821,0.557
					c-1.311,0.201-1.768,0.046-1.81,0.028c0.092-0.684,0.457-1.769,0.79-2.522c-5.148-0.367-25.335-9.715-28.836-31.453
					c-2.434-15.119,6.256-29.091,19.412-31.21c13.154-2.118,25.793,8.421,28.228,23.539
					C356.275,185.339,339.961,200.15,335.207,202.046z"/>
				<path fill="#FFFFFF" d="M335.299,144.753c0,0,10.965,5.311,12.956,17.683c1.992,12.371-2.414,21.279-6.043,28.041
					C342.212,190.477,351.521,165.279,335.299,144.753z"/>
			</g>
		</g>
		<g clip-path="url(#SVGID_3_)">
			<g>

					<rect x="83.378" y="151.892" transform="matrix(-0.9951 0.0987 -0.0987 -0.9951 188.9386 441.8055)" fill="#FB242D" width="0.316" height="147.372"/>
				<path fill="#FB242D" d="M75.28,151.041c-0.409,0.844-0.843,2.082-0.928,2.462c0.03,0.014,0.562,0.214,1.903,0.069
					c1.317-0.142,1.721-0.408,1.756-0.437c-0.264-0.637-0.896-1.592-1.411-2.234c4.882-1.677,21.992-15.893,19.795-37.802
					c-1.528-15.237-13.514-26.511-26.772-25.181c-13.257,1.33-22.768,14.759-21.239,29.996
					C50.629,140.302,70.198,150.429,75.28,151.041z"/>
				<path fill="#FFFFFF" d="M60.483,95.691c0,0-9.233,7.947-7.982,20.415c1.25,12.468,7.796,19.947,13.039,25.551
					C65.54,141.657,50.075,119.693,60.483,95.691z"/>
			</g>
			<g>

					<rect x="72.514" y="193.351" transform="matrix(-0.9541 0.2995 -0.2995 -0.9541 221.9866 500.0492)" fill="#FEB937" width="0.316" height="147.372"/>
				<path fill="#FEB937" d="M49.466,195.724c-0.23,0.91-0.403,2.21-0.409,2.6c0.033,0.007,0.594,0.096,1.878-0.318
					c1.261-0.405,1.602-0.749,1.631-0.783c-0.388-0.57-1.2-1.377-1.835-1.902c4.44-2.632,18.311-20.024,11.715-41.031
					c-4.587-14.61-18.61-23.218-31.324-19.226c-12.712,3.992-19.3,19.071-14.712,33.681
					C23.149,190.209,44.366,196.155,49.466,195.724z"/>
				<path fill="#FFFFFF" d="M23.749,144.527c0,0-7.428,9.654-3.675,21.61c3.754,11.955,11.681,17.95,17.951,22.374
					C38.024,188.512,18.425,170.142,23.749,144.527z"/>
			</g>
			<g>

					<rect x="93.672" y="202.519" transform="matrix(-0.9875 -0.1574 0.1574 -0.9875 143.0201 563.7366)" fill="#00D6AD" width="0.316" height="147.372"/>
				<path fill="#00D6AD" d="M104.985,202.046c-0.613,0.711-1.349,1.797-1.529,2.142c0.026,0.021,0.488,0.352,1.822,0.557
					c1.31,0.201,1.768,0.046,1.809,0.028c-0.091-0.684-0.457-1.769-0.791-2.522c5.148-0.367,25.335-9.715,28.836-31.453
					c2.435-15.119-6.255-29.091-19.412-31.21c-13.154-2.118-25.793,8.421-28.227,23.539
					C83.917,185.339,100.231,200.15,104.985,202.046z"/>
				<path fill="#FFFFFF" d="M104.893,144.753c0,0-10.963,5.311-12.956,17.683c-1.992,12.371,2.414,21.279,6.043,28.041
					C97.98,190.477,88.671,165.279,104.893,144.753z"/>
			</g>
		</g>
	</g>
	<g>
		<g>
			<path fill="#001930" d="M159.208,236.063c-1.133,0-2.395-0.175-3.787-0.522c-1.437-0.392-2.699-1.197-3.787-2.416
				c-0.653-0.783-0.979-1.566-0.979-2.351c0-0.652,0.26-1.327,0.784-2.023c0.608-0.74,1.588-1.784,2.938-3.134
				c0.304-0.305,0.62-0.577,0.947-0.816s0.62-0.468,0.881-0.686c0.435-0.435,0.652-0.74,0.652-0.914
				c0-0.218-0.195-0.479-0.586-0.783c-0.479-0.479-0.718-0.914-0.718-1.307c0-0.261,0.065-0.522,0.196-0.783
				c1.566-4.222,2.98-7.803,4.244-10.74c1.262-2.938,2.764-5.734,4.505-8.391c0.172-0.261,0.544-0.826,1.11-1.697
				c0.565-0.87,1.153-1.609,1.763-2.22c0.348-0.262,0.608-0.392,0.784-0.392c0.173,0,0.348,0.088,0.522,0.261
				c0.262,0.219,0.718,0.414,1.371,0.588c0.479,0.131,0.718,0.349,0.718,0.652c0,0.175-0.108,0.415-0.326,0.719
				c-1.307,1.828-2.918,4.483-4.833,7.966c-0.043,0.13-0.196,0.392-0.457,0.783c-0.262,0.392-0.371,0.849-0.327,1.371h0.195
				c0.348,0,0.653-0.087,0.915-0.261c0.262-0.174,0.413-0.283,0.457-0.327l3.787-2.677l7.575-5.354c2-1.437,3.656-3.069,4.962-4.897
				c0.87-1.218,1.544-2.546,2.025-3.982c0.216-0.783,0.326-1.479,0.326-2.09c0-1.393-0.458-2.491-1.371-3.297
				c-0.914-0.805-2.134-1.208-3.656-1.208c-2.178,0-4.332,0.414-6.464,1.24c-7.749,3.004-13.885,7.618-18.413,13.843
				c-1.566,2.22-2.764,4.744-3.591,7.573c-0.043,0.131-0.088,0.349-0.129,0.653c-0.045,0.305-0.176,0.545-0.393,0.718
				c-0.479-0.173-0.718-0.457-0.718-0.849c-0.044-0.826,0.065-1.697,0.327-2.611c0.784-2.351,1.979-4.679,3.59-6.986
				c4.31-5.877,9.837-10.316,16.584-13.319c2.873-1.176,5.573-1.764,8.097-1.764c1.958,0,3.743,0.479,5.355,1.437
				c2.044,1.264,3.068,2.896,3.068,4.897c0,0.349-0.088,0.958-0.262,1.828c-0.521,2.046-1.435,3.917-2.742,5.615
				c-1.306,1.697-2.982,3.308-5.027,4.831l-5.158,3.722c-0.521,0.436-0.827,0.697-0.914,0.783c-0.305,0.306-0.457,0.545-0.457,0.719
				c0,0.175,0.065,0.283,0.196,0.326c0.129,0.044,0.282,0.065,0.457,0.065c1.393,0,2.808,0.501,4.243,1.502
				c1.523,1.002,2.482,2.459,2.873,4.374c0.218,1.089,0.326,2.047,0.326,2.873c0,1.394-0.218,2.721-0.653,3.982
				c-0.87,2.83-2.394,5.398-4.57,7.705c-3.961,4.222-8.706,6.746-14.233,7.573C160.731,235.997,159.992,236.063,159.208,236.063z
				 M175.662,223.592c1.741-2.611,2.611-5.245,2.611-7.9c0-1.218-0.13-2.197-0.392-2.938c-0.348-1.131-0.783-1.926-1.305-2.383
				c-0.522-0.457-1.306-0.686-2.351-0.686c-2.917,0-5.376,0.457-7.378,1.371c-0.522,0.305-1.002,0.457-1.437,0.457
				c-0.217,0-0.392-0.021-0.522-0.065c-0.521-0.087-0.849-0.13-0.979-0.13c-0.262,0-0.458,0.076-0.587,0.229
				c-0.131,0.152-0.305,0.468-0.523,0.946c-1.393,2.873-2.394,5.05-3.003,6.529c-0.131,0.261-0.338,0.62-0.621,1.077
				s-0.424,0.882-0.424,1.273c0,0.218,0.064,0.457,0.196,0.718c0.521,0.044,1.078-0.032,1.665-0.229
				c0.587-0.195,1.012-0.337,1.272-0.424c0.13,0,0.218-0.021,0.261-0.065c0.347,0,0.588,0.152,0.718,0.457
				c0.043,0.044,0.065,0.131,0.065,0.261c0,0.306-0.088,0.479-0.261,0.522c-0.305,0.175-0.62,0.316-0.946,0.425
				c-0.326,0.108-0.643,0.251-0.947,0.424c-3.265,1.524-5.833,3.744-7.704,6.66c-0.261,0.479-0.392,0.914-0.392,1.306
				c0,0.826,0.543,1.393,1.631,1.697c1.263,0.393,2.503,0.588,3.722,0.588c0.393,0,0.936-0.044,1.633-0.131
				C166.412,232.537,171.743,229.207,175.662,223.592z"/>
			<path fill="#001930" d="M185.227,230.153c-0.5-0.326-0.881-0.837-1.142-1.534c-0.175-0.392-0.306-0.783-0.392-1.175
				c-0.174-1.479-0.262-2.612-0.262-3.396c0-2.96,0.631-5.615,1.895-7.966c0.347-0.652,0.739-1.109,1.175-1.371
				c0.172-0.087,0.304-0.131,0.392-0.131c0.174,0,0.38,0.065,0.62,0.196c0.239,0.131,0.446,0.219,0.62,0.261l0.914,0.131
				c0.479,0.131,0.653,0.436,0.522,0.914c-0.129,0.436-0.37,1.089-0.717,1.959c-1.133,2.742-1.829,5.528-2.09,8.357l-0.063,0.914
				l0.063,0.914c0.043,0.349,0.187,0.588,0.425,0.718c0.24,0.131,0.533,0.131,0.882,0c0.869-0.304,3.111-2.633,6.725-6.985
				c0.434-0.479,0.838-0.936,1.208-1.372c0.369-0.435,0.685-0.805,0.947-1.109c0.217-0.218,0.543-0.413,0.979-0.588
				c0.042-0.043,0.099-0.054,0.163-0.032c0.066,0.022,0.098,0.055,0.098,0.098c0.218,0.219,0.305,0.37,0.261,0.457
				c-0.043,0.305-0.173,0.588-0.392,0.849c-0.695,0.827-1.263,1.48-1.698,1.959c-4.223,5.006-6.92,7.748-8.096,8.227
				c-0.262,0.131-0.588,0.196-0.979,0.196C186.413,230.644,185.727,230.48,185.227,230.153z M189.439,211.121
				c-0.914-0.131-1.328-0.609-1.242-1.437c0.087-0.479,0.261-0.87,0.523-1.175c0.261-0.305,0.565-0.435,0.914-0.393
				c0.305,0,0.805,0.088,1.501,0.262c0.522,0.131,0.827,0.479,0.915,1.045v0.195c0,0.479-0.195,0.849-0.588,1.11
				c-0.348,0.305-0.848,0.457-1.502,0.457C189.873,211.144,189.7,211.121,189.439,211.121z"/>
			<path fill="#001930" d="M197.632,233.646c-0.327-0.174-0.555-0.436-0.685-0.783c-0.131-0.392-0.241-0.979-0.327-1.763
				c-0.088-1.219-0.131-2.111-0.131-2.677c0-4.788,1.001-9.664,3.004-14.626c0.348-0.565,0.565-0.892,0.653-0.979
				c0.347-0.392,0.718-0.479,1.109-0.261c0.13,0.088,0.186,0.218,0.164,0.392c-0.022,0.175-0.033,0.305-0.033,0.392
				c-0.173,0.479-0.063,0.61,0.327,0.392c0.435-0.261,0.806-0.392,1.111-0.392c0.217,0,0.391,0.065,0.522,0.196
				c0.261,0.174,0.393,0.392,0.393,0.652c0,0.219-0.155,0.632-0.457,1.241c-0.088,0.218-0.252,0.609-0.491,1.175
				c-0.24,0.566-0.338,1.198-0.294,1.894c0.479-0.131,0.837-0.359,1.077-0.686c0.239-0.326,0.403-0.532,0.491-0.62
				c0.392-0.435,0.739-0.859,1.045-1.273c0.303-0.413,0.587-0.772,0.847-1.077c0.043-0.043,0.153-0.174,0.328-0.392
				c0.172-0.218,0.38-0.369,0.621-0.457c0.238-0.087,0.489-0.065,0.751,0.065c0.913,0.349,1.371,0.937,1.371,1.763
				c0,0.088,0,0.229,0,0.424c0,0.196-0.022,0.359-0.066,0.49c0,0.131-0.13,0.239-0.392,0.326l-0.26-0.131l-0.393-1.109
				c-0.174-0.348-0.414-0.392-0.718-0.131c-0.087,0.044-0.305,0.24-0.653,0.588c-2.699,3.525-4.68,7.226-5.941,11.1
				c-0.131,0.436-0.283,1.132-0.457,2.089c-0.088,0.61-0.174,1.089-0.262,1.437c0,0.174-0.011,0.413-0.033,0.719
				c-0.022,0.304-0.076,0.652-0.163,1.044c-0.088,0.393-0.196,0.696-0.326,0.914c-0.132,0.218-0.35,0.327-0.654,0.327
				C198.318,233.908,197.958,233.82,197.632,233.646z"/>
			<path fill="#001930" d="M217.447,230.644c0,0-0.153,0-0.457,0c-0.914,0-1.741-0.262-2.481-0.784
				c-0.741-0.521-1.263-1.24-1.566-2.154c-0.654-1.784-1.022-3.96-1.11-6.529l-0.065-1.959c0-4.57,0.762-9.357,2.285-14.363
				c1.394-4.483,2.786-8.228,4.18-11.23c0.042-0.131,0.185-0.425,0.425-0.882c0.237-0.457,0.314-0.968,0.229-1.534l-6.334,0.783
				c-2.001,0.175-3.502,0.262-4.504,0.262c-1.959,0-3.896-0.196-5.812-0.588c-1.829-0.392-3.155-1.088-3.983-2.089
				c-0.261-0.305-0.413-0.653-0.458-1.045c0-0.174,0.131-0.435,0.393-0.784c0.043-0.042,0.131-0.064,0.26-0.064
				c0.131,0,0.218,0.022,0.261,0.064c1.089,1.045,2.285,1.688,3.592,1.927c1.305,0.239,3.112,0.359,5.418,0.359
				c3.615,0,7.378-0.479,11.296-1.437c0.695-0.174,1.274-0.413,1.731-0.719c0.456-0.304,0.814-0.761,1.076-1.371
				c0.13-0.304,0.338-0.663,0.621-1.077c0.281-0.413,0.488-0.729,0.619-0.946c0.783-1.219,1.871-1.828,3.265-1.828
				c0.479,0,0.979,0.064,1.503,0.195c0.217,0.088,0.368,0.229,0.457,0.425c0.086,0.195,0.064,0.381-0.066,0.555l-1.566,2.154
				c-0.045,0.044-0.065,0.131-0.065,0.262c0,0.174,0.054,0.316,0.163,0.424c0.107,0.109,0.25,0.163,0.424,0.163
				c0.957,0,1.654-0.021,2.089-0.064c0.741-0.087,1.85-0.131,3.331-0.131c2.915,0,6.158,0.326,9.728,0.979
				c0.479,0.13,1.045,0.305,1.698,0.522c0.262,0.174,0.393,0.37,0.393,0.587c0,0.219-0.066,0.436-0.197,0.653
				c-0.129,0.219-0.305,0.326-0.521,0.326h-0.589c-0.39,0-0.893-0.043-1.501-0.13c-2.741-0.393-5.506-0.588-8.291-0.588
				c-1.873,0-3.571,0.088-5.094,0.261l-2.088,0.196c-1.09,0.174-1.873,0.74-2.352,1.697c-2.178,4.745-3.917,8.848-5.223,12.308
				c-1.307,3.461-2.265,6.997-2.874,10.61c-0.567,2.916-0.85,5.572-0.85,7.965c0,1.524,0.131,3.069,0.393,4.636l0.195,1.176
				c0.131,0.479,0.327,0.816,0.588,1.012c0.262,0.196,0.61,0.294,1.045,0.294c1.959,0,3.657-0.826,5.093-2.481l1.502-1.501
				c0.043-0.043,0.119-0.065,0.229-0.065s0.206,0.044,0.294,0.13c0.087,0.044,0.162,0.121,0.229,0.229
				c0.064,0.109,0.074,0.187,0.031,0.229c-0.174,0.522-0.436,1.067-0.783,1.633c-1.35,1.872-3.329,2.961-5.941,3.265
				C217.535,230.622,217.447,230.644,217.447,230.644z"/>
			<path fill="#001930" d="M237.557,231.23c-0.652-1.914-0.979-3.917-0.979-6.007c0-1.74,0.108-3.199,0.327-4.374
				c0.131-0.653,0.238-1.545,0.326-2.677c0-0.522-0.26-0.784-0.783-0.784l-0.521,0.131c-1.045,0.522-2.199,1.48-3.462,2.873
				c-2.263,2.742-4.048,5.985-5.353,9.729l-0.326,1.109c-0.131,0.436-0.252,0.74-0.359,0.915c-0.109,0.173-0.316,0.261-0.621,0.261
				c-0.437,0-0.838-0.153-1.207-0.457c-0.371-0.305-0.579-0.632-0.621-0.979c-0.043-0.479-0.064-1.175-0.064-2.089
				c0.26-9.968,3.09-19.588,8.486-28.859c1.393-2.438,3.242-4.81,5.55-7.117c1.22-1.131,2.263-1.915,3.136-2.351
				c1.217-0.608,2.197-0.87,2.938-0.783c1.348,0.088,2.284,0.284,2.807,0.588c0.523,0.305,0.785,0.806,0.785,1.502
				c0,0.436-0.109,1.088-0.328,1.958c-0.217,1.133-0.893,2.591-2.024,4.375c-2.263,3.569-5.331,7.16-9.206,10.773
				c-1.609,1.394-2.699,2.285-3.264,2.677c-1.523,1.088-2.48,2.568-2.873,4.439c-0.219,0.827-0.437,1.502-0.653,2.024
				c-0.044,0.174-0.194,0.686-0.456,1.534s-0.415,1.665-0.457,2.448c0.086,0.044,0.217,0.065,0.391,0.065
				c0.305,0,0.545-0.141,0.718-0.424c0.175-0.283,0.283-0.468,0.327-0.556c1.262-1.653,2.438-2.895,3.525-3.722
				c0.739-0.652,1.502-1.131,2.285-1.437c0.35-0.13,0.675-0.195,0.979-0.195c0.695,0,1.274,0.218,1.731,0.652
				c0.456,0.436,0.685,1.023,0.685,1.764c0,0.958-0.13,2.35-0.392,4.179c-0.175,1.566-0.26,2.765-0.26,3.591
				c0,1.35,0.15,2.634,0.456,3.852c0.173,0.653,0.479,1.393,0.915,2.221c0.041,0.086,0,0.261-0.132,0.522
				c-0.088,0.042-0.284,0.064-0.588,0.064C238.297,232.406,237.818,231.927,237.557,231.23z M232.955,209.456
				c0.107,0.022,0.184,0.012,0.229-0.032c4.787-3.699,8.529-7.835,11.229-12.406c0.436-0.826,0.871-1.936,1.307-3.329
				c0.042-0.131,0.086-0.271,0.131-0.425c0.043-0.152,0.064-0.337,0.064-0.555c0-0.479-0.153-0.805-0.457-0.979
				c-0.131-0.131-0.284-0.196-0.457-0.196c-0.305,0-0.598,0.121-0.882,0.359c-0.283,0.24-0.446,0.382-0.489,0.425
				c-0.61,0.521-1.045,0.937-1.306,1.24c-4.048,3.961-7.269,8.989-9.663,15.082c-0.174,0.35-0.174,0.61,0,0.784
				C232.748,209.424,232.846,209.435,232.955,209.456z"/>
			<path fill="#001930" d="M244.543,229.925c-0.609,0-1.133-0.304-1.566-0.914c-0.48-0.608-0.763-1.437-0.85-2.48
				c-0.043-0.305-0.064-0.762-0.064-1.371c0-1.61,0.305-3.221,0.914-4.832c0.825-2.089,2.196-3.134,4.113-3.134
				c0.217,0,0.674,0.044,1.371,0.131c0.521,0.087,0.826,0.13,0.914,0.13c0.262,0,0.457-0.075,0.588-0.229
				c0.131-0.151,0.283-0.489,0.457-1.012c0.609-1.653,1.045-2.895,1.305-3.722c0.262-0.695,0.5-1.349,0.719-1.959
				c0.217-0.608,0.414-1.175,0.588-1.697c0.957-2.524,2.09-4.875,3.395-7.052c1.176-1.959,2.373-3.438,3.592-4.439
				c0.74-0.653,1.502-1.132,2.285-1.437c0.521-0.174,0.893-0.262,1.109-0.262c0.826,0,1.523,0.306,2.09,0.914
				c0.564,0.61,0.805,1.371,0.719,2.285c-0.045,0.958-0.283,1.916-0.719,2.873c-2.742,7.313-7.029,13.016-12.863,17.106
				c-0.652,0.479-1.164,1.002-1.533,1.567c-0.371,0.566-0.664,1.24-0.881,2.024c-0.393,1.828-0.676,3.21-0.85,4.146
				c-0.174,0.937-0.262,1.948-0.262,3.036c0,1.262,0.238,1.894,0.719,1.894c0.479,0,1.131-0.533,1.959-1.6
				c0.826-1.066,1.871-2.579,3.133-4.538c1.307-2.001,2.373-3.503,3.201-4.505c0.826-1.001,1.391-1.349,1.697-1.045
				c0.086,0.175,0.086,0.349,0,0.522c-0.131,0.436-0.326,0.783-0.588,1.045c-0.566,0.61-1.633,2.089-3.199,4.439
				c-1.48,2.22-2.668,3.875-3.559,4.962c-0.893,1.088-1.73,1.633-2.514,1.633c-1.176,0-2.047-1.524-2.611-4.57
				c-0.262,0.305-0.49,0.577-0.686,0.816c-0.197,0.239-0.383,0.446-0.557,0.62C245.631,229.708,245.109,229.925,244.543,229.925z
				 M245,227.477c0.088-0.021,0.173-0.075,0.261-0.163c1.437-2.002,2.634-4.526,3.593-7.574c0-0.13-0.023-0.217-0.066-0.261
				c-0.088-0.435-0.219-0.696-0.391-0.783c-0.088-0.043-0.197-0.065-0.328-0.065c-0.26,0-0.5,0.109-0.717,0.326
				c-1.655,2.177-2.656,4.57-3.004,7.182c0.042,0.219,0.055,0.393,0.033,0.522c-0.024,0.131-0.013,0.24,0.031,0.327
				c0.088,0.261,0.197,0.414,0.326,0.457C244.826,227.488,244.912,227.499,245,227.477z M253.75,215.561
				c4.656-3.917,8.053-8.684,10.186-14.299c0.217-0.652,0.412-1.458,0.588-2.416v-0.521v-0.131c0-0.348-0.078-0.62-0.229-0.816
				c-0.154-0.195-0.359-0.294-0.621-0.294c-0.219,0-0.436,0.065-0.652,0.196c-0.436,0.218-0.938,0.566-1.502,1.045
				c-1.395,1.219-2.547,2.59-3.461,4.113c-1.133,1.828-2.133,3.744-3.004,5.745c-0.871,2.003-1.74,4.288-2.611,6.855
				c-0.043,0.131-0.064,0.327-0.064,0.588c0,0.175,0.021,0.262,0.064,0.262s0.131,0.032,0.262,0.098s0.217,0.076,0.262,0.032
				C253.139,215.975,253.4,215.822,253.75,215.561z"/>
			<path fill="#001930" d="M271.443,228.488c0.348,0,0.904-0.467,1.666-1.403c0.76-0.936,1.707-2.209,2.84-3.819
				c1.219-1.654,2.023-2.698,2.416-3.135c0.26-0.13,0.457-0.151,0.588-0.064c0.172,0.087,0.281,0.195,0.326,0.326
				c0.043,0.131,0.021,0.261-0.066,0.392c-3.873,6.617-6.703,9.925-8.486,9.925c-1.002,0-1.721-1.066-2.156-3.199
				c-0.129-0.609-0.348-1.764-0.652-3.461l-0.262-0.065c-0.217,0-0.414,0.065-0.588,0.196c-0.174,0.13-0.283,0.218-0.326,0.261
				c-0.914,0.783-1.459,1.24-1.631,1.371c-0.742,0.566-1.59,0.849-2.547,0.849c-1.133,0-2.111-0.435-2.938-1.306
				c-0.828-0.87-1.242-1.98-1.242-3.33c0-1.479,0.447-2.971,1.34-4.472c0.891-1.502,1.969-2.535,3.23-3.102
				c0.828-0.348,1.654-0.522,2.482-0.522c1.174,0,2.316,0.316,3.428,0.946c1.109,0.632,1.99,1.47,2.645,2.514
				c0.303,0.479,0.457,0.763,0.457,0.85s-0.033,0.207-0.098,0.358c-0.066,0.153-0.121,0.382-0.164,0.686
				c-0.131,0.697-0.283,2.134-0.457,4.31l-0.195,2.22v0.588c0,0.653,0.021,1.153,0.064,1.502
				C271.117,228.293,271.225,228.488,271.443,228.488z M268.18,219.217c0.217-0.304,0.457-0.849,0.719-1.632
				c0.086-0.435,0.129-0.675,0.129-0.718c0-0.174-0.055-0.305-0.162-0.393c-0.109-0.086-0.186-0.173-0.229-0.261
				c-0.393-0.392-0.871-0.588-1.438-0.588c-0.783,0-1.588,0.316-2.416,0.947c-0.826,0.631-1.523,1.437-2.088,2.415
				c-0.566,0.979-0.85,1.927-0.85,2.841c0,0.305,0.088,0.718,0.262,1.24c0.131,0.219,0.25,0.414,0.359,0.588
				c0.107,0.174,0.229,0.261,0.359,0.261c0.172,0,0.348-0.065,0.521-0.195C265.307,222.635,266.916,221.133,268.18,219.217z"/>
			<path fill="#001930" d="M270.203,266.554c0,0-0.305,0-0.914,0c-0.783,0-1.469-0.272-2.057-0.816s-0.904-1.251-0.947-2.122
				c-0.043-0.218-0.064-0.544-0.064-0.979c0-1.264,0.305-2.7,0.914-4.31c2.395-6.66,6.463-12.036,12.209-16.127
				c0.131-0.088,0.314-0.229,0.555-0.425c0.238-0.195,0.467-0.338,0.686-0.424c1.262-0.522,2.242-1.273,2.938-2.253
				c0.697-0.979,1.242-2.21,1.633-3.689c0.479-1.785,1.066-3.635,1.764-5.55l1.045-3.329c0.172-0.609,0.26-1.066,0.26-1.371
				c0-0.349-0.043-0.631-0.131-0.85c-1.654,1.133-2.59,1.786-2.807,1.959c-1.523,1.002-2.982,1.502-4.375,1.502
				c-2.395,0-3.59-1.458-3.59-4.375c0-1.958,0.564-4.004,1.697-6.137l0.195-0.196c0.174-0.261,0.436-0.304,0.783-0.131
				c0.393,0.088,0.566,0.306,0.523,0.653c-0.131,0.392-0.252,0.783-0.359,1.175c-0.109,0.393-0.229,0.763-0.359,1.11
				c-0.305,1.306-0.457,2.416-0.457,3.33c0,0.61,0.064,1.284,0.195,2.023c0.043,0.479,0.217,0.816,0.523,1.013
				c0.303,0.195,0.695,0.251,1.174,0.163c0.654-0.087,1.502-0.435,2.547-1.045c2.393-1.609,4.244-3.438,5.551-5.484l2.088-3.722
				c0.088,0,0.229,0.022,0.426,0.065c0.195,0.044,0.336,0.088,0.424,0.131c0.086,0.088,0.262,0.13,0.521,0.13h0.654
				c0.391,0,0.629,0.153,0.717,0.457c0.088,0.35,0.131,0.632,0.131,0.85c0,0.392-0.064,0.783-0.195,1.175
				c-0.566,2.351-1.066,4.201-1.502,5.55l-2.938,9.794c-0.262,0.783-0.371,1.371-0.326,1.763c0.043,0.261,0.25,0.479,0.619,0.653
				c0.369,0.173,0.598,0.326,0.686,0.457c0.088,0.086,0.131,0.151,0.131,0.195c-1.045,0.696-1.752,1.197-2.121,1.502
				c-0.371,0.304-0.686,0.695-0.947,1.175c-0.262,0.479-0.652,1.393-1.176,2.742c-3.092,7.399-6.617,13.581-10.576,18.543
				c-1.045,1.307-2.002,2.351-2.873,3.135c-0.479,0.522-1.197,1.065-2.156,1.632C270.443,266.4,270.203,266.554,270.203,266.554z
				 M269.811,263.354c1.045-1.045,1.807-1.851,2.285-2.416c3.787-4.919,6.943-10.273,9.467-16.062
				c0.043-0.131,0.088-0.261,0.131-0.392s0.088-0.284,0.131-0.457c0.088-0.219,0.066-0.392-0.064-0.522
				c-0.176-0.175-0.338-0.219-0.49-0.131c-0.152,0.087-0.25,0.131-0.293,0.131c-0.045,0-0.219,0.108-0.523,0.326
				c-5.789,4.613-9.598,10.033-11.426,16.258c-0.086,0.262-0.262,1.066-0.521,2.416c0,0.131,0.01,0.304,0.031,0.522
				c0.023,0.217,0.066,0.38,0.131,0.489c0.066,0.108,0.186,0.163,0.359,0.163C269.332,263.681,269.594,263.572,269.811,263.354z"/>
		</g>
		<g>
			<path fill="#001930" d="M260.625,185.159h1.393v6.233h-1.393v-2.452h-2.479v2.452h-1.391v-6.233h1.391v2.604h2.479V185.159z"/>
			<path fill="#001930" d="M269.775,191.393l-0.58-1.347h-2.611l-0.58,1.347h-1.48l2.693-6.233h1.346l2.693,6.233H269.775z
				 M267.895,187.014l-0.785,1.811h1.561L267.895,187.014z"/>
			<path fill="#001930" d="M278.057,185.717c0.436,0.371,0.654,0.942,0.654,1.712c0,0.771-0.225,1.333-0.674,1.69
				c-0.447,0.356-1.133,0.535-2.055,0.535h-0.83v1.738h-1.391v-6.233h2.203C276.922,185.159,277.619,185.345,278.057,185.717z
				 M277.035,188.169c0.166-0.188,0.25-0.461,0.25-0.82s-0.109-0.615-0.326-0.767c-0.217-0.152-0.555-0.228-1.012-0.228h-0.795
				v2.096h0.938C276.553,188.45,276.869,188.356,277.035,188.169z"/>
			<path fill="#001930" d="M285.877,185.717c0.438,0.371,0.656,0.942,0.656,1.712c0,0.771-0.225,1.333-0.674,1.69
				c-0.449,0.356-1.135,0.535-2.057,0.535h-0.828v1.738h-1.391v-6.233h2.201C284.742,185.159,285.439,185.345,285.877,185.717z
				 M284.855,188.169c0.166-0.188,0.25-0.461,0.25-0.82s-0.107-0.615-0.326-0.767c-0.217-0.152-0.553-0.228-1.012-0.228h-0.793
				v2.096h0.936C284.375,188.45,284.689,188.356,284.855,188.169z"/>
			<path fill="#001930" d="M292.043,191.393h-1.391v-2.461l-2.158-3.772h1.508l1.346,2.318l1.348-2.318h1.506l-2.158,3.772V191.393z
				"/>
		</g>
		<g>
			<path fill="#001930" d="M192.9,239.523v4.693h-1.299v-4.693h-1.647V238.4h4.593v1.123H192.9z"/>
			<path fill="#001930" d="M203.975,243.414c-0.588,0.574-1.312,0.861-2.172,0.861s-1.583-0.287-2.172-0.861
				c-0.588-0.574-0.881-1.288-0.881-2.143s0.293-1.568,0.881-2.143c0.589-0.574,1.312-0.861,2.172-0.861s1.584,0.287,2.172,0.861
				c0.589,0.574,0.881,1.288,0.881,2.143S204.564,242.84,203.975,243.414z M203.535,241.275c0-0.519-0.167-0.961-0.5-1.327
				c-0.333-0.366-0.742-0.549-1.227-0.549c-0.486,0-0.895,0.183-1.229,0.549c-0.332,0.366-0.499,0.809-0.499,1.327
				s0.167,0.96,0.499,1.323c0.334,0.363,0.743,0.545,1.229,0.545c0.484,0,0.894-0.182,1.227-0.545
				C203.368,242.235,203.535,241.794,203.535,241.275z"/>
			<path fill="#001930" d="M218.146,244.217h-1.299v-2.297l-2.013-3.52h1.406l1.257,2.163l1.256-2.163h1.406l-2.014,3.52V244.217z"
				/>
			<path fill="#001930" d="M229.213,243.414c-0.588,0.574-1.311,0.861-2.172,0.861c-0.86,0-1.582-0.287-2.172-0.861
				c-0.588-0.574-0.881-1.288-0.881-2.143s0.293-1.568,0.881-2.143c0.59-0.574,1.312-0.861,2.172-0.861
				c0.861,0,1.584,0.287,2.172,0.861c0.589,0.574,0.883,1.288,0.883,2.143S229.802,242.84,229.213,243.414z M228.772,241.275
				c0-0.519-0.167-0.961-0.5-1.327c-0.331-0.366-0.741-0.549-1.226-0.549c-0.486,0-0.895,0.183-1.229,0.549
				c-0.332,0.366-0.498,0.809-0.498,1.327s0.166,0.96,0.498,1.323c0.334,0.363,0.742,0.545,1.229,0.545
				c0.484,0,0.895-0.182,1.226-0.545C228.605,242.235,228.772,241.794,228.772,241.275z"/>
			<path fill="#001930" d="M236.479,242.715c0.217,0.27,0.508,0.403,0.873,0.403c0.367,0,0.656-0.134,0.871-0.403
				c0.213-0.269,0.32-0.637,0.32-1.103V238.4h1.296v3.254c0,0.843-0.232,1.49-0.698,1.942c-0.465,0.452-1.063,0.679-1.789,0.679
				s-1.324-0.228-1.793-0.683c-0.47-0.455-0.703-1.101-0.703-1.938V238.4h1.299v3.212
				C236.154,242.078,236.261,242.446,236.479,242.715z"/>
		</g>
	</g>
</g>
</svg>
