<?xml version="1.0" encoding="utf-8"?>
<!-- Generator: Adobe Illustrator 26.2.1, SVG Export Plug-In . SVG Version: 6.00 Build 0)  -->
<svg version="1.1" id="Capa_1" xmlns="http://www.w3.org/2000/svg" xmlns:xlink="http://www.w3.org/1999/xlink" x="0px" y="0px"
	 viewBox="0 0 1080 1080" style="enable-background:new 0 0 1080 1080;" xml:space="preserve">
<style type="text/css">
	.st0{fill:url(#XMLID_00000044162406394643063040000011831683724535659146_);}
	.st1{fill:#3C3C3B;}
	.st2{fill:#FFFFFF;}
</style>
<g>
	<g>
		
			<linearGradient id="XMLID_00000178176493461660262500000017572749294975544741_" gradientUnits="userSpaceOnUse" x1="542.1875" y1="592.0378" x2="537.5909" y2="217.426">
			<stop  offset="0" style="stop-color:#84542D"/>
			<stop  offset="6.110269e-02" style="stop-color:#8C5C33"/>
			<stop  offset="0.297" style="stop-color:#A77945"/>
			<stop  offset="0.5332" style="stop-color:#BB8D52"/>
			<stop  offset="0.7681" style="stop-color:#C6995A"/>
			<stop  offset="1" style="stop-color:#CA9D5D"/>
		</linearGradient>
		
			<path id="XMLID_00000134211819642149070670000004313799428803410106_" style="fill:url(#XMLID_00000178176493461660262500000017572749294975544741_);" d="
			M460.9,453.9c2.9-0.5,5.2-1.5,6.7-3.2c1.5-1.6,3.6-5.1,6.1-10.6l49.1-113.9c1.3-2.7,1.9-4.6,1.9-5.6c0-1.8-1.8-3.2-5.3-4.1v-3.4
			h35.8v3.4c-3.5,1.1-5.3,2.6-5.3,4.4c0,0.8,0.6,2.5,1.9,5.3l51.6,109.7c3.8,8.1,6.3,12.8,7.5,14.2c1.2,1.4,3.9,2.6,8,3.6v3.4H584
			v-3.4c4.2-0.6,6.3-2.1,6.3-4.6c0-1.1-0.8-3.3-2.4-6.5l-9.5-20.3l-8.9-19.3h0.1l-8.2-17.5l-0.2-0.3l-24.8-53.3l-47.5,112.2
			c-1.2,2.6-1.8,4.4-1.8,5.5c0,2.1,2.1,3.5,6.4,4.2v3.4h-32.8V453.9z M539.9,228.8L360.3,405.7l179.7,168.4l179.6-168.4L539.9,228.8
			z"/>
		<g id="XMLID_00000060745380894201961090000005565815162194413982_">
			<path id="XMLID_00000058591587887949814090000016125225658004679614_" class="st1" d="M324.5,704.9v25.8c0,1.4,0.2,2.4,0.7,3
				c0.4,0.6,1.3,1.1,2.7,1.4v1.7H313v-1.7c1.3-0.3,2.2-0.8,2.7-1.4c0.5-0.6,0.7-1.6,0.7-3.1V672c0-1.5-0.2-2.5-0.7-3.1
				c-0.4-0.6-1.3-1.1-2.7-1.4v-1.7h39c5.3,0,9.6,0.3,12.7,0.9c3.1,0.6,5.8,1.6,8.1,3c2.4,1.5,4.3,3.5,5.7,6c1.7,2.9,2.5,6.1,2.5,9.7
				c0,5.4-1.8,9.8-5.4,13.3c-3.6,3.4-8.5,5.4-14.8,5.9l18,28c1.1,1.7,2.6,2.6,4.7,2.6v1.7h-16.4v-1.7c1.7-0.3,2.6-0.8,2.6-1.5
				c0-0.3-0.6-1.5-1.8-3.4l-16.1-25.4H324.5z M324.5,698.2h28.8c3.9,0,6.9-0.2,8.9-0.5c2-0.3,3.8-0.9,5.3-1.8
				c3.6-2.1,5.4-5.6,5.4-10.5c0-4.9-1.8-8.4-5.5-10.5c-1.6-0.9-3.4-1.5-5.4-1.8c-2-0.3-5.1-0.5-9.3-0.5h-28V698.2z"/>
			<path id="XMLID_00000013163485678152424880000002419741333963255720_" class="st1" d="M615.3,730.7V672c0-1.5-0.2-2.5-0.7-3.1
				c-0.4-0.6-1.3-1.1-2.7-1.4v-1.7h14.8v1.7c-1.3,0.3-2.2,0.8-2.7,1.4c-0.4,0.6-0.7,1.6-0.7,3.1v58.7c0,1.5,0.2,2.5,0.7,3.1
				c0.4,0.6,1.3,1.1,2.7,1.4v1.7H612v-1.7c1.4-0.3,2.2-0.8,2.7-1.4C615.1,733.2,615.3,732.2,615.3,730.7"/>
			<path id="XMLID_00000114789775030268223960000003074359863023746200_" class="st1" d="M769.6,665.9v1.5l-48.8,62.8h43
				c1.5,0,2.5-0.2,3.1-0.7c0.6-0.5,1.1-1.3,1.4-2.7h1.7v13.4h-1.7c-0.3-1.3-0.8-2.2-1.4-2.7c-0.6-0.5-1.6-0.7-3.1-0.7h-57.1v-1.5
				l49-62.7h-42.3c-1.5,0-2.5,0.2-3.1,0.7c-0.6,0.5-1.1,1.3-1.4,2.6h-1.7v-13.4h1.7c0.3,1.3,0.8,2.2,1.4,2.7
				c0.6,0.4,1.6,0.7,3.1,0.7H769.6z"/>
			<path id="XMLID_00000147901877226538486790000011035254829404488117_" class="st1" d="M232.5,733.4c-0.6-0.7-1.8-3-3.6-7
				L204,672.3c-0.6-1.4-0.9-2.2-0.9-2.6c0-0.9,0.8-1.6,2.5-2.2v-1.7h-17.3v1.7c1.7,0.4,2.5,1.1,2.5,2c0,0.5-0.3,1.4-0.9,2.8
				l-26,56.1c-1.2,2.7-2.2,4.4-2.9,5.2c-0.7,0.8-1.8,1.3-3.2,1.6v1.7h15.8v-1.7c-2.1-0.3-3.1-1-3.1-2.1c0-0.5,0.3-1.4,0.9-2.7
				l2.6-5.7l1.4-3.1l5.2-11.4h0l16-35.1l12,26.3l0.1,0.2l3.9,8.6h0l4.3,9.5l4.6,10c0.8,1.6,1.1,2.7,1.1,3.2c0,1.3-1,2-3,2.3v1.7
				h16.9v-1.7C234.4,734.7,233.1,734.1,232.5,733.4"/>
			<path id="XMLID_00000004533814722565917970000016071671943864759685_" class="st1" d="M528.6,733.4c-0.6-0.7-1.8-3-3.6-7
				l-24.9-54.1c-0.6-1.4-0.9-2.2-0.9-2.6c0-0.9,0.8-1.6,2.5-2.2v-1.7h-17.3v1.7c1.7,0.4,2.6,1.1,2.6,2c0,0.5-0.3,1.4-0.9,2.8
				l-26,56.1c-1.2,2.7-2.2,4.4-2.9,5.2c-0.7,0.8-1.8,1.3-3.2,1.6v1.7h15.8v-1.7c-2.1-0.3-3.1-1-3.1-2.1c0-0.5,0.3-1.4,0.9-2.7
				l2.6-5.7l1.4-3.1l5.2-11.4h0l16-35.1l12,26.3l0.1,0.2l3.9,8.6h0l4.3,9.5l4.6,10c0.8,1.6,1.1,2.7,1.1,3.2c0,1.3-1,2-3,2.3v1.7
				h16.9v-1.7C530.5,734.7,529.2,734.1,528.6,733.4"/>
			<path id="XMLID_00000086668982578696318940000011721230368070819244_" class="st1" d="M918.2,733.4c-0.6-0.7-1.8-3-3.6-7
				l-24.9-54.1c-0.6-1.4-0.9-2.2-0.9-2.6c0-0.9,0.9-1.6,2.6-2.2v-1.7H874v1.7c1.7,0.4,2.6,1.1,2.6,2c0,0.5-0.3,1.4-0.9,2.8l-26,56.1
				c-1.2,2.7-2.2,4.4-2.9,5.2c-0.7,0.8-1.8,1.3-3.2,1.6v1.7h15.8v-1.7c-2.1-0.3-3.1-1-3.1-2.1c0-0.5,0.3-1.4,0.9-2.7l2.6-5.7
				l1.4-3.1l5.2-11.4h0l16-35.1l12,26.3l0.1,0.2l3.9,8.6h0l4.3,9.5l4.6,10c0.8,1.6,1.1,2.7,1.1,3.2c0,1.3-1,2-3,2.3v1.7h16.9v-1.7
				C920.1,734.7,918.8,734.1,918.2,733.4"/>
		</g>
		<g>
			<path class="st1" d="M211,848.6c0.3,0.4,0.9,0.6,1.8,0.6v1.1h-12.2v-1.1c0.9,0,1.4-0.2,1.8-0.6c0.3-0.4,0.5-0.9,0.5-1.6v-18.4
				h-32.6V847c0,0.7,0.2,1.2,0.5,1.6c0.3,0.4,0.9,0.6,1.8,0.6v1.1h-12.2v-1.1c0.9,0,1.4-0.2,1.8-0.6c0.3-0.4,0.5-0.9,0.5-1.6v-41.8
				c0-0.7-0.2-1.2-0.5-1.6c-0.3-0.4-0.9-0.6-1.8-0.6v-1.1h12.2v1.1c-0.9,0-1.4,0.2-1.8,0.6c-0.3,0.4-0.5,0.9-0.5,1.6v17.3h32.6
				v-17.3c0-0.7-0.2-1.2-0.5-1.6c-0.3-0.4-0.9-0.6-1.8-0.6v-1.1h12.2v1.1c-0.9,0-1.4,0.2-1.8,0.6c-0.3,0.4-0.5,0.9-0.5,1.6V847
				C210.6,847.7,210.7,848.2,211,848.6z"/>
			<path class="st1" d="M250.9,803.6c-0.3-0.4-0.9-0.6-1.8-0.6v-1.1h38.6c1.6,0,2.6-0.1,3-0.4c0.4-0.3,0.6-0.8,0.6-1.4h1.1v10.5
				h-1.1c0-0.8-0.2-1.4-0.7-1.9c-0.5-0.5-1.4-0.7-2.9-0.7h-28.8v14.6h18.7c1.1,0,2-0.2,2.7-0.6c0.7-0.4,1.1-1,1.1-2h1.1v11.1h-1.1
				c0-0.9-0.3-1.6-0.8-1.9c-0.6-0.4-1.5-0.6-2.8-0.6h-18.9v15.7h30.8c1.3,0,2.2-0.2,2.9-0.7c0.6-0.5,0.9-1.3,0.9-2.4h1.1v11h-1.1
				c0-1.2-1.1-1.8-3.2-1.8h-41.3v-1.1c0.9,0,1.4-0.2,1.8-0.6c0.3-0.4,0.5-0.9,0.5-1.6v-41.8C251.4,804.5,251.3,804,250.9,803.6z"/>
			<path class="st1" d="M339.4,848.6c0.3,0.4,0.9,0.6,1.8,0.6v1.1H329v-1.1c0.9,0,1.4-0.2,1.8-0.6c0.3-0.4,0.5-0.9,0.5-1.6v-41.8
				c0-0.7-0.2-1.2-0.5-1.6c-0.3-0.4-0.9-0.6-1.8-0.6v-1.1h30.9c6.1,0,10.4,1.2,13.1,3.5c2.6,2.3,4,5.6,4,10c0,3.9-1,6.9-3,9.2
				c-2,2.3-5.3,3.7-10,4.3l11.6,18c0.7,1,1.2,1.6,1.6,1.9c0.4,0.3,1.1,0.5,2,0.5v1.1h-13.3v-1.1c0.8,0,1.3-0.1,1.5-0.2
				c0.2-0.1,0.3-0.3,0.3-0.6c0-0.4-0.2-0.7-0.5-1l-11.3-18.1h-17V847C339,847.7,339.1,848.2,339.4,848.6z M359.1,823
				c3.7,0,6.4-0.7,7.9-2.1c1.5-1.4,2.3-3.3,2.3-5.8c0-1.2-0.2-2.3-0.5-3.1c-0.3-0.9-0.9-1.6-1.7-2.2c-0.8-0.6-1.9-1-3.3-1.3
				c-1.4-0.3-3.1-0.4-5.3-0.4H339V823H359.1z"/>
			<path class="st1" d="M412.8,849.2c1,0,1.6-0.2,1.9-0.6c0.3-0.4,0.5-0.9,0.5-1.6v-41.8c0-0.7-0.2-1.2-0.5-1.6
				c-0.3-0.4-1-0.6-2.1-0.6v-1.1h15.6v1.1c-1.4,0-2.1,0.4-2.1,1.2c0,0.4,0.1,0.7,0.4,1l15,29.5l15.6-29.5c0.1-0.2,0.1-0.4,0.2-0.6
				c0.1-0.2,0.1-0.4,0.1-0.6c0-0.3-0.2-0.6-0.5-0.8c-0.3-0.2-0.9-0.3-1.8-0.3v-1.1h16.5v1.1c-1,0-1.7,0.2-2.1,0.6
				c-0.3,0.4-0.5,0.9-0.5,1.6V847c0,0.7,0.2,1.2,0.5,1.6c0.3,0.4,1,0.6,2.1,0.6v1.1h-12.9v-1.1c1,0,1.7-0.2,2.1-0.6
				c0.3-0.4,0.5-0.9,0.5-1.6v-36.4l-0.3-0.2l-19.6,39l-19.6-39l-0.1,0.2V847c-0.1,0.7,0.1,1.2,0.4,1.6c0.3,0.4,0.9,0.6,1.8,0.6v1.1
				h-11V849.2z"/>
			<path class="st1" d="M542.6,802.9c3.4,1.1,6.3,2.7,8.8,4.8c2.5,2.1,4.4,4.7,5.8,7.8c1.4,3.1,2.1,6.6,2.1,10.6
				c0,4-0.7,7.5-2.1,10.6c-1.4,3.1-3.3,5.7-5.8,7.7c-2.5,2.1-5.4,3.6-8.8,4.7c-3.4,1-7.1,1.5-11.1,1.5c-4,0-7.7-0.5-11.1-1.5
				c-3.4-1-6.3-2.6-8.8-4.7c-2.5-2.1-4.4-4.7-5.8-7.7c-1.4-3.1-2.1-6.6-2.1-10.6c0-4,0.7-7.5,2.1-10.6c1.4-3.1,3.3-5.7,5.8-7.8
				c2.5-2.1,5.4-3.7,8.8-4.8c3.4-1.1,7.1-1.6,11.1-1.6C535.6,801.3,539.2,801.8,542.6,802.9z M517,812.5c-3.4,3.3-5.1,7.8-5.1,13.6
				s1.7,10.3,5.1,13.6c3.4,3.3,8.2,4.9,14.5,4.9c6.3,0,11.1-1.6,14.5-4.9c3.4-3.3,5.1-7.8,5.1-13.6s-1.7-10.3-5.1-13.6
				c-3.4-3.3-8.2-4.9-14.5-4.9C525.3,807.6,520.5,809.2,517,812.5z"/>
			<path class="st1" d="M595.2,835.8c-0.2,0.4-0.3,0.8-0.3,1.2c0,0.9,0.5,1.8,1.6,2.7c1.1,0.9,2.5,1.8,4.2,2.5
				c1.8,0.8,3.7,1.4,5.9,1.9c2.2,0.5,4.5,0.7,6.7,0.7c5.8,0,10.1-0.9,12.7-2.6c2.6-1.7,3.9-3.9,3.9-6.6c0-1.3-0.3-2.4-1-3.2
				c-0.6-0.9-1.5-1.5-2.7-2c-1.1-0.5-2.5-0.8-4-1c-1.5-0.2-3.1-0.3-4.8-0.3c-2.8,0-5.8,0-9,0c-3.2,0-6.1-0.4-8.7-1.2
				c-2.6-0.8-4.8-2-6.5-3.8c-1.7-1.8-2.6-4.4-2.6-7.9c0-2.2,0.6-4.2,1.8-6c1.2-1.8,2.9-3.4,5-4.7c2.1-1.3,4.6-2.3,7.5-3
				c2.9-0.7,6-1.1,9.4-1.1c2.6,0,4.9,0.2,6.9,0.6c1.9,0.4,3.6,0.8,5,1.2c1.4,0.4,2.6,0.8,3.5,1.2c0.9,0.4,1.7,0.6,2.3,0.6
				c0.7,0,1.2-0.1,1.5-0.4c0.3-0.2,0.6-0.5,0.9-0.8l1.1,0.5l-5.1,10.6l-1-0.6c0.1-0.2,0.1-0.6,0.1-1.2c0-0.4-0.4-1-1.1-1.6
				c-0.7-0.6-1.8-1.2-3.1-1.8c-1.4-0.6-3-1.1-4.8-1.5c-1.9-0.4-3.9-0.6-6.1-0.6c-5,0-8.9,0.8-11.8,2.4c-2.9,1.6-4.4,3.7-4.4,6.3
				c0,1.2,0.3,2.1,1,2.8c0.6,0.7,1.5,1.3,2.7,1.7c1.1,0.4,2.5,0.7,4,0.8c1.5,0.1,3.1,0.2,4.8,0.2c2.9,0,5.9,0,9,0.1
				c3.1,0.1,6,0.6,8.7,1.4c2.6,0.9,4.8,2.2,6.5,4.1c1.7,1.9,2.6,4.7,2.6,8.4c0,2-0.5,3.9-1.5,5.7c-1,1.8-2.5,3.4-4.6,4.8
				c-2,1.4-4.5,2.5-7.5,3.3c-3,0.8-6.4,1.2-10.4,1.2c-3.3,0-6.2-0.3-8.6-0.8c-2.4-0.5-4.5-1.1-6.2-1.8c-1.7-0.7-3.1-1.4-4.2-1.9
				c-1.1-0.6-2-0.9-2.7-0.9c-0.6,0-1.3,0.4-1.9,1.1l-0.9-0.6l5-10.6L595.2,835.8z"/>
			<path class="st1" d="M671.1,849.2c0.9,0,1.4-0.2,1.8-0.6c0.3-0.4,0.5-0.9,0.5-1.6v-41.8c0-0.7-0.2-1.2-0.5-1.6
				c-0.3-0.4-0.9-0.6-1.8-0.6v-1.1h12.2v1.1c-0.9,0-1.4,0.2-1.8,0.6c-0.3,0.4-0.5,0.9-0.5,1.6V847c0,0.7,0.2,1.2,0.5,1.6
				c0.3,0.4,0.9,0.6,1.8,0.6v1.1h-12.2V849.2z"/>
			<path class="st1" d="M731.2,803c-0.9,0-1.4,0.2-1.8,0.6c-0.3,0.4-0.5,1.1-0.5,1.9v38.7h31c2.2,0,3.2-0.9,3.2-2.8h1.1v10.6h-1.1
				c0-1.2-1.1-1.8-3.2-1.8H719v-1.1c0.9,0,1.4-0.2,1.8-0.6c0.3-0.4,0.5-0.9,0.5-1.6v-41.8c0-0.7-0.2-1.2-0.5-1.6
				c-0.3-0.4-0.9-0.6-1.8-0.6v-1.1h12.2V803z"/>
			<path class="st1" d="M805.3,803c-0.9,0-1.4,0.2-1.8,0.6c-0.3,0.4-0.5,1.1-0.5,1.9v38.7h31c2.2,0,3.2-0.9,3.2-2.8h1.1v10.6h-1.1
				c0-1.2-1.1-1.8-3.2-1.8h-40.9v-1.1c0.9,0,1.4-0.2,1.8-0.6c0.3-0.4,0.5-0.9,0.5-1.6v-41.8c0-0.7-0.2-1.2-0.5-1.6
				c-0.3-0.4-0.9-0.6-1.8-0.6v-1.1h12.2V803z"/>
			<path class="st1" d="M902.9,802.9c3.4,1.1,6.3,2.7,8.8,4.8c2.5,2.1,4.4,4.7,5.8,7.8c1.4,3.1,2.1,6.6,2.1,10.6
				c0,4-0.7,7.5-2.1,10.6c-1.4,3.1-3.3,5.7-5.8,7.7c-2.5,2.1-5.4,3.6-8.8,4.7c-3.4,1-7.1,1.5-11.1,1.5c-4,0-7.7-0.5-11.1-1.5
				c-3.4-1-6.3-2.6-8.8-4.7s-4.4-4.7-5.8-7.7c-1.4-3.1-2.1-6.6-2.1-10.6c0-4,0.7-7.5,2.1-10.6c1.4-3.1,3.3-5.7,5.8-7.8
				c2.5-2.1,5.4-3.7,8.8-4.8c3.4-1.1,7.1-1.6,11.1-1.6C895.8,801.3,899.5,801.8,902.9,802.9z M877.3,812.5
				c-3.4,3.3-5.1,7.8-5.1,13.6s1.7,10.3,5.1,13.6c3.4,3.3,8.2,4.9,14.5,4.9c6.3,0,11.1-1.6,14.5-4.9c3.4-3.3,5.1-7.8,5.1-13.6
				s-1.7-10.3-5.1-13.6c-3.4-3.3-8.2-4.9-14.5-4.9C885.5,807.6,880.7,809.2,877.3,812.5z"/>
		</g>
	</g>
	<path id="XMLID_00000171701542772505195590000011565998730723050658_" class="st2" d="M460.9,453.9c2.9-0.5,5.2-1.5,6.7-3.2
		c1.5-1.6,3.6-5.1,6.1-10.6l49.1-113.9c1.3-2.7,1.9-4.6,1.9-5.6c0-1.8-1.8-3.2-5.3-4.1v-3.4h35.8v3.4c-3.5,1.1-5.3,2.6-5.3,4.4
		c0,0.8,0.6,2.5,1.9,5.3l51.6,109.7c3.8,8.1,6.3,12.8,7.5,14.2c1.2,1.4,3.9,2.6,8,3.6v3.4H584v-3.4c4.2-0.6,6.3-2.1,6.3-4.6
		c0-1.1-0.8-3.3-2.4-6.5l-9.5-20.3l-8.9-19.3h0.1l-8.2-17.5l-0.2-0.3l-24.8-53.3l-47.5,112.2c-1.2,2.6-1.8,4.4-1.8,5.5
		c0,2.1,2.1,3.5,6.4,4.2v3.4h-32.8V453.9z"/>
</g>
</svg>
