<?xml version="1.0" encoding="utf-8"?>
<!-- Generator: Adobe Illustrator 26.2.1, SVG Export Plug-In . SVG Version: 6.00 Build 0)  -->
<svg version="1.1" id="Capa_1" xmlns="http://www.w3.org/2000/svg" xmlns:xlink="http://www.w3.org/1999/xlink" x="0px" y="0px"
	 viewBox="0 0 1080 1080" style="enable-background:new 0 0 1080 1080;" xml:space="preserve">
<style type="text/css">
	.st0{fill:#3C3C3B;}
	.st1{fill:url(#XMLID_00000174576284660964421120000008217779264005632142_);}
	.st2{fill:url(#XMLID_00000128478706448777910680000006606158136527638949_);}
	.st3{fill:url(#XMLID_00000123418472976816195540000008111022308337001643_);}
	.st4{fill:url(#XMLID_00000037674256475868895170000015350879757771966127_);}
</style>
<g>
	<g>
		<path class="st0" d="M291.3,800.1c-0.3-0.4-0.9-0.6-1.7-0.6v-1.1h30.6c6,0,10.3,1.1,12.9,3.4c2.6,2.2,3.9,5.4,3.9,9.5
			c0,4.6-1.3,8.1-3.9,10.6c-2.6,2.5-6.8,3.7-12.7,3.7h-21v17.5c0,0.7,0.2,1.2,0.5,1.6c0.3,0.4,0.9,0.6,1.7,0.6v1.1h-12v-1.1
			c0.9,0,1.4-0.2,1.7-0.6c0.3-0.4,0.5-0.9,0.5-1.6v-41.4C291.8,801,291.6,800.5,291.3,800.1z M320,819.4c3.7,0,6.3-0.7,7.8-2.1
			c1.5-1.4,2.3-3.3,2.3-5.7c0-2.4-0.7-4.1-2-5.2c-1.4-1.1-4.1-1.7-8.1-1.7h-20.6v14.8H320z"/>
		<path class="st0" d="M370.3,840.9c-0.2,0.5-0.5,1.2-0.8,1.8c-0.3,0.7-0.5,1.2-0.5,1.5c0,0.7,0.5,1,1.5,1v1.1h-11.2v-1.1
			c0.4,0,0.7,0,1-0.1c0.3-0.1,0.5-0.2,0.8-0.5c0.2-0.3,0.5-0.7,0.8-1.3c0.3-0.6,0.7-1.4,1.2-2.3l16.5-36.8c0.5-1,0.8-1.8,1.1-2.3
			c0.2-0.5,0.4-0.9,0.4-1.2c0-0.7-0.5-1.1-1.6-1.1v-1.1h13.3v1.1c-1,0-1.5,0.4-1.5,1.1c0,0.4,0.2,0.8,0.5,1.4
			c0.3,0.6,0.7,1.4,1.2,2.4l17.5,36.3c0.5,1.1,1,1.9,1.3,2.6c0.3,0.6,0.6,1.1,0.9,1.4c0.3,0.3,0.6,0.5,0.9,0.5
			c0.3,0.1,0.7,0.1,1.3,0.1v1.1H402v-1.1c0.7,0,1.2-0.1,1.5-0.3c0.2-0.2,0.4-0.5,0.4-1c0-0.3-0.1-0.6-0.2-1c-0.2-0.3-0.5-1-1-2.1
			l-3.5-7.3h-25.8L370.3,840.9z M396.1,827.6l-10.3-21.5l-9.5,21.5H396.1z"/>
		<path class="st0" d="M456.3,799.5c-0.9,0-1.4,0.2-1.7,0.6c-0.3,0.4-0.5,1.1-0.5,1.9v38.3h30.6c2.1,0,3.2-0.9,3.2-2.7h1.1v10.5
			h-1.1c0-1.2-1.1-1.7-3.2-1.7h-40.5v-1.1c0.9,0,1.4-0.2,1.7-0.6c0.3-0.4,0.5-0.9,0.5-1.6v-41.4c0-0.7-0.2-1.2-0.5-1.6
			c-0.3-0.4-0.9-0.6-1.7-0.6v-1.1h12V799.5z"/>
		<path class="st0" d="M518.5,845.2c1,0,1.6-0.2,1.9-0.6c0.3-0.4,0.5-0.9,0.5-1.6v-41.4c0-0.7-0.2-1.2-0.5-1.6
			c-0.3-0.4-1-0.6-2.1-0.6v-1.1h15.4v1.1c-1.4,0-2.1,0.4-2.1,1.2c0,0.4,0.1,0.7,0.4,1l14.9,29.2l15.4-29.2c0.1-0.2,0.1-0.4,0.2-0.5
			c0.1-0.2,0.1-0.4,0.1-0.5c0-0.3-0.2-0.6-0.5-0.8c-0.3-0.2-0.9-0.3-1.8-0.3v-1.1h16.3v1.1c-1,0-1.7,0.2-2.1,0.6
			c-0.3,0.4-0.5,0.9-0.5,1.6v41.4c0,0.7,0.2,1.2,0.5,1.6c0.3,0.4,1,0.6,2.1,0.6v1.1h-12.8v-1.1c1,0,1.7-0.2,2-0.6
			c0.3-0.4,0.5-0.9,0.5-1.6v-36l-0.3-0.2l-19.4,38.5l-19.4-38.5l-0.1,0.2v36c-0.1,0.7,0.1,1.2,0.4,1.6c0.3,0.4,0.9,0.6,1.7,0.6v1.1
			h-10.8V845.2z"/>
		<path class="st0" d="M612.8,845.2c0.8,0,1.4-0.2,1.7-0.6c0.3-0.4,0.5-0.9,0.5-1.6v-41.4c0-0.7-0.2-1.2-0.5-1.6
			c-0.3-0.4-0.9-0.6-1.7-0.6v-1.1h12v1.1c-0.9,0-1.4,0.2-1.7,0.6c-0.3,0.4-0.5,0.9-0.5,1.6v41.4c0,0.7,0.2,1.2,0.5,1.6
			c0.3,0.4,0.9,0.6,1.7,0.6v1.1h-12V845.2z"/>
		<path class="st0" d="M672,844.6c0.3,0.4,0.9,0.6,1.7,0.6v1.1h-12v-1.1c0.8,0,1.4-0.2,1.7-0.6c0.3-0.4,0.5-0.9,0.5-1.6v-41.4
			c0-0.7-0.2-1.2-0.5-1.6c-0.3-0.4-0.9-0.6-1.7-0.6v-1.1h30.5c6,0,10.3,1.1,12.9,3.4c2.6,2.3,3.9,5.6,3.9,9.9c0,3.8-1,6.9-3,9.1
			c-2,2.2-5.3,3.7-9.8,4.3l11.5,17.8c0.7,1,1.2,1.6,1.6,1.9c0.4,0.3,1,0.5,2,0.5v1.1h-13.1v-1.1c0.8,0,1.3-0.1,1.5-0.2
			c0.2-0.1,0.3-0.3,0.3-0.6c0-0.4-0.2-0.7-0.5-1l-11.2-17.9h-16.8v17.5C671.6,843.7,671.7,844.3,672,844.6z M691.5,819.4
			c3.7,0,6.3-0.7,7.8-2.1c1.5-1.4,2.3-3.3,2.3-5.7c0-1.2-0.2-2.2-0.5-3.1c-0.3-0.8-0.9-1.6-1.6-2.1c-0.8-0.6-1.9-1-3.2-1.3
			c-1.4-0.3-3.1-0.4-5.2-0.4h-19.5v14.8H691.5z"/>
		<path class="st0" d="M749.9,840.9c-0.2,0.5-0.5,1.2-0.8,1.8c-0.3,0.7-0.5,1.2-0.5,1.5c0,0.7,0.5,1,1.5,1v1.1H739v-1.1
			c0.4,0,0.7,0,1-0.1c0.3-0.1,0.5-0.2,0.8-0.5c0.2-0.3,0.5-0.7,0.8-1.3c0.3-0.6,0.7-1.4,1.2-2.3l16.5-36.8c0.5-1,0.8-1.8,1.1-2.3
			c0.2-0.5,0.4-0.9,0.4-1.2c0-0.7-0.5-1.1-1.6-1.1v-1.1h13.3v1.1c-1,0-1.5,0.4-1.5,1.1c0,0.4,0.2,0.8,0.5,1.4
			c0.3,0.6,0.7,1.4,1.2,2.4l17.5,36.3c0.5,1.1,1,1.9,1.3,2.6c0.3,0.6,0.6,1.1,0.9,1.4c0.3,0.3,0.6,0.5,0.9,0.5
			c0.3,0.1,0.7,0.1,1.3,0.1v1.1h-12.7v-1.1c0.7,0,1.2-0.1,1.5-0.3c0.2-0.2,0.4-0.5,0.4-1c0-0.3-0.1-0.6-0.2-1c-0.2-0.3-0.5-1-1-2.1
			l-3.5-7.3H753L749.9,840.9z M775.7,827.6l-10.3-21.5l-9.5,21.5H775.7z"/>
	</g>
	<g id="XMLID_408_">
		<g id="XMLID_8_">
			
				<linearGradient id="XMLID_00000142886488684351110570000003016978040544454290_" gradientUnits="userSpaceOnUse" x1="573.9897" y1="628.9012" x2="573.9897" y2="255.4822">
				<stop  offset="0" style="stop-color:#84542D"/>
				<stop  offset="6.110269e-02" style="stop-color:#8C5C33"/>
				<stop  offset="0.297" style="stop-color:#A77945"/>
				<stop  offset="0.5332" style="stop-color:#BB8D52"/>
				<stop  offset="0.7681" style="stop-color:#C6995A"/>
				<stop  offset="1" style="stop-color:#CA9D5D"/>
			</linearGradient>
			<path id="XMLID_457_" style="fill:url(#XMLID_00000142886488684351110570000003016978040544454290_);" d="M643.5,367.7
				c0-59.6-47.2-108-105.5-108c-19.7,0-38,5.6-53.7,15.2c18-25.4,47.2-42.1,80.3-42.1c54.7,0,99.1,45.3,99.1,101.1
				c0,26-9.7,49.7-25.5,67.6C641.6,390.9,643.5,379.5,643.5,367.7z"/>
			
				<linearGradient id="XMLID_00000145053438731933392610000018039935788040482207_" gradientUnits="userSpaceOnUse" x1="511.8177" y1="628.9012" x2="511.8177" y2="255.4822">
				<stop  offset="0" style="stop-color:#84542D"/>
				<stop  offset="6.110269e-02" style="stop-color:#8C5C33"/>
				<stop  offset="0.297" style="stop-color:#A77945"/>
				<stop  offset="0.5332" style="stop-color:#BB8D52"/>
				<stop  offset="0.7681" style="stop-color:#C6995A"/>
				<stop  offset="1" style="stop-color:#CA9D5D"/>
			</linearGradient>
			<path id="XMLID_456_" style="fill:url(#XMLID_00000145053438731933392610000018039935788040482207_);" d="M575.8,361.2
				c-54.4-29.2-121.6-10.1-150,42.7c-6.3,11.8-10,24.2-11.6,36.7c-10-26.6-9.2-56.8,5.1-83.4c26.7-49.7,90-67.7,141.3-40.1
				c31.8,17.1,51.5,47.7,55.6,80.3C606.2,382.8,592.6,370.2,575.8,361.2z"/>
			
				<linearGradient id="XMLID_00000062905609769791334680000010275178246890433433_" gradientUnits="userSpaceOnUse" x1="529.5359" y1="628.9012" x2="529.5359" y2="255.4822">
				<stop  offset="0" style="stop-color:#84542D"/>
				<stop  offset="6.110269e-02" style="stop-color:#8C5C33"/>
				<stop  offset="0.297" style="stop-color:#A77945"/>
				<stop  offset="0.5332" style="stop-color:#BB8D52"/>
				<stop  offset="0.7681" style="stop-color:#C6995A"/>
				<stop  offset="1" style="stop-color:#CA9D5D"/>
			</linearGradient>
			<path id="XMLID_455_" style="fill:url(#XMLID_00000062905609769791334680000010275178246890433433_);" d="M505.3,491.4
				c15.1-20.3,38.7-31,63.5-31.4c-18.9,11.3-34.8,29.3-43.8,52.4c-16.1,41-5.6,85.2,22.9,110.2c-6.5-2.9-12.8-6.5-18.8-10.9
				C488.8,581.8,478.1,528,505.3,491.4z"/>
			
				<linearGradient id="XMLID_00000157310488239749177440000005996077319839537052_" gradientUnits="userSpaceOnUse" x1="491.1821" y1="628.9012" x2="491.1821" y2="255.4822">
				<stop  offset="0" style="stop-color:#84542D"/>
				<stop  offset="6.110269e-02" style="stop-color:#8C5C33"/>
				<stop  offset="0.297" style="stop-color:#A77945"/>
				<stop  offset="0.5332" style="stop-color:#BB8D52"/>
				<stop  offset="0.7681" style="stop-color:#C6995A"/>
				<stop  offset="1" style="stop-color:#CA9D5D"/>
			</linearGradient>
			<path id="XMLID_454_" style="fill:url(#XMLID_00000157310488239749177440000005996077319839537052_);" d="M476.7,405.6
				c25.7-13.8,54.7-14.9,79.3-5.3c-13.7,2.9-27,8.3-39.2,16.4c-48.3,31.9-64.8,94.7-42.2,148.7c-15.7-7.8-29-20.2-37.8-36.6
				C413.3,485.3,431.2,430.1,476.7,405.6z"/>
		</g>
		<g id="XMLID_5_">
			<path id="XMLID_534_" class="st0" d="M327,701.9v25.5c0,1.4,0.2,2.4,0.7,3c0.4,0.6,1.3,1.1,2.6,1.4v1.6h-14.7v-1.6
				c1.3-0.3,2.2-0.8,2.6-1.4c0.4-0.6,0.7-1.6,0.7-3v-58.1c0-1.4-0.2-2.5-0.7-3.1c-0.4-0.6-1.3-1.1-2.6-1.4v-1.6h38.5
				c5.3,0,9.5,0.3,12.5,0.9c3.1,0.6,5.7,1.6,8,3c2.3,1.4,4.2,3.4,5.7,5.9c1.6,2.8,2.5,6.1,2.5,9.6c0,5.4-1.8,9.7-5.3,13.1
				c-3.6,3.4-8.4,5.3-14.6,5.8l17.8,27.7c1.1,1.7,2.6,2.6,4.6,2.6v1.6H369v-1.6c1.7-0.3,2.5-0.8,2.5-1.4c0-0.3-0.6-1.5-1.8-3.3
				l-16-25.2H327z M327,695.2h28.4c3.9,0,6.8-0.2,8.8-0.5c2-0.3,3.7-0.9,5.2-1.8c3.5-2.1,5.3-5.5,5.3-10.3c0-4.9-1.8-8.3-5.5-10.4
				c-1.6-0.9-3.4-1.5-5.4-1.8c-2-0.3-5-0.5-9.2-0.5H327V695.2z"/>
			<path id="XMLID_7_" class="st0" d="M614.5,727.4v-58.1c0-1.4-0.2-2.5-0.7-3.1c-0.4-0.6-1.3-1.1-2.6-1.4v-1.6h14.7v1.6
				c-1.3,0.3-2.2,0.8-2.6,1.4c-0.4,0.6-0.7,1.6-0.7,3v58.1c0,1.4,0.2,2.5,0.6,3c0.4,0.6,1.3,1,2.6,1.4v1.6h-14.7v-1.6
				c1.3-0.3,2.2-0.8,2.6-1.4C614.3,729.8,614.5,728.8,614.5,727.4"/>
			<path id="XMLID_92_" class="st0" d="M767.1,663.2v1.4l-48.2,62.1h42.5c1.4,0,2.5-0.2,3.1-0.7c0.6-0.4,1.1-1.3,1.4-2.6h1.6v13.3
				h-1.6c-0.3-1.3-0.8-2.2-1.4-2.6c-0.6-0.4-1.6-0.7-3.1-0.7h-56.4V732l48.4-62h-41.8c-1.4,0-2.5,0.2-3.1,0.7
				c-0.6,0.5-1.1,1.3-1.4,2.6h-1.6v-13.3h1.6c0.3,1.3,0.8,2.2,1.4,2.6c0.6,0.4,1.6,0.7,3.1,0.7H767.1z"/>
			<path id="XMLID_6_" class="st0" d="M236,730.1c-0.6-0.7-1.8-3-3.6-6.9l-24.6-53.5c-0.6-1.3-0.9-2.2-0.9-2.6
				c0-0.9,0.8-1.6,2.5-2.2v-1.6h-17.1v1.6c1.7,0.4,2.5,1.1,2.5,2c0,0.5-0.3,1.4-0.9,2.7l-25.7,55.5c-1.2,2.6-2.2,4.4-2.9,5.1
				c-0.7,0.8-1.8,1.3-3.2,1.5v1.6h15.7v-1.6c-2-0.3-3-1-3-2.1c0-0.5,0.3-1.4,0.9-2.7l2.6-5.6l1.4-3.1l5.1-11.3h0l15.8-34.7l11.8,26
				l0.1,0.2l3.9,8.6h0l4.2,9.4l4.5,9.9c0.8,1.6,1.1,2.6,1.1,3.2c0,1.2-1,2-3,2.3v1.6h16.7v-1.6C237.8,731.3,236.6,730.7,236,730.1"
				/>
			<path id="XMLID_94_" class="st0" d="M528.8,730.1c-0.6-0.7-1.8-3-3.6-6.9l-24.6-53.5c-0.6-1.3-0.9-2.2-0.9-2.6
				c0-0.9,0.8-1.6,2.5-2.2v-1.6H485v1.6c1.7,0.4,2.5,1.1,2.5,2c0,0.5-0.3,1.4-0.9,2.7l-25.7,55.5c-1.2,2.6-2.2,4.4-2.9,5.1
				c-0.7,0.8-1.8,1.3-3.2,1.5v1.6h15.7v-1.6c-2-0.3-3-1-3-2.1c0-0.5,0.3-1.4,0.9-2.7l2.6-5.6l1.4-3.1l5.1-11.3h0l15.8-34.7l11.8,26
				l0.1,0.2l3.9,8.6h0l4.2,9.4l4.5,9.9c0.8,1.6,1.1,2.6,1.1,3.2c0,1.2-1,2-3,2.3v1.6h16.7v-1.6C530.6,731.3,529.3,730.7,528.8,730.1
				"/>
			<path id="XMLID_123_" class="st0" d="M914,730.1c-0.6-0.7-1.8-3-3.6-6.9l-24.6-53.5c-0.6-1.3-0.9-2.2-0.9-2.6
				c0-0.9,0.8-1.6,2.5-2.2v-1.6h-17.1v1.6c1.7,0.4,2.5,1.1,2.5,2c0,0.5-0.3,1.4-0.9,2.7l-25.7,55.5c-1.2,2.6-2.2,4.4-2.9,5.1
				c-0.7,0.8-1.8,1.3-3.2,1.5v1.6h15.7v-1.6c-2-0.3-3-1-3-2.1c0-0.5,0.3-1.4,0.9-2.7l2.6-5.6l1.4-3.1l5.1-11.3h0l15.8-34.7l11.8,26
				l0.1,0.2l3.9,8.6h0l4.2,9.4l4.5,9.9c0.8,1.6,1.1,2.6,1.1,3.2c0,1.2-1,2-3,2.3v1.6h16.7v-1.6C915.8,731.3,914.6,730.7,914,730.1"
				/>
		</g>
	</g>
</g>
</svg>
