<?xml version="1.0" encoding="utf-8"?>
<!-- Generator: Adobe Illustrator 16.0.3, SVG Export Plug-In . SVG Version: 6.00 Build 0)  -->
<!DOCTYPE svg PUBLIC "-//W3C//DTD SVG 1.1//EN" "http://www.w3.org/Graphics/SVG/1.1/DTD/svg11.dtd">
<svg version="1.1" id="Capa_1" xmlns="http://www.w3.org/2000/svg" xmlns:xlink="http://www.w3.org/1999/xlink" x="0px" y="0px"
	 width="90px" height="40px" viewBox="0 0 246 234" enable-background="new 0 0 246 234" xml:space="preserve">
<g id="Capa_2">

		<linearGradient id="SVGID_1_" gradientUnits="userSpaceOnUse" x1="-152.853" y1="140.2402" x2="-10.9517" y2="140.2402" gradientTransform="matrix(0.8306 -0.8018 -0.7953 -0.824 300.2977 166.9389)">
		<stop  offset="0" style="stop-color:#8B5222"/>
		<stop  offset="0.2406" style="stop-color:#A16B33"/>
		<stop  offset="0.4951" style="stop-color:#B37F44"/>
		<stop  offset="0.7491" style="stop-color:#BE8D4F"/>
		<stop  offset="1" style="stop-color:#C29153"/>
	</linearGradient>
	<polygon fill="url(#SVGID_1_)" points="236.013,118.633 118.23,232.389 5.46,115.457 123.244,1.703 	"/>
	<path id="XMLID_21_" fill="#FFFFFF" d="M68.676,148.294c1.904-0.28,3.398-0.961,4.346-2.039c0.948-1.077,2.294-3.367,3.907-6.865
		l31.694-73.655c0.808-1.746,1.208-2.957,1.204-3.625c-0.008-1.205-1.103-2.004-3.425-2.656l-0.014-2.145l23.443-0.15l0.014,2.145
		c-2.313,0.682-3.396,1.761-3.39,2.834c0.004,0.536,0.417,1.605,1.25,3.344l34.251,70.554c2.491,5.209,4.145,8.283,4.965,9.214
		c0.826,0.936,2.603,1.725,5.193,2.243l0.014,2.146l-22.896,0.147l-0.014-2.146c2.723-0.418,4.081-1.362,4.07-2.972
		c-0.005-0.673-0.559-2.141-1.524-4.145l-6.354-13.098L139.469,115l0,0l-5.391-11.226l-0.14-0.265L117.5,69.165l-30.746,72.579
		c-0.804,1.748-1.207,2.823-1.203,3.492c0.008,1.339,1.377,2.267,4.241,2.654l0.014,2.145l-21.533,0.138l-0.012-1.875
		L68.676,148.294L68.676,148.294z"/>
</g>
<g id="Capa_1_1_">
</g>
</svg>
