<?xml version="1.0" encoding="utf-8"?>
<!-- Generator: Adobe Illustrator 26.2.1, SVG Export Plug-In . SVG Version: 6.00 Build 0)  -->
<svg version="1.1" id="Capa_1" xmlns="http://www.w3.org/2000/svg" xmlns:xlink="http://www.w3.org/1999/xlink" x="0px" y="0px"
	 width="100px" height="90px" viewBox="0 0 1080 1080" style="enable-background:new 0 0 1080 1080;" xml:space="preserve">
<style type="text/css">
	.st0{fill:none;}
	.st1{fill:url(#SVGID_1_);}
	.st2{fill:url(#SVGID_00000173160524897141826290000003990416875996746926_);}
	.st3{fill:url(#SVGID_00000165219227115741868440000016230429100671982260_);}
	.st4{fill:url(#SVGID_00000056397463263899429520000014433933336582070408_);}
	.st5{fill:#3C3C3B;}
	.st6{fill:url(#SVGID_00000029030937160120424420000001886608746750494339_);}
</style>
<g>
	<polygon class="st0" points="566.6,669.8 550.7,704.7 582.5,704.7 	"/>
	<polygon class="st0" points="278.7,704.7 310.5,704.7 294.6,669.8 	"/>
	<polygon class="st0" points="655.4,821 674.7,821 664.6,800 	"/>
	<polygon class="st0" points="910.1,704.7 941.9,704.7 926,669.8 	"/>
	<linearGradient id="SVGID_1_" gradientUnits="userSpaceOnUse" x1="417.7367" y1="604.1189" x2="540.4033" y2="204.1189">
		<stop  offset="0" style="stop-color:#84542D"/>
		<stop  offset="6.110269e-02" style="stop-color:#8C5C33"/>
		<stop  offset="0.297" style="stop-color:#A77945"/>
		<stop  offset="0.5332" style="stop-color:#BB8D52"/>
		<stop  offset="0.7681" style="stop-color:#C6995A"/>
		<stop  offset="1" style="stop-color:#CA9D5D"/>
	</linearGradient>
	<path class="st1" d="M442.3,371.8c0-58.4,46.2-105.7,103.2-105.7c19.2,0,37.2,5.5,52.6,14.9c-17.6-24.9-46.2-41.2-78.6-41.2
		c-53.6,0-97,44.3-97,99c0,25.5,9.5,48.6,25,66.2C444.1,394.5,442.3,383.4,442.3,371.8z"/>

		<linearGradient id="SVGID_00000109714613678222847950000016206669235399182256_" gradientUnits="userSpaceOnUse" x1="503.3059" y1="630.3601" x2="625.9725" y2="230.3601">
		<stop  offset="0" style="stop-color:#84542D"/>
		<stop  offset="6.110269e-02" style="stop-color:#8C5C33"/>
		<stop  offset="0.297" style="stop-color:#A77945"/>
		<stop  offset="0.5332" style="stop-color:#BB8D52"/>
		<stop  offset="0.7681" style="stop-color:#C6995A"/>
		<stop  offset="1" style="stop-color:#CA9D5D"/>
	</linearGradient>
	<path style="fill:url(#SVGID_00000109714613678222847950000016206669235399182256_);" d="M655.3,407.2c6.2,11.5,9.8,23.7,11.4,35.9
		c9.8-26,9-55.6-5-81.6c-26.1-48.7-88.1-66.2-138.3-39.2C492.3,339.1,473,369,469,401c9.8-14.3,23.1-26.7,39.6-35.5
		C561.8,336.8,627.5,355.5,655.3,407.2z"/>

		<linearGradient id="SVGID_00000146463370541316039050000010521238916382909878_" gradientUnits="userSpaceOnUse" x1="514.6931" y1="633.8522" x2="637.3598" y2="233.8522">
		<stop  offset="0" style="stop-color:#84542D"/>
		<stop  offset="6.110269e-02" style="stop-color:#8C5C33"/>
		<stop  offset="0.297" style="stop-color:#A77945"/>
		<stop  offset="0.5332" style="stop-color:#BB8D52"/>
		<stop  offset="0.7681" style="stop-color:#C6995A"/>
		<stop  offset="1" style="stop-color:#CA9D5D"/>
	</linearGradient>
	<path style="fill:url(#SVGID_00000146463370541316039050000010521238916382909878_);" d="M535.8,621.3c6.4-2.8,12.6-6.3,18.4-10.7
		c39.4-29.2,49.9-82,23.3-117.8c-14.8-19.9-37.8-30.3-62.2-30.7c18.5,11,34,28.7,42.9,51.3C574,553.6,563.7,596.8,535.8,621.3z"/>

		<linearGradient id="SVGID_00000110448861616483676100000006991771889899212952_" gradientUnits="userSpaceOnUse" x1="534.0508" y1="639.7886" x2="656.7174" y2="239.7886">
		<stop  offset="0" style="stop-color:#84542D"/>
		<stop  offset="6.110269e-02" style="stop-color:#8C5C33"/>
		<stop  offset="0.297" style="stop-color:#A77945"/>
		<stop  offset="0.5332" style="stop-color:#BB8D52"/>
		<stop  offset="0.7681" style="stop-color:#C6995A"/>
		<stop  offset="1" style="stop-color:#CA9D5D"/>
	</linearGradient>
	<path style="fill:url(#SVGID_00000110448861616483676100000006991771889899212952_);" d="M605.6,408.9
		c-25.1-13.5-53.5-14.6-77.6-5.2c13.4,2.8,26.4,8.1,38.4,16.1c47.3,31.2,63.4,92.7,41.3,145.6c15.3-7.7,28.4-19.8,37-35.8
		C667.6,486.9,650.1,432.9,605.6,408.9z"/>
	<path class="st5" d="M182,710.4c0.6,1.1,0.9,1.9,0.9,2.4c0,1-1.5,2.6-4.6,4.9c-6.7,5.1-14.5,7.7-23.3,7.7c-9,0-16.6-2.8-22.7-8.3
		c-6.4-5.7-9.5-12.8-9.5-21.5c0-8.7,3.1-15.7,9.2-21.2c6-5.3,13.8-8,23.5-8c7.2,0,13.8,1.5,19.9,4.5c4.4,2.1,6.6,3.9,6.6,5.3
		c0,0.6-0.2,1.4-0.5,2.4l1.4,0.8l7.7-12.8l-1.4-0.8c-1.2,1.3-2,2-2.4,2c-0.2,0-0.7-0.2-1.3-0.5c-9.5-5.4-19.2-8-29.4-8
		c-15.3,0-26.8,4.9-34.4,14.6c-4.9,6.2-7.4,13.6-7.4,22.1c0,10.8,3.9,19.6,11.8,26.6c7.5,6.6,17.1,9.9,29,9.9c6.2,0,11.8-0.9,17-2.6
		c2.5-0.8,4.8-1.8,6.9-3c2.1-1.2,4.7-3,7.9-5.4c0.9-0.7,1.6-1.1,2-1.1c0.6,0,1.4,0.4,2.4,1.3l1.3-1l-9.2-11.2L182,710.4z"/>
	<path class="st5" d="M330.4,727.8c-0.6-0.7-1.8-3-3.6-7L302,667c-0.6-1.3-0.9-2.2-0.9-2.6c0-0.9,0.8-1.6,2.5-2.2v-1.7h-17.2v1.7
		c1.7,0.5,2.5,1.1,2.5,2c0,0.5-0.3,1.4-0.9,2.7l-25.9,55.9c-1.2,2.7-2.2,4.4-2.9,5.2c-0.7,0.8-1.8,1.3-3.2,1.6v1.7h15.8v-1.7
		c-2-0.3-3.1-1-3.1-2.1c0-0.5,0.3-1.4,0.9-2.7l6.2-13.4h37.8l5.8,12.7c0.8,1.6,1.1,2.7,1.1,3.2c0,1.2-1,2-3,2.3v1.7h16.8v-1.7
		C332.3,729.1,331,728.5,330.4,727.8z M278.7,704.7l15.9-34.9l15.9,34.9H278.7z"/>
	<path class="st5" d="M459.7,731.9c0.6,0.4,1.1,1.3,1.4,2.6h1.7v-13.4h-1.7c-0.3,1.3-0.8,2.2-1.4,2.6c-0.6,0.4-1.6,0.7-3.1,0.7
		h-45.2v-57.8c0-1.4,0.2-2.5,0.7-3.1c0.4-0.6,1.3-1,2.6-1.4v-1.7H400v1.7c1.3,0.3,2.2,0.8,2.6,1.4c0.4,0.6,0.7,1.6,0.7,3.1v58.5
		c0,1.4-0.2,2.5-0.6,3.1c-0.4,0.6-1.3,1.1-2.7,1.4v1.7h56.6C458,731.2,459.1,731.5,459.7,731.9z"/>
	<path class="st5" d="M547.7,711.4h37.8l5.8,12.7c0.8,1.6,1.1,2.7,1.1,3.2c0,1.2-1,2-3,2.3v1.7h16.8v-1.7c-2-0.5-3.2-1.1-3.8-1.8
		c-0.6-0.7-1.8-3-3.6-7L573.9,667c-0.6-1.3-0.9-2.2-0.9-2.6c0-0.9,0.8-1.6,2.5-2.2v-1.7h-17.2v1.7c1.7,0.5,2.5,1.1,2.5,2
		c0,0.5-0.3,1.4-0.9,2.7L534,722.9c-1.2,2.7-2.2,4.4-2.9,5.2c-0.7,0.8-1.8,1.3-3.2,1.6v1.7h15.8v-1.7c-2-0.3-3.1-1-3.1-2.1
		c0-0.5,0.3-1.4,0.9-2.7L547.7,711.4z M566.6,669.8l15.9,34.9h-31.8L566.6,669.8z"/>
	<path class="st5" d="M717.1,690.8c-0.6,0.5-1.6,0.7-3.1,0.7h-30.7v-24.1h46c1.4,0,2.5,0.2,3.1,0.7c0.6,0.4,1.1,1.3,1.4,2.7h1.7
		v-13.4h-1.7c-0.3,1.3-0.8,2.2-1.4,2.7s-1.6,0.7-3.1,0.7h-57.5v1.7c1.3,0.3,2.2,0.8,2.6,1.4c0.4,0.6,0.7,1.6,0.7,3.1v58.5
		c0,1.4-0.2,2.5-0.7,3.1c-0.5,0.6-1.3,1.1-2.6,1.4v1.7h14.8v-1.7c-1.3-0.3-2.2-0.8-2.7-1.4c-0.4-0.6-0.6-1.6-0.6-3.1v-27H714
		c1.5,0,2.5,0.2,3.1,0.7c0.6,0.5,1.1,1.3,1.4,2.6h1.7v-13.4h-1.7C718.2,689.4,717.7,690.3,717.1,690.8z"/>
	<path class="st5" d="M805.9,662.2c1.3,0.3,2.2,0.8,2.6,1.4c0.4,0.6,0.7,1.6,0.7,3.1v58.5c0,1.4-0.2,2.5-0.6,3.1
		c-0.4,0.6-1.3,1.1-2.7,1.4v1.7h14.8v-1.7c-1.3-0.3-2.2-0.8-2.7-1.4c-0.4-0.6-0.6-1.6-0.6-3.1v-58.5c0-1.4,0.2-2.5,0.7-3.1
		c0.5-0.6,1.3-1,2.6-1.4v-1.7h-14.8V662.2z"/>
	<path class="st5" d="M961.7,727.8c-0.6-0.7-1.8-3-3.6-7L933.3,667c-0.6-1.3-0.9-2.2-0.9-2.6c0-0.9,0.8-1.6,2.5-2.2v-1.7h-17.2v1.7
		c1.7,0.5,2.5,1.1,2.5,2c0,0.5-0.3,1.4-0.9,2.7l-25.9,55.9c-1.2,2.7-2.2,4.4-2.9,5.2c-0.7,0.8-1.8,1.3-3.2,1.6v1.7H903v-1.7
		c-2-0.3-3.1-1-3.1-2.1c0-0.5,0.3-1.4,0.9-2.7l6.2-13.4h37.8l5.8,12.7c0.8,1.6,1.1,2.7,1.1,3.2c0,1.2-1,2-3,2.3v1.7h16.8v-1.7
		C963.6,729.1,962.3,728.5,961.7,727.8z M910.1,704.7l15.9-34.9l15.9,34.9H910.1z"/>
	<path class="st5" d="M314.6,793.6c0.8,0,1.4,0.1,1.7,0.3c0.3,0.2,0.5,0.5,0.5,0.8c0,0.2,0,0.4-0.1,0.5c-0.1,0.2-0.2,0.4-0.2,0.5
		l-15.1,28.5l-14.5-28.5c-0.2-0.3-0.4-0.6-0.4-1c0-0.8,0.7-1.2,2-1.2v-1.1h-15.1v1.1c1,0,1.7,0.2,2,0.6c0.3,0.4,0.5,0.9,0.5,1.6
		v40.4c0,0.7-0.1,1.2-0.4,1.6c-0.3,0.4-0.9,0.6-1.9,0.6v1.1h10.6v-1.1c-0.8,0-1.4-0.2-1.7-0.6c-0.3-0.4-0.4-0.9-0.4-1.6V801l0.1-0.2
		l19,37.7l19-37.7l0.3,0.2v35.2c0,0.7-0.2,1.2-0.5,1.6c-0.3,0.4-1,0.6-2,0.6v1.1h12.5v-1.1c-1,0-1.7-0.2-2-0.6
		c-0.3-0.4-0.5-0.9-0.5-1.6v-40.4c0-0.7,0.2-1.2,0.5-1.6c0.3-0.4,1-0.6,2-0.6v-1.1h-15.9V793.6z"/>
	<path class="st5" d="M407.9,832.8c-0.6,0.4-1.5,0.7-2.8,0.7h-29.8v-15.1h18.3c1.2,0,2.1,0.2,2.7,0.5c0.5,0.4,0.8,1,0.8,1.9h1.1V810
		h-1.1c0,1-0.3,1.6-1,2c-0.7,0.4-1.6,0.5-2.6,0.5h-18.1v-14.1h27.8c1.4,0,2.3,0.2,2.8,0.7c0.5,0.4,0.7,1.1,0.7,1.8h1.1v-10.2h-1.1
		c0,0.7-0.2,1.1-0.6,1.4c-0.4,0.3-1.4,0.4-2.9,0.4h-37.3v1.1c0.8,0,1.4,0.2,1.7,0.6c0.3,0.4,0.4,0.9,0.4,1.6v40.4
		c0,0.7-0.1,1.2-0.4,1.6c-0.3,0.4-0.9,0.6-1.7,0.6v1.1h39.9c2.1,0,3.1,0.6,3.1,1.7h1.1v-10.6h-1.1
		C408.8,831.6,408.5,832.4,407.9,832.8z"/>
	<path class="st5" d="M481.6,835.3l-15.9-20.8l14-17.8c1-1.3,1.7-2.1,2.1-2.5c0.4-0.4,1.1-0.5,2-0.5v-1.1H471v1.1
		c1.1,0,1.6,0.3,1.6,1c0,0.3-0.4,1-1.3,2l-9.9,12.7l-9.4-12.7c-0.7-0.8-1.1-1.5-1.1-2c0-0.7,0.4-1,1.3-1v-1.1h-13.4v1.1
		c0.8,0,1.6,0.2,2.2,0.7s1.4,1.2,2.2,2.4l14,18.2l-15.9,20.5c-0.8,1.1-1.5,1.9-2,2.4c-0.5,0.4-1.3,0.7-2.4,0.7v1.1h12.6v-1.1
		c-1,0-1.4-0.2-1.4-0.6c0-0.6,0.3-1.2,1-1.9l12.3-15.7l11.9,15.7c0.7,0.8,1,1.4,1,1.8c0,0.3-0.1,0.5-0.4,0.6
		c-0.3,0.1-0.8,0.1-1.5,0.1v1.1h13.4v-1.1c-0.9,0-1.6-0.2-2-0.6C483.3,837.4,482.6,836.5,481.6,835.3z"/>
	<path class="st5" d="M515.4,793.6c0.8,0,1.4,0.2,1.7,0.6c0.3,0.4,0.4,0.9,0.4,1.6v40.4c0,0.7-0.1,1.2-0.4,1.6
		c-0.3,0.4-0.9,0.6-1.7,0.6v1.1h11.8v-1.1c-0.8,0-1.4-0.2-1.7-0.6c-0.3-0.4-0.4-0.9-0.4-1.6v-40.4c0-0.7,0.1-1.2,0.4-1.6
		c0.3-0.4,0.9-0.6,1.7-0.6v-1.1h-11.8V793.6z"/>
	<path class="st5" d="M603.9,824.3c0.3,0.3,0.4,0.7,0.4,1.2c0,0.6-0.4,1.4-1.3,2.3c-0.9,0.9-2.1,1.8-3.6,2.7
		c-1.5,0.9-3.2,1.6-5.1,2.3c-1.9,0.6-4,0.9-6.1,0.9c-2.7,0-5.4-0.4-8-1.3c-2.6-0.9-4.9-2.1-6.9-3.7c-2-1.6-3.6-3.5-4.9-5.7
		c-1.2-2.2-1.8-4.7-1.8-7.3c0-3.1,0.6-5.7,1.8-8c1.2-2.2,2.7-4,4.6-5.5c1.9-1.4,4-2.5,6.4-3.2c2.4-0.7,4.8-1,7.2-1
		c2.4,0,4.6,0.3,6.7,0.8c2.1,0.5,3.9,1.1,5.4,1.8c1.5,0.7,2.8,1.4,3.7,2.1c0.9,0.7,1.3,1.4,1.3,1.8c0,0.5-0.1,0.9-0.4,1.2l1.2,0.5
		l5.5-9.5l-1.1-0.7c-0.2,0.2-0.3,0.4-0.4,0.6c-0.1,0.1-0.4,0.2-0.9,0.2c-0.4,0-1.2-0.3-2.3-0.8c-1.1-0.5-2.5-1.1-4.2-1.6
		c-1.7-0.6-3.7-1.1-6.1-1.6c-2.3-0.5-5-0.8-7.9-0.8c-4.3,0-8.1,0.6-11.5,1.9c-3.4,1.2-6.3,2.9-8.7,5c-2.4,2.1-4.2,4.5-5.5,7.3
		c-1.3,2.7-1.9,5.6-1.9,8.6c0,3.6,0.7,7,2,10c1.4,3.1,3.3,5.7,5.7,7.9c2.5,2.2,5.4,3.9,8.9,5.1c3.4,1.2,7.2,1.8,11.4,1.8
		c3.7,0,6.9-0.4,9.5-1.1c2.6-0.7,4.8-1.6,6.5-2.5c1.7-0.9,3-1.8,3.9-2.6c0.9-0.8,1.5-1.2,1.8-1.2c0.5,0,1,0.2,1.3,0.6l1.2-0.8
		l-6.6-8.6L603.9,824.3z"/>
	<path class="st5" d="M690.8,837.7c-0.3-0.3-0.5-0.7-0.8-1.3c-0.3-0.6-0.7-1.4-1.2-2.5l-17.1-35.5c-0.5-1-0.9-1.8-1.2-2.4
		c-0.3-0.6-0.4-1-0.4-1.4c0-0.7,0.5-1.1,1.4-1.1v-1.1h-13v1.1c1.1,0,1.6,0.4,1.6,1.1c0,0.3-0.1,0.7-0.4,1.2
		c-0.2,0.5-0.6,1.3-1.1,2.3l-16.1,36c-0.5,1-0.9,1.7-1.2,2.3c-0.3,0.6-0.6,1-0.8,1.3c-0.2,0.3-0.5,0.5-0.8,0.5
		c-0.3,0.1-0.6,0.1-0.9,0.1v1.1h11v-1.1c-1,0-1.5-0.3-1.5-1c0-0.4,0.1-0.9,0.4-1.5c0.3-0.7,0.6-1.2,0.8-1.8l3-7.1h25.2l3.4,7.1
		c0.5,1.1,0.8,1.8,0.9,2.1c0.1,0.3,0.2,0.6,0.2,0.9c0,0.4-0.1,0.7-0.4,0.9c-0.2,0.2-0.7,0.3-1.4,0.3v1.1h12.4v-1.1
		c-0.5,0-1,0-1.2-0.1C691.3,838.2,691,838,690.8,837.7z M655.4,821l9.3-21l10.1,21H655.4z"/>
	<path class="st5" d="M761.3,833.5h-29.9v-37.4c0-0.8,0.1-1.5,0.4-1.9c0.3-0.4,0.9-0.6,1.7-0.6v-1.1h-11.8v1.1
		c0.8,0,1.4,0.2,1.7,0.6c0.3,0.4,0.4,0.9,0.4,1.6v40.4c0,0.7-0.1,1.2-0.4,1.6c-0.3,0.4-0.9,0.6-1.7,0.6v1.1h39.6
		c2.1,0,3.1,0.6,3.1,1.7h1.1v-10.2h-1.1C764.4,832.6,763.4,833.5,761.3,833.5z"/>
	<path class="st5" d="M794.5,793.6c0.8,0,1.4,0.2,1.7,0.6c0.3,0.4,0.4,0.9,0.4,1.6v40.4c0,0.7-0.1,1.2-0.4,1.6
		c-0.3,0.4-0.9,0.6-1.7,0.6v1.1h11.8v-1.1c-0.8,0-1.4-0.2-1.7-0.6c-0.3-0.4-0.4-0.9-0.4-1.6v-40.4c0-0.7,0.1-1.2,0.4-1.6
		c0.3-0.4,0.9-0.6,1.7-0.6v-1.1h-11.8V793.6z"/>

		<linearGradient id="SVGID_00000152971386430345590240000001046606686095988403_" gradientUnits="userSpaceOnUse" x1="416.2726" y1="603.6699" x2="538.9393" y2="203.6699">
		<stop  offset="0" style="stop-color:#84542D"/>
		<stop  offset="6.110269e-02" style="stop-color:#8C5C33"/>
		<stop  offset="0.297" style="stop-color:#A77945"/>
		<stop  offset="0.5332" style="stop-color:#BB8D52"/>
		<stop  offset="0.7681" style="stop-color:#C6995A"/>
		<stop  offset="1" style="stop-color:#CA9D5D"/>
	</linearGradient>
	<path style="fill:url(#SVGID_00000152971386430345590240000001046606686095988403_);" d="M488.5,518.9
		c-15.3-62-14.9-99.9-14.9-99.9s-38,0-45.4,0c-12.9,0-9.8,40.3-9.8,40.3c-4.7,10.5-7.7,18.6-7.7,18.6s2.8,2.9,3.8,3.5
		c0.9,0.5,4,1.1,4,1.1s-0.2,3.5-1.3,5.1c-0.8,1.2-3.4,5.1-3.4,5.1l5,3.2c-1.1,1.9-3.1,4.3-3.1,4.3c3.8,2.4,5.7,2.8,5.7,2.8
		c-1,13.3-1.1,14.4,1.6,16.8c2.6,2.3,6.7,1.1,7.7,1c4.1-0.5,15.8-5.2,16.5-5.4c3-0.7,3.6-0.4,3.6-0.4c10.3,27.1,7.5,46,7.5,46
		s9.9-0.2,24.4-17.6C490.6,534.1,488.5,518.9,488.5,518.9z M425,462.1c0,0,2.8-5.8,9.6-8.1c-1.1,1-1.8,2.5-1.8,4.1
		c0,2.2,1.2,4,3.1,5C432.8,463.2,429.2,463,425,462.1z M442.2,462.1c1-1,1.7-2.4,1.7-4c0-2.2-1.3-4.1-3.1-5c3.1,0.1,6.8,0.9,11,2.8
		C451.8,455.9,449.4,460.1,442.2,462.1z"/>
</g>
</svg>
