<?xml version="1.0" encoding="utf-8"?>
<!-- Generator: Adobe Illustrator 26.2.1, SVG Export Plug-In . SVG Version: 6.00 Build 0)  -->
<svg version="1.1" id="Capa_1" xmlns="http://www.w3.org/2000/svg" xmlns:xlink="http://www.w3.org/1999/xlink" x="0px" y="0px"
	 viewBox="0 0 1080 1080" style="enable-background:new 0 0 1080 1080;" xml:space="preserve">
<style type="text/css">
	.st0{fill:url(#XMLID_00000103236184235126992710000002301226351865517198_);}
	.st1{fill:#3C3C3B;}
	.st2{fill:#FFFFFF;}
</style>
<g>
	<g>
		
			<linearGradient id="XMLID_00000031922308282587377280000002286962779998792834_" gradientUnits="userSpaceOnUse" x1="542.1644" y1="591.5212" x2="537.6142" y2="220.6882">
			<stop  offset="0" style="stop-color:#84542D"/>
			<stop  offset="6.110269e-02" style="stop-color:#8C5C33"/>
			<stop  offset="0.297" style="stop-color:#A77945"/>
			<stop  offset="0.5332" style="stop-color:#BB8D52"/>
			<stop  offset="0.7681" style="stop-color:#C6995A"/>
			<stop  offset="1" style="stop-color:#CA9D5D"/>
		</linearGradient>
		<path id="XMLID_243_" style="fill:url(#XMLID_00000031922308282587377280000002286962779998792834_);" d="M461.7,454.8
			c2.9-0.5,5.1-1.5,6.7-3.1c1.5-1.6,3.5-5.1,6-10.4l48.6-112.7c1.3-2.7,1.9-4.6,1.9-5.5c0-1.8-1.7-3.2-5.2-4.1v-3.3H555v3.3
			c-3.5,1.1-5.2,2.6-5.2,4.4c0,0.8,0.6,2.5,1.9,5.2l51.1,108.6c3.8,8,6.3,12.7,7.5,14.1c1.2,1.4,3.8,2.6,7.9,3.6v3.3h-34.6v-3.3
			c4.1-0.6,6.2-2.1,6.2-4.6c0-1.1-0.8-3.3-2.3-6.5l-9.4-20.1l-8.8-19.1h0.1l-8.1-17.4l-0.2-0.3l-24.5-52.8l-47,111.1
			c-1.2,2.6-1.8,4.4-1.8,5.4c0,2.1,2.1,3.5,6.3,4.2v3.3h-32.5V454.8z M539.9,232L362.1,407.1l177.8,166.7l177.8-166.7L539.9,232z"/>
		<g id="XMLID_58_">
			<path id="XMLID_65_" class="st1" d="M326.7,703.3v25.5c0,1.4,0.2,2.4,0.7,3c0.4,0.6,1.3,1.1,2.6,1.4v1.6h-14.7v-1.6
				c1.3-0.3,2.2-0.8,2.6-1.4c0.4-0.6,0.7-1.6,0.7-3v-58.1c0-1.4-0.2-2.5-0.7-3.1c-0.4-0.6-1.3-1.1-2.6-1.4v-1.6h38.6
				c5.3,0,9.5,0.3,12.5,0.9c3.1,0.6,5.7,1.6,8,3c2.3,1.4,4.2,3.4,5.7,5.9c1.6,2.8,2.5,6.1,2.5,9.6c0,5.4-1.8,9.7-5.3,13.1
				c-3.6,3.4-8.4,5.3-14.7,5.8l17.9,27.8c1.1,1.7,2.6,2.6,4.6,2.6v1.6h-16.3v-1.6c1.7-0.3,2.5-0.8,2.5-1.4c0-0.3-0.6-1.5-1.8-3.3
				l-16-25.2H326.7z M326.7,696.6h28.5c3.9,0,6.8-0.2,8.8-0.5c2-0.3,3.7-0.9,5.2-1.8c3.5-2.1,5.3-5.5,5.3-10.4
				c0-4.9-1.8-8.3-5.5-10.4c-1.6-0.9-3.4-1.5-5.4-1.8c-2-0.3-5-0.5-9.2-0.5h-27.8V696.6z"/>
			<path id="XMLID_63_" class="st1" d="M614.6,728.8v-58.1c0-1.4-0.2-2.5-0.7-3.1c-0.4-0.6-1.3-1.1-2.6-1.4v-1.6h14.7v1.6
				c-1.3,0.3-2.2,0.8-2.6,1.4c-0.4,0.6-0.7,1.6-0.7,3v58.1c0,1.4,0.2,2.5,0.6,3c0.4,0.6,1.3,1,2.6,1.4v1.6h-14.7v-1.6
				c1.3-0.3,2.2-0.8,2.7-1.4C614.3,731.3,614.6,730.3,614.6,728.8"/>
			<path id="XMLID_62_" class="st1" d="M767.3,664.6v1.4L719,728.2h42.6c1.4,0,2.5-0.2,3.1-0.7c0.6-0.4,1.1-1.3,1.4-2.6h1.6v13.3
				H766c-0.3-1.3-0.8-2.2-1.4-2.6c-0.6-0.4-1.6-0.7-3.1-0.7h-56.5v-1.5l48.5-62.1h-41.8c-1.4,0-2.5,0.2-3.1,0.7
				c-0.6,0.5-1.1,1.3-1.4,2.6h-1.6v-13.3h1.6c0.3,1.3,0.8,2.2,1.4,2.6c0.6,0.4,1.6,0.7,3.1,0.7H767.3z"/>
			<path id="XMLID_61_" class="st1" d="M235.6,731.5c-0.6-0.7-1.8-3-3.6-6.9L207.4,671c-0.6-1.3-0.9-2.2-0.9-2.6
				c0-0.9,0.8-1.6,2.5-2.2v-1.6h-17.1v1.6c1.7,0.4,2.5,1.1,2.5,2c0,0.5-0.3,1.4-0.9,2.7l-25.7,55.6c-1.2,2.6-2.2,4.4-2.9,5.1
				c-0.7,0.8-1.8,1.3-3.2,1.5v1.6h15.7v-1.6c-2-0.3-3.1-1-3.1-2.1c0-0.5,0.3-1.4,0.9-2.7l2.6-5.6l1.4-3.1l5.1-11.3h0l15.8-34.7
				l11.9,26l0.1,0.2l3.9,8.6h0l4.2,9.4l4.5,9.9c0.8,1.6,1.1,2.6,1.1,3.2c0,1.2-1,2-3,2.3v1.6h16.7v-1.6
				C237.5,732.8,236.2,732.2,235.6,731.5"/>
			<path id="XMLID_60_" class="st1" d="M528.7,731.5c-0.6-0.7-1.8-3-3.6-6.9L500.5,671c-0.6-1.3-0.9-2.2-0.9-2.6
				c0-0.9,0.8-1.6,2.5-2.2v-1.6H485v1.6c1.7,0.4,2.5,1.1,2.5,2c0,0.5-0.3,1.4-0.9,2.7l-25.8,55.6c-1.2,2.6-2.2,4.4-2.9,5.1
				c-0.7,0.8-1.8,1.3-3.2,1.5v1.6h15.7v-1.6c-2-0.3-3.1-1-3.1-2.1c0-0.5,0.3-1.4,0.9-2.7l2.6-5.6l1.4-3.1l5.1-11.3h0l15.8-34.7
				l11.8,26l0.1,0.2l3.9,8.6h0l4.2,9.4l4.5,9.9c0.8,1.6,1.1,2.6,1.1,3.2c0,1.2-1,2-3,2.3v1.6h16.7v-1.6
				C530.6,732.8,529.3,732.2,528.7,731.5"/>
			<path id="XMLID_59_" class="st1" d="M914.4,731.5c-0.6-0.7-1.8-3-3.6-6.9L886.1,671c-0.6-1.3-0.9-2.2-0.9-2.6
				c0-0.9,0.8-1.6,2.5-2.2v-1.6h-17.1v1.6c1.7,0.4,2.5,1.1,2.5,2c0,0.5-0.3,1.4-0.9,2.7l-25.8,55.6c-1.2,2.6-2.2,4.4-2.9,5.1
				c-0.7,0.8-1.8,1.3-3.2,1.5v1.6H856v-1.6c-2-0.3-3.1-1-3.1-2.1c0-0.5,0.3-1.4,0.9-2.7l2.6-5.6l1.4-3.1l5.1-11.3h0l15.8-34.7
				l11.9,26l0.1,0.2l3.9,8.6h0l4.2,9.4l4.5,9.9c0.8,1.6,1.1,2.6,1.1,3.2c0,1.2-1,2-3,2.3v1.6h16.7v-1.6
				C916.3,732.8,915,732.2,914.4,731.5"/>
		</g>
		<g id="XMLID_29_">
			<path id="XMLID_56_" class="st1" d="M123.8,832.8c-0.2,0.4-0.3,0.8-0.3,1.2c0,0.9,0.5,1.7,1.6,2.6c1.1,0.9,2.5,1.7,4.2,2.5
				c1.7,0.8,3.7,1.4,5.9,1.9c2.2,0.5,4.4,0.7,6.7,0.7c5.8,0,10-0.9,12.5-2.6c2.6-1.7,3.9-3.9,3.9-6.6c0-1.3-0.3-2.3-1-3.2
				s-1.5-1.5-2.6-2c-1.1-0.5-2.4-0.8-3.9-1s-3.1-0.3-4.8-0.3c-2.8,0-5.8,0-8.9,0c-3.1,0-6-0.4-8.6-1.2c-2.6-0.8-4.8-2-6.5-3.8
				c-1.7-1.8-2.6-4.4-2.6-7.8c0-2.2,0.6-4.2,1.8-6c1.2-1.8,2.9-3.3,5-4.6c2.1-1.3,4.6-2.3,7.4-3c2.9-0.7,6-1.1,9.3-1.1
				c2.6,0,4.9,0.2,6.8,0.5c1.9,0.4,3.6,0.8,5,1.2c1.4,0.4,2.6,0.8,3.5,1.2c0.9,0.4,1.7,0.5,2.3,0.5c0.7,0,1.2-0.1,1.5-0.4
				c0.3-0.2,0.6-0.5,0.9-0.8l1.1,0.5l-5,10.5l-1-0.6c0.1-0.2,0.1-0.6,0.1-1.2c0-0.4-0.4-0.9-1.1-1.6s-1.8-1.2-3.1-1.8
				c-1.3-0.6-2.9-1.1-4.8-1.5c-1.9-0.4-3.9-0.6-6.1-0.6c-4.9,0-8.8,0.8-11.7,2.4c-2.9,1.6-4.3,3.6-4.3,6.2c0,1.2,0.3,2.1,1,2.8
				c0.6,0.7,1.5,1.2,2.6,1.6c1.1,0.4,2.4,0.7,3.9,0.8c1.5,0.1,3.1,0.2,4.8,0.2c2.9,0,5.8,0,8.9,0.1c3.1,0.1,6,0.6,8.6,1.4
				c2.6,0.9,4.8,2.2,6.5,4.1c1.7,1.9,2.6,4.7,2.6,8.3c0,1.9-0.5,3.8-1.5,5.6c-1,1.8-2.5,3.4-4.5,4.8c-2,1.4-4.5,2.5-7.4,3.3
				c-2.9,0.8-6.4,1.2-10.3,1.2c-3.3,0-6.1-0.3-8.5-0.8c-2.4-0.5-4.5-1.1-6.2-1.8c-1.7-0.7-3.1-1.3-4.2-1.9c-1.1-0.6-2-0.9-2.6-0.9
				c-0.6,0-1.2,0.4-1.9,1.1l-0.9-0.5l4.9-10.5L123.8,832.8z"/>
			<path id="XMLID_53_" class="st1" d="M203.5,841.7c-0.2,0.5-0.5,1.2-0.8,1.8c-0.3,0.7-0.5,1.2-0.5,1.6c0,0.7,0.5,1,1.6,1v1.1
				h-11.2v-1.1c0.4,0,0.7,0,1-0.1c0.3-0.1,0.5-0.2,0.8-0.5c0.2-0.3,0.5-0.7,0.8-1.3c0.3-0.6,0.7-1.4,1.2-2.3l16.5-36.9
				c0.5-1,0.9-1.8,1.1-2.3c0.2-0.5,0.4-0.9,0.4-1.2c0-0.7-0.5-1.1-1.6-1.1v-1.1h13.3v1.1c-1,0-1.5,0.4-1.5,1.1
				c0,0.4,0.2,0.8,0.5,1.4c0.3,0.6,0.7,1.4,1.2,2.4l17.5,36.3c0.5,1.1,1,1.9,1.3,2.6c0.3,0.6,0.6,1.1,0.9,1.4
				c0.3,0.3,0.6,0.5,0.9,0.5c0.3,0.1,0.7,0.1,1.3,0.1v1.1h-12.7v-1.1c0.7,0,1.2-0.1,1.5-0.3c0.2-0.2,0.4-0.5,0.4-1
				c0-0.3-0.1-0.6-0.2-1c-0.2-0.3-0.5-1-1-2.1l-3.5-7.3h-25.8L203.5,841.7z M229.3,828.4L219,806.9l-9.5,21.5H229.3z"/>
			<path id="XMLID_51_" class="st1" d="M321,835.2v-32.7c0-0.7-0.2-1.2-0.5-1.6c-0.3-0.4-0.9-0.6-1.7-0.6v-1.1h10.9v1.1
				c-0.9,0-1.4,0.2-1.7,0.6c-0.3,0.4-0.5,0.9-0.5,1.6v41.4c0,0.7,0.2,1.2,0.5,1.6c0.3,0.4,0.9,0.6,1.7,0.6v1.1H318v-1.1
				c1.2,0,1.8-0.2,1.8-0.7c0-0.4-0.1-0.8-0.4-1c-0.2-0.3-0.4-0.5-0.5-0.7l-32.5-36.9v37.2c0,0.7,0.2,1.2,0.5,1.6
				c0.3,0.4,0.9,0.6,1.7,0.6v1.1h-10.9v-1.1c0.9,0,1.4-0.2,1.7-0.6c0.3-0.4,0.5-0.9,0.5-1.6v-41.4c0-0.7-0.2-1.2-0.5-1.6
				c-0.3-0.4-0.9-0.6-1.7-0.6v-1.1h15.4v1.1c-0.7,0-1.1,0.1-1.4,0.2c-0.2,0.2-0.4,0.4-0.4,0.8c0,0.2,0.1,0.4,0.2,0.6
				c0.2,0.2,0.3,0.4,0.5,0.6l28.6,32.7H321z"/>
			<path id="XMLID_48_" class="st1" d="M422.9,800.3c-0.9,0-1.4,0.2-1.7,0.6c-0.3,0.4-0.5,1.1-0.5,1.9v38.3h30.6
				c2.1,0,3.2-0.9,3.2-2.7h1.1v10.5h-1.1c0-1.2-1.1-1.7-3.2-1.7h-40.5v-1.1c0.9,0,1.4-0.2,1.7-0.6c0.3-0.4,0.5-0.9,0.5-1.6v-41.4
				c0-0.7-0.2-1.2-0.5-1.6c-0.3-0.4-0.9-0.6-1.7-0.6v-1.1h12V800.3z"/>
			<path id="XMLID_44_" class="st1" d="M485.5,802.5c0-0.7-0.2-1.2-0.5-1.6c-0.3-0.4-0.9-0.6-1.7-0.6v-1.1h12v1.1
				c-0.9,0-1.4,0.2-1.7,0.6c-0.3,0.4-0.5,0.9-0.5,1.6v29.2c0,3.5,1.3,5.9,3.9,7.3c2.6,1.4,6.4,2.1,11.5,2.1c5.1,0,9-0.7,11.5-2.1
				c2.6-1.4,3.9-3.9,3.9-7.3v-29.2c0-0.7-0.2-1.2-0.5-1.6c-0.3-0.4-0.9-0.6-1.7-0.6v-1.1h12v1.1c-0.9,0-1.4,0.2-1.7,0.6
				c-0.3,0.4-0.5,0.9-0.5,1.6v27.2c0,3.6-0.5,6.6-1.6,8.9c-1.1,2.3-2.6,4.1-4.6,5.5c-2,1.3-4.4,2.2-7.3,2.7
				c-2.9,0.5-6.1,0.7-9.7,0.7c-3.6,0-6.8-0.2-9.7-0.7c-2.9-0.5-5.3-1.4-7.3-2.7c-2-1.3-3.5-3.2-4.6-5.5c-1.1-2.3-1.6-5.3-1.6-8.9
				V802.5z"/>
			<path id="XMLID_42_" class="st1" d="M568.3,846.1c0.9,0,1.4-0.2,1.7-0.6c0.3-0.4,0.5-0.9,0.5-1.6v-41.4c0-0.7-0.2-1.2-0.5-1.6
				c-0.3-0.4-0.9-0.6-1.7-0.6v-1.1h12v1.1c-0.9,0-1.4,0.2-1.7,0.6c-0.3,0.4-0.5,0.9-0.5,1.6v41.4c0,0.7,0.2,1.2,0.5,1.6
				c0.3,0.4,0.9,0.6,1.7,0.6v1.1h-12V846.1z"/>
			<path id="XMLID_39_" class="st1" d="M619.6,832.8c-0.2,0.4-0.3,0.8-0.3,1.2c0,0.9,0.5,1.7,1.6,2.6c1.1,0.9,2.5,1.7,4.2,2.5
				s3.7,1.4,5.9,1.9c2.2,0.5,4.4,0.7,6.7,0.7c5.8,0,10-0.9,12.5-2.6c2.6-1.7,3.9-3.9,3.9-6.6c0-1.3-0.3-2.3-1-3.2s-1.5-1.5-2.6-2
				c-1.1-0.5-2.4-0.8-3.9-1c-1.5-0.2-3.1-0.3-4.8-0.3c-2.8,0-5.8,0-8.9,0s-6-0.4-8.6-1.2c-2.6-0.8-4.8-2-6.5-3.8
				c-1.7-1.8-2.6-4.4-2.6-7.8c0-2.2,0.6-4.2,1.8-6c1.2-1.8,2.9-3.3,5-4.6c2.1-1.3,4.6-2.3,7.4-3c2.9-0.7,6-1.1,9.3-1.1
				c2.6,0,4.9,0.2,6.8,0.5c1.9,0.4,3.6,0.8,5,1.2c1.4,0.4,2.6,0.8,3.5,1.2c0.9,0.4,1.7,0.5,2.3,0.5c0.7,0,1.2-0.1,1.5-0.4
				c0.3-0.2,0.6-0.5,0.9-0.8l1.1,0.5l-5,10.5l-1-0.6c0.1-0.2,0.1-0.6,0.1-1.2c0-0.4-0.4-0.9-1.1-1.6c-0.7-0.6-1.8-1.2-3.1-1.8
				c-1.3-0.6-2.9-1.1-4.8-1.5c-1.9-0.4-3.9-0.6-6.1-0.6c-4.9,0-8.8,0.8-11.7,2.4c-2.9,1.6-4.3,3.6-4.3,6.2c0,1.2,0.3,2.1,1,2.8
				c0.6,0.7,1.5,1.2,2.6,1.6c1.1,0.4,2.4,0.7,3.9,0.8c1.5,0.1,3.1,0.2,4.8,0.2c2.9,0,5.8,0,8.9,0.1c3.1,0.1,6,0.6,8.6,1.4
				c2.6,0.9,4.8,2.2,6.5,4.1c1.7,1.9,2.6,4.7,2.6,8.3c0,1.9-0.5,3.8-1.5,5.6c-1,1.8-2.5,3.4-4.5,4.8c-2,1.4-4.5,2.5-7.4,3.3
				s-6.4,1.2-10.3,1.2c-3.3,0-6.1-0.3-8.5-0.8c-2.4-0.5-4.5-1.1-6.2-1.8c-1.7-0.7-3.1-1.3-4.2-1.9c-1.1-0.6-2-0.9-2.6-0.9
				c-0.6,0-1.2,0.4-1.9,1.1l-0.9-0.5l4.9-10.5L619.6,832.8z"/>
			<path id="XMLID_36_" class="st1" d="M750.5,843.9c0,0.7,0.2,1.2,0.5,1.6c0.3,0.4,0.9,0.6,1.7,0.6v1.1h-12v-1.1
				c0.9,0,1.4-0.2,1.7-0.6c0.3-0.4,0.5-0.9,0.5-1.6v-41.4c0-0.7-0.2-1.2-0.5-1.6c-0.3-0.4-0.9-0.6-1.7-0.6v-1.1h30.6
				c6,0,10.3,1.1,13,3.4c2.6,2.3,3.9,5.6,3.9,9.9c0,3.8-1,6.9-3,9.1c-2,2.3-5.3,3.7-9.9,4.3l11.5,17.8c0.7,1,1.2,1.6,1.6,1.9
				c0.4,0.3,1,0.5,2,0.5v1.1h-13.1v-1.1c0.8,0,1.3-0.1,1.5-0.2c0.2-0.1,0.3-0.3,0.3-0.6c0-0.4-0.2-0.7-0.5-1l-11.2-17.9h-16.8V843.9
				z M770.4,820.2c3.7,0,6.3-0.7,7.8-2.1c1.5-1.4,2.3-3.3,2.3-5.7c0-1.2-0.2-2.2-0.5-3.1c-0.3-0.9-0.9-1.6-1.6-2.1
				c-0.8-0.6-1.9-1-3.2-1.3c-1.4-0.3-3.1-0.4-5.2-0.4h-19.5v14.8H770.4z"/>
			<path id="XMLID_34_" class="st1" d="M824,843c0-1.3,0.4-2.4,1.3-3.2c0.9-0.9,2-1.3,3.2-1.3c1.3,0,2.4,0.4,3.2,1.3
				c0.9,0.9,1.3,2,1.3,3.2c0,1.3-0.4,2.3-1.3,3.1c-0.9,0.8-2,1.2-3.2,1.2c-1.3,0-2.4-0.4-3.2-1.2C824.4,845.3,824,844.3,824,843z"/>
			<path id="XMLID_32_" class="st1" d="M917.9,840.6c-0.4-0.4-0.8-0.6-1.4-0.6c-0.3,0-0.9,0.4-1.9,1.2c-0.9,0.8-2.3,1.7-4,2.6
				c-1.7,1-3.9,1.8-6.6,2.5c-2.7,0.7-5.9,1.1-9.8,1.1c-4.3,0-8.1-0.6-11.7-1.8c-3.5-1.2-6.6-3-9.1-5.2c-2.5-2.3-4.5-5-5.9-8.1
				c-1.4-3.1-2.1-6.6-2.1-10.3c0-3.1,0.7-6.1,2-8.8c1.3-2.8,3.2-5.3,5.7-7.4c2.5-2.2,5.4-3.9,8.9-5.2c3.5-1.3,7.4-1.9,11.8-1.9
				c3,0,5.7,0.3,8.1,0.8c2.4,0.5,4.4,1.1,6.2,1.7c1.8,0.6,3.2,1.2,4.3,1.7c1.1,0.5,1.9,0.8,2.3,0.8c0.5,0,0.8-0.1,0.9-0.2
				c0.1-0.2,0.3-0.3,0.5-0.6l1.1,0.7l-5.7,9.8l-1.2-0.5c0.3-0.3,0.5-0.7,0.5-1.2c0-0.5-0.5-1.1-1.4-1.9c-0.9-0.8-2.2-1.5-3.7-2.2
				c-1.6-0.7-3.4-1.3-5.6-1.8c-2.1-0.5-4.4-0.8-6.8-0.8c-2.4,0-4.9,0.3-7.3,1c-2.5,0.7-4.7,1.8-6.6,3.2c-1.9,1.5-3.5,3.3-4.7,5.6
				s-1.8,5-1.8,8.1c0,2.7,0.6,5.2,1.9,7.5c1.2,2.3,2.9,4.2,5,5.9c2.1,1.6,4.4,2.9,7.1,3.8c2.6,0.9,5.4,1.4,8.2,1.4
				c2.2,0,4.3-0.3,6.2-1c2-0.6,3.7-1.4,5.2-2.3c1.5-0.9,2.7-1.8,3.6-2.8c0.9-0.9,1.4-1.7,1.4-2.3c0-0.5-0.2-1-0.5-1.3l1.2-0.7
				l6.8,8.8L917.9,840.6z"/>
			<path id="XMLID_30_" class="st1" d="M953,843c0-1.3,0.4-2.4,1.3-3.2c0.9-0.9,2-1.3,3.2-1.3c1.3,0,2.4,0.4,3.2,1.3
				c0.9,0.9,1.3,2,1.3,3.2c0,1.3-0.4,2.3-1.3,3.1c-0.9,0.8-2,1.2-3.2,1.2c-1.3,0-2.4-0.4-3.2-1.2C953.4,845.3,953,844.3,953,843z"/>
		</g>
	</g>
	<path id="XMLID_00000098911900803220985880000006615697450762655417_" class="st2" d="M461.7,454.8c2.9-0.5,5.1-1.5,6.7-3.1
		c1.5-1.6,3.5-5.1,6-10.4l48.6-112.7c1.3-2.7,1.9-4.6,1.9-5.5c0-1.8-1.7-3.2-5.2-4.1v-3.3H555v3.3c-3.5,1.1-5.2,2.6-5.2,4.4
		c0,0.8,0.6,2.5,1.9,5.2l51.1,108.6c3.8,8,6.3,12.7,7.5,14.1c1.2,1.4,3.8,2.6,7.9,3.6v3.3h-34.6v-3.3c4.1-0.6,6.2-2.1,6.2-4.6
		c0-1.1-0.8-3.3-2.3-6.5l-9.4-20.1l-8.8-19.1h0.1l-8.1-17.4l-0.2-0.3l-24.5-52.8l-47,111.1c-1.2,2.6-1.8,4.4-1.8,5.4
		c0,2.1,2.1,3.5,6.3,4.2v3.3h-32.5V454.8z"/>
</g>
</svg>
