<?xml version="1.0" encoding="utf-8"?>
<!-- Generator: Adobe Illustrator 27.0.0, SVG Export Plug-In . SVG Version: 6.00 Build 0)  -->
<svg version="1.1" id="Capa_1" xmlns="http://www.w3.org/2000/svg" xmlns:xlink="http://www.w3.org/1999/xlink" x="0px" y="0px"
	width="70px" height="60px" viewBox="0 0 1080 1080" style="enable-background:new 0 0 1080 1080;" xml:space="preserve">
<style type="text/css">
	.st0{fill:#3C3C3B;}
	.st1{fill:#E3E3E3;}
	.st2{fill:url(#SVGID_1_);}
	.st3{fill:#FFFFFF;}
	.st4{fill:#CA9D5D;}
	.st5{fill:url(#XMLID_00000074412693309796839420000012874816233450678665_);}
	.st6{fill:url(#XMLID_00000111171745435975807600000017793761411322392750_);}
	.st7{fill:url(#XMLID_00000057147649567901367830000008994151284360537764_);}
	.st8{fill:url(#XMLID_00000090257348114577384880000014528200987618987451_);}
	.st9{fill:url(#XMLID_00000013904997365404630760000013467296601867258267_);}
	.st10{fill:url(#XMLID_00000160877258466979663600000016544537681081502876_);}
	.st11{fill:url(#XMLID_00000148651439728427872250000011281136295261998518_);}
	.st12{fill:url(#XMLID_00000183218233446711239910000003564867711943989649_);}
	.st13{fill:url(#XMLID_00000165192054200413912390000001476390230587452040_);}
	.st14{fill:url(#XMLID_00000174577545658980122760000004017132695799980701_);}
	.st15{fill:url(#XMLID_00000006701115931809374550000018120638301260675516_);}
	.st16{fill:url(#XMLID_00000044860821359854157220000014136658924005916085_);}
	.st17{fill:url(#XMLID_00000145767455548706375300000017177232610838088322_);}
	.st18{fill:url(#SVGID_00000127011163056795105560000013949844286365698973_);}
	.st19{fill:#CD9A4D;}
	.st20{fill:url(#XMLID_00000128474021292230874140000015123572765080151453_);}
	.st21{fill:#212121;}
	.st22{fill:url(#SVGID_00000179647588690176158610000014262629746498472889_);}
	.st23{fill:none;stroke:#E9C48D;stroke-width:8.2727;stroke-miterlimit:10;}
	.st24{fill:url(#XMLID_00000006696804493985626730000004470869061632244894_);}
	.st25{fill:url(#SVGID_00000142136836484747969480000009916584830523940241_);}
	.st26{fill:url(#SVGID_00000021841478171382195740000003662414955114897824_);}
	.st27{fill:url(#SVGID_00000144323026713959230350000000838074320496712893_);}
	.st28{fill:url(#SVGID_00000172400811491828682470000008849116160590116777_);}
	.st29{fill:url(#XMLID_00000110455817190042729730000014984820206195278757_);}
	.st30{fill:url(#XMLID_00000110459491724041084930000007824587990393822629_);}
	.st31{fill:url(#XMLID_00000052090416963280707020000007688546302860355251_);}
	.st32{fill:url(#XMLID_00000067219926401675179010000000504689587440053651_);}
	.st33{fill:url(#XMLID_00000106861891283271291150000007524797331747281321_);}
	.st34{fill:none;stroke:#E9C48D;stroke-width:7.4275;stroke-miterlimit:10;}
	.st35{fill:url(#XMLID_00000173154476152511655810000003175378616236997812_);}
	.st36{fill:url(#XMLID_00000052803180614813347590000006145766844637463717_);}
	.st37{fill:#C09833;}
	.st38{fill:none;stroke:#C09833;stroke-width:9.3032;stroke-miterlimit:10;}
	.st39{fill:none;stroke:#C09833;stroke-width:8.4876;stroke-miterlimit:10;}
	.st40{fill:#010202;}
	.st41{fill:none;stroke:#C09833;stroke-width:8.7268;stroke-miterlimit:10;}
	.st42{fill:#00B1B2;}
	.st43{fill:#20B9D6;}
	.st44{fill-rule:evenodd;clip-rule:evenodd;fill:#661617;}
	.st45{fill:#661617;}
	.st46{fill-rule:evenodd;clip-rule:evenodd;fill:#F6F6F6;}
	.st47{fill:#F6F6F6;}
	.st48{fill:url(#SVGID_00000070823790087845384330000000265339144973090975_);}
	.st49{fill:url(#SVGID_00000071543321061508877160000007038978501554789537_);}
	.st50{fill:url(#SVGID_00000062180192949366620140000015166081798495295376_);}
	.st51{fill:url(#SVGID_00000109026280948820381210000007796698615023124096_);}
	.st52{fill:url(#SVGID_00000031916271667539411270000015359318265885964186_);}
	.st53{fill:none;}
	.st54{fill:url(#SVGID_00000099660109490197488980000017128561790839479713_);}
	.st55{fill:url(#SVGID_00000106859603029295269360000009451945439437537448_);}
	.st56{fill:url(#SVGID_00000062905397071865714800000017762900097282295219_);}
	.st57{fill:url(#SVGID_00000053518824884661604160000006060411293880230273_);}
	.st58{fill:url(#SVGID_00000164513334327259239240000011811948580511662005_);}
	.st59{fill:url(#SVGID_00000083775727541557335200000009143484011808674235_);}
	.st60{fill:url(#SVGID_00000127022982772407806770000013380756196055957436_);}
	.st61{fill:url(#SVGID_00000131369144246231678690000001898442089577346701_);}
	.st62{fill:url(#SVGID_00000152979272635918728250000010416581527773039008_);}
	.st63{fill:url(#SVGID_00000154392530111756382480000003595007995956806591_);}
</style>
<g>
	<linearGradient id="SVGID_1_" gradientUnits="userSpaceOnUse" x1="260.6576" y1="930.178" x2="536.4152" y2="30.9687">
		<stop  offset="0" style="stop-color:#84542D"/>
		<stop  offset="3.993928e-03" style="stop-color:#85542E"/>
		<stop  offset="0.2038" style="stop-color:#9D6D3D"/>
		<stop  offset="0.4047" style="stop-color:#B1814A"/>
		<stop  offset="0.6048" style="stop-color:#BF9054"/>
		<stop  offset="0.8037" style="stop-color:#C79A5B"/>
		<stop  offset="1" style="stop-color:#CA9D5D"/>
	</linearGradient>
	<path class="st2" d="M315.77,407.97c0-131.19,103.89-237.56,232.1-237.56c43.24,0,83.58,12.33,118.24,33.41
		c-39.58-55.99-103.89-92.57-176.74-92.57c-120.4,0-218,99.6-218,222.46c0,57.26,21.38,109.29,56.2,148.72
		C320.01,458.98,315.77,434,315.77,407.97z"/>

		<linearGradient id="SVGID_00000105422026891897474940000007100599647774701210_" gradientUnits="userSpaceOnUse" x1="453.0192" y1="989.1689" x2="728.7767" y2="89.9596">
		<stop  offset="0" style="stop-color:#84542D"/>
		<stop  offset="3.993928e-03" style="stop-color:#85542E"/>
		<stop  offset="0.2038" style="stop-color:#9D6D3D"/>
		<stop  offset="0.4047" style="stop-color:#B1814A"/>
		<stop  offset="0.6048" style="stop-color:#BF9054"/>
		<stop  offset="0.8037" style="stop-color:#C79A5B"/>
		<stop  offset="1" style="stop-color:#CA9D5D"/>
	</linearGradient>
	<path style="fill:url(#SVGID_00000105422026891897474940000007100599647774701210_);" d="M794.79,487.6
		c13.89,25.86,22.1,53.22,25.61,80.82c22.06-58.56,20.2-125.01-11.19-183.43c-58.78-109.39-197.98-148.87-310.93-88.2
		C428.27,334.42,384.86,401.7,375.9,473.47c21.97-32.26,51.93-60.02,88.94-79.9C584.58,329.23,732.32,371.33,794.79,487.6z"/>

		<linearGradient id="SVGID_00000170264557419966126070000017868119581183036600_" gradientUnits="userSpaceOnUse" x1="478.618" y1="997.0192" x2="754.3755" y2="97.8099">
		<stop  offset="0" style="stop-color:#84542D"/>
		<stop  offset="3.993928e-03" style="stop-color:#85542E"/>
		<stop  offset="0.2038" style="stop-color:#9D6D3D"/>
		<stop  offset="0.4047" style="stop-color:#B1814A"/>
		<stop  offset="0.6048" style="stop-color:#BF9054"/>
		<stop  offset="0.8037" style="stop-color:#C79A5B"/>
		<stop  offset="1" style="stop-color:#CA9D5D"/>
	</linearGradient>
	<path style="fill:url(#SVGID_00000170264557419966126070000017868119581183036600_);" d="M526.07,968.76
		c14.3-6.37,28.24-14.23,41.44-24.01c88.64-65.73,112.11-184.24,52.43-264.72c-33.17-44.71-85.05-68.19-139.81-69.02
		c41.55,24.79,76.46,64.48,96.33,115.22C611.85,816.51,588.86,913.68,526.07,968.76z"/>

		<linearGradient id="SVGID_00000012435198631635110030000002293179212537121718_" gradientUnits="userSpaceOnUse" x1="522.1345" y1="1010.3643" x2="797.892" y2="111.155">
		<stop  offset="0" style="stop-color:#84542D"/>
		<stop  offset="3.993928e-03" style="stop-color:#85542E"/>
		<stop  offset="0.2038" style="stop-color:#9D6D3D"/>
		<stop  offset="0.4047" style="stop-color:#B1814A"/>
		<stop  offset="0.6048" style="stop-color:#BF9054"/>
		<stop  offset="0.8037" style="stop-color:#C79A5B"/>
		<stop  offset="1" style="stop-color:#CA9D5D"/>
	</linearGradient>
	<path style="fill:url(#SVGID_00000012435198631635110030000002293179212537121718_);" d="M682.87,491.42
		c-56.53-30.39-120.35-32.72-174.48-11.75c30.08,6.39,59.33,18.3,86.33,36.13C701.06,586,737.2,724.12,687.59,843.07
		c34.45-17.21,63.86-44.5,83.2-80.49C822.36,666.65,782.99,545.25,682.87,491.42z"/>

		<linearGradient id="SVGID_00000018207418319577948200000012969610619019437963_" gradientUnits="userSpaceOnUse" x1="257.3665" y1="929.1688" x2="533.124" y2="29.9595">
		<stop  offset="0" style="stop-color:#84542D"/>
		<stop  offset="3.993928e-03" style="stop-color:#85542E"/>
		<stop  offset="0.2038" style="stop-color:#9D6D3D"/>
		<stop  offset="0.4047" style="stop-color:#B1814A"/>
		<stop  offset="0.6048" style="stop-color:#BF9054"/>
		<stop  offset="0.8037" style="stop-color:#C79A5B"/>
		<stop  offset="1" style="stop-color:#CA9D5D"/>
	</linearGradient>
	<path style="fill:url(#SVGID_00000018207418319577948200000012969610619019437963_);" d="M419.64,738.61
		c-34.47-139.38-33.47-224.48-33.47-224.48s-85.44,0-102.06,0c-28.92,0-21.99,90.57-21.99,90.57
		c-10.67,23.66-17.27,41.83-17.27,41.83s6.23,6.55,8.61,7.96c2.01,1.19,8.94,2.43,8.94,2.43s-0.44,7.94-2.82,11.56
		c-1.84,2.8-7.56,11.43-7.56,11.43l11.24,7.18c-2.5,4.25-6.99,9.62-6.99,9.62c8.56,5.43,12.74,6.24,12.74,6.24
		c-2.33,29.99-2.52,32.39,3.66,37.82c5.85,5.14,15.15,2.58,17.23,2.33c9.2-1.1,35.43-11.77,37.13-12.16
		c6.7-1.53,8.16-0.92,8.16-0.92c23.23,61.03,16.86,103.36,16.86,103.36s22.15-0.37,54.83-39.58
		C424.38,772.83,419.64,738.61,419.64,738.61z M277.01,611.01c0,0,6.38-13.13,21.69-18.28c-2.5,2.28-4.08,5.56-4.08,9.21
		c0,4.88,2.81,9.1,6.89,11.15C294.61,613.41,286.52,612.87,277.01,611.01z M315.76,610.93c2.36-2.27,3.84-5.46,3.84-8.99
		c0-4.95-2.89-9.21-7.06-11.23c7.02,0.16,15.2,1.95,24.67,6.27C337.21,596.98,331.89,606.48,315.76,610.93z"/>
</g>
</svg>
