<svg width="16" height="16" viewBox="0 0 16 16" fill="none" xmlns="http://www.w3.org/2000/svg">
<path d="M0.943354 11.4275C0.249358 11.136 -0.0373598 10.6305 0.00386768 9.93977C0.0169855 9.72521 0.0019937 9.5089 0.00699097 9.29317C0.0188595 8.78235 0.254356 8.38264 0.73097 8.14104C0.911496 8.04934 0.952099 7.94941 0.946477 7.77718C0.934609 7.42508 0.939606 7.07179 0.943978 6.7191C0.948351 6.36347 1.12326 6.18419 1.50367 6.20711C2.28075 6.25414 3.0572 6.32174 3.8324 6.39463C4.02917 6.41344 4.17159 6.38111 4.34337 6.27001C4.80874 5.96846 5.30409 5.70805 5.80882 5.41884C4.9674 4.67878 4.58824 3.72239 4.76939 2.60201C4.89432 1.82903 5.2966 1.18242 5.94874 0.691593C7.28988 -0.318283 9.14262 -0.20836 10.3401 0.930836C11.4326 1.9701 11.7987 3.98045 10.1802 5.45353C10.5431 5.63222 10.9585 5.75449 11.2571 6.00196C11.7125 6.37875 12.1672 6.41638 12.7338 6.31762C13.3122 6.21652 13.9144 6.22651 14.5066 6.20652C14.8845 6.19359 15.0563 6.367 15.06 6.72557C15.0638 7.08825 15.0669 7.45035 15.0581 7.81304C15.0544 7.96469 15.0937 8.04993 15.2518 8.12928C15.7403 8.37499 15.9876 8.77647 15.997 9.30022C16.002 9.58414 16.0014 9.86864 15.997 10.1526C15.9895 10.6757 15.7453 11.0778 15.2586 11.3276C15.1075 11.4052 15.0513 11.481 15.0569 11.6397C15.07 11.9824 15.0619 12.3251 15.0606 12.6684C15.0594 13.1034 14.9201 13.2333 14.4522 13.2692C13.7382 13.3244 13.0211 13.3609 12.3128 13.4561C10.9566 13.6389 9.70294 14.1051 8.56294 14.8146C8.15628 15.0679 7.84083 15.0603 7.43543 14.811C5.77321 13.79 3.92547 13.3268 1.95155 13.2804C0.963968 13.2568 0.943354 13.2386 0.943354 12.3093C0.943354 12.016 0.943354 11.722 0.943354 11.4275ZM7.49914 13.7982C7.51413 13.6877 7.52788 13.6313 7.52788 13.5749C7.52913 11.9977 7.53287 10.4206 7.51976 8.84349C7.51913 8.73709 7.41481 8.59249 7.31362 8.53253C6.163 7.85418 4.90744 7.43154 3.56817 7.23932C3.01972 7.16056 2.46315 7.13116 1.88097 7.07709C1.88097 7.35512 1.89283 7.56968 1.87722 7.78247C1.8641 7.9594 1.92219 8.05287 2.09772 8.14339C2.57246 8.38851 2.80796 8.78764 2.8167 9.29846C2.8217 9.57238 2.81858 9.84689 2.81733 10.1214C2.81545 10.6687 2.56122 11.0749 2.05525 11.347C1.98528 11.3846 1.89346 11.4593 1.88909 11.521C1.87097 11.8008 1.88097 12.0818 1.88097 12.3839C3.87862 12.4339 5.73573 12.8659 7.49914 13.7982ZM14.1236 12.3833C14.1236 12.1124 14.1411 11.8678 14.1155 11.628C14.1049 11.5275 14.0256 11.3982 13.9356 11.3464C13.4384 11.0613 13.1848 10.6581 13.1867 10.1108C13.1873 9.91508 13.1967 9.71816 13.1848 9.52301C13.1423 8.83349 13.4234 8.32561 14.108 8.03758V7.10942C14.0231 7.10942 13.9531 7.10765 13.8832 7.10942C12.0529 7.16702 10.337 7.59789 8.75471 8.48256C8.55169 8.59601 8.46736 8.71299 8.46924 8.94224C8.48111 10.4412 8.47548 11.9395 8.47548 13.4385V13.8117C10.2626 12.8677 12.1266 12.4315 14.1236 12.3833ZM10.3357 3.10107C10.3251 1.86253 9.27192 0.872641 7.97576 0.88381C6.69833 0.894391 5.6639 1.89839 5.66827 3.12164C5.67264 4.34431 6.71645 5.3195 8.01261 5.31304C9.3119 5.30598 10.3457 4.3208 10.3357 3.10107ZM5.27598 6.6374C5.3803 6.71616 5.40092 6.7385 5.42653 6.74967C6.23483 7.10001 7.04127 7.45388 7.8552 7.79305C7.94515 7.83067 8.09007 7.81421 8.18314 7.77248C8.71598 7.53265 9.23632 7.26813 9.77103 7.03124C10.0565 6.90427 10.3607 6.81551 10.6568 6.7097C10.6605 6.68325 10.6637 6.65679 10.6674 6.63034C10.3413 6.51689 10.0196 6.32115 9.68857 6.30469C8.6229 6.25179 7.55286 6.2318 6.48657 6.27001C6.09803 6.28412 5.71762 6.49691 5.27598 6.6374ZM1.87909 9.7452C1.87909 9.59825 1.88659 9.45129 1.87722 9.30434C1.86035 9.03041 1.67046 8.85524 1.40498 8.85818C1.15199 8.86112 0.95897 9.02982 0.947726 9.2867C0.934609 9.58002 0.934609 9.87452 0.947726 10.1678C0.95897 10.4265 1.14949 10.5946 1.40248 10.5987C1.66796 10.6034 1.85973 10.4288 1.87722 10.1555C1.88596 10.0191 1.87847 9.88158 1.87909 9.74403V9.7452ZM15.0575 9.73874C15.0575 9.58179 15.0688 9.42425 15.055 9.26907C15.0325 9.01689 14.8333 8.84878 14.579 8.86053C14.3092 8.87288 14.1493 9.02101 14.1318 9.26495C14.1105 9.56709 14.1155 9.87217 14.1286 10.1749C14.1399 10.4312 14.3367 10.5987 14.5896 10.5999C14.8426 10.6011 15.035 10.4335 15.0563 10.179C15.0681 10.0332 15.0581 9.88569 15.0575 9.73874Z" fill="white"/>
</svg>
