<?xml version="1.0" encoding="utf-8"?>
<!-- Generator: Adobe Illustrator 26.2.1, SVG Export Plug-In . SVG Version: 6.00 Build 0)  -->
<svg version="1.1" id="Capa_1" xmlns="http://www.w3.org/2000/svg" xmlns:xlink="http://www.w3.org/1999/xlink" x="0px" y="0px"
	 viewBox="0 0 1080 1080" style="enable-background:new 0 0 1080 1080;" xml:space="preserve">
<style type="text/css">
	.st0{fill:#3C3C3B;}
	.st1{fill:url(#SVGID_1_);}
	.st2{fill:#FFFFFF;}
</style>
<g>
	<g id="XMLID_00000084496187407384111560000003090533901303274916_">
		<path id="XMLID_00000056410738554270724940000005635719821098244489_" class="st0" d="M318.6,711.8v26.5c0,1.5,0.2,2.5,0.7,3.1
			c0.5,0.6,1.4,1.1,2.7,1.5v1.7h-15.2v-1.7c1.4-0.4,2.3-0.8,2.7-1.4c0.5-0.6,0.7-1.7,0.7-3.1V678c0-1.5-0.2-2.6-0.7-3.2
			c-0.5-0.6-1.4-1.1-2.7-1.4v-1.7h40c5.5,0,9.8,0.3,13,0.9c3.2,0.6,6,1.6,8.3,3.1c2.4,1.5,4.4,3.6,5.9,6.2c1.7,3,2.6,6.3,2.6,10
			c0,5.6-1.8,10.1-5.5,13.6c-3.7,3.5-8.8,5.5-15.2,6l18.5,28.8c1.1,1.8,2.7,2.7,4.8,2.7v1.7h-16.9v-1.7c1.7-0.3,2.6-0.8,2.6-1.5
			c0-0.4-0.6-1.5-1.9-3.5l-16.6-26.1H318.6z M318.6,704.9h29.6c4,0,7.1-0.2,9.1-0.5c2-0.3,3.9-1,5.4-1.8c3.7-2.1,5.5-5.7,5.5-10.7
			c0-5.1-1.9-8.7-5.7-10.8c-1.7-0.9-3.5-1.6-5.6-1.9c-2-0.3-5.2-0.5-9.5-0.5h-28.8V704.9z"/>
		<path id="XMLID_00000016051611073104938450000011567632133996172184_" class="st0" d="M617.4,738.3V678c0-1.5-0.2-2.6-0.7-3.2
			c-0.5-0.6-1.4-1.1-2.7-1.4v-1.7h15.2v1.7c-1.4,0.4-2.3,0.8-2.7,1.4c-0.5,0.6-0.7,1.7-0.7,3.2v60.3c0,1.5,0.2,2.5,0.7,3.1
			c0.4,0.6,1.4,1.1,2.7,1.4v1.7H614v-1.7c1.4-0.4,2.3-0.8,2.8-1.4C617.2,740.9,617.4,739.8,617.4,738.3"/>
		<path id="XMLID_00000063626533459132788950000012293700048640802734_" class="st0" d="M775.9,671.7v1.5l-50.1,64.5H770
			c1.5,0,2.6-0.2,3.2-0.7c0.6-0.5,1.1-1.4,1.4-2.7h1.7v13.8h-1.7c-0.3-1.4-0.8-2.3-1.4-2.7c-0.6-0.5-1.7-0.7-3.2-0.7h-58.6v-1.5
			l50.3-64.5h-43.4c-1.5,0-2.6,0.2-3.2,0.7c-0.6,0.5-1.1,1.4-1.4,2.7h-1.7v-13.8h1.7c0.3,1.4,0.8,2.3,1.4,2.7
			c0.6,0.5,1.7,0.7,3.2,0.7H775.9z"/>
		<path id="XMLID_00000137125857865389473740000014271878759259754943_" class="st0" d="M224.1,741.1c-0.6-0.7-1.9-3.1-3.7-7.2
			l-25.6-55.6c-0.6-1.4-1-2.3-1-2.7c0-0.9,0.9-1.7,2.6-2.2v-1.7h-17.7v1.7c1.7,0.5,2.6,1.2,2.6,2.1c0,0.5-0.3,1.4-1,2.8L153.6,736
			c-1.2,2.7-2.3,4.5-3,5.3c-0.8,0.8-1.9,1.4-3.3,1.6v1.7h16.3v-1.7c-2.1-0.4-3.2-1.1-3.2-2.1c0-0.5,0.3-1.5,0.9-2.8l2.7-5.8l1.5-3.2
			l5.3-11.8h0l16.4-36.1l12.3,27l0.1,0.2l4,8.9h0l4.4,9.7l4.7,10.3c0.8,1.6,1.2,2.7,1.2,3.3c0,1.3-1,2.1-3.1,2.4v1.7h17.3v-1.7
			C226.1,742.4,224.7,741.8,224.1,741.1"/>
		<path id="XMLID_00000147206762774610331940000005744923256387307690_" class="st0" d="M528.3,741.1c-0.6-0.7-1.9-3.1-3.7-7.2
			L499,678.3c-0.6-1.4-1-2.3-1-2.7c0-0.9,0.9-1.7,2.6-2.2v-1.7h-17.7v1.7c1.7,0.5,2.6,1.2,2.6,2.1c0,0.5-0.3,1.4-1,2.8L457.8,736
			c-1.2,2.7-2.3,4.5-3,5.3c-0.8,0.8-1.9,1.4-3.3,1.6v1.7h16.3v-1.7c-2.1-0.4-3.2-1.1-3.2-2.1c0-0.5,0.3-1.5,0.9-2.8l2.7-5.8l1.5-3.2
			l5.3-11.8h0l16.4-36.1l12.3,27l0.1,0.2l4,8.9h0l4.4,9.7l4.7,10.3c0.8,1.6,1.2,2.7,1.2,3.3c0,1.3-1,2.1-3.1,2.4v1.7h17.3v-1.7
			C530.2,742.4,528.9,741.8,528.3,741.1"/>
		<path id="XMLID_00000144316877073255732560000009740856947116022954_" class="st0" d="M928.6,741.1c-0.6-0.7-1.9-3.1-3.7-7.2
			l-25.6-55.6c-0.6-1.4-1-2.3-1-2.7c0-0.9,0.9-1.7,2.6-2.2v-1.7h-17.7v1.7c1.7,0.5,2.6,1.2,2.6,2.1c0,0.5-0.3,1.4-1,2.8L858.1,736
			c-1.2,2.7-2.3,4.5-3,5.3c-0.8,0.8-1.9,1.4-3.3,1.6v1.7H868v-1.7c-2.1-0.4-3.2-1.1-3.2-2.1c0-0.5,0.3-1.5,0.9-2.8l2.7-5.8l1.5-3.2
			l5.3-11.8h0l16.4-36.1l12.3,27l0.1,0.2l4,8.9h0l4.4,9.7l4.7,10.3c0.8,1.6,1.2,2.7,1.2,3.3c0,1.3-1,2.1-3.1,2.4v1.7h17.3v-1.7
			C930.5,742.4,929.2,741.8,928.6,741.1"/>
	</g>
	<g>
		<path class="st0" d="M257,860.1c1,0,1.7-0.2,2-0.6c0.3-0.4,0.5-1,0.5-1.7v-43c0-0.7-0.2-1.2-0.5-1.7c-0.3-0.4-1.1-0.6-2.1-0.6
			v-1.1h16v1.1c-1.5,0-2.2,0.4-2.2,1.2c0,0.4,0.1,0.7,0.4,1l15.4,30.3l16-30.3c0.1-0.2,0.1-0.4,0.2-0.6c0.1-0.2,0.1-0.4,0.1-0.6
			c0-0.3-0.2-0.6-0.5-0.8c-0.3-0.2-1-0.3-1.8-0.3v-1.1h16.9v1.1c-1.1,0-1.8,0.2-2.1,0.6c-0.3,0.4-0.5,1-0.5,1.7v43
			c0,0.7,0.2,1.2,0.5,1.7c0.3,0.4,1.1,0.6,2.1,0.6v1.1h-13.3v-1.1c1.1,0,1.8-0.2,2.1-0.6c0.3-0.4,0.5-1,0.5-1.7v-37.4l-0.3-0.2
			l-20.2,40.1l-20.2-40.1l-0.1,0.2v37.4c-0.1,0.7,0.1,1.2,0.4,1.7c0.3,0.4,0.9,0.6,1.8,0.6v1.1H257V860.1z"/>
		<path class="st0" d="M356.6,813.1c-0.3-0.4-0.9-0.6-1.8-0.6v-1.1h39.7c1.6,0,2.7-0.1,3.1-0.4c0.4-0.3,0.7-0.8,0.7-1.5h1.1v10.8
			h-1.1c0-0.8-0.3-1.5-0.8-1.9c-0.5-0.5-1.5-0.7-2.9-0.7H365v15h19.2c1.1,0,2.1-0.2,2.8-0.6c0.7-0.4,1.1-1.1,1.1-2.1h1.1v11.5h-1.1
			c0-0.9-0.3-1.6-0.9-2c-0.6-0.4-1.5-0.6-2.8-0.6H365v16.1h31.6c1.3,0,2.3-0.2,2.9-0.7c0.6-0.5,0.9-1.3,0.9-2.5h1.1V863h-1.1
			c0-1.2-1.1-1.8-3.3-1.8h-42.4v-1.1c0.9,0,1.5-0.2,1.8-0.6c0.3-0.4,0.5-1,0.5-1.7v-43C357.1,814.1,356.9,813.6,356.6,813.1z"/>
		<path class="st0" d="M430.5,860.1c1.1,0,2-0.2,2.5-0.7c0.5-0.5,1.2-1.3,2.1-2.5l16.9-21.8l-14.9-19.3c-0.9-1.2-1.7-2-2.3-2.5
			c-0.7-0.5-1.4-0.7-2.3-0.7v-1.1h14.2v1.1c-0.9,0-1.4,0.3-1.4,1c0,0.6,0.4,1.3,1.1,2.2l10,13.4l10.5-13.4c0.9-1.1,1.4-1.9,1.4-2.2
			c0-0.7-0.6-1-1.7-1v-1.1h13.5v1.1c-0.9,0-1.6,0.2-2.1,0.6c-0.4,0.4-1.2,1.3-2.3,2.7L461,834.7l16.9,22.2c1,1.3,1.8,2.2,2.3,2.6
			c0.5,0.4,1.2,0.6,2.2,0.6v1.1h-14.2v-1.1c0.8,0,1.3,0,1.6-0.1c0.3-0.1,0.4-0.3,0.4-0.6c0-0.4-0.3-1.1-1-1.9l-12.7-16.7l-13.1,16.7
			c-0.7,0.7-1,1.4-1,2c0,0.4,0.5,0.7,1.5,0.7v1.1h-13.3V860.1z"/>
		<path class="st0" d="M513.9,860.1c0.9,0,1.5-0.2,1.8-0.6c0.3-0.4,0.5-1,0.5-1.7v-43c0-0.7-0.2-1.2-0.5-1.7
			c-0.3-0.4-0.9-0.6-1.8-0.6v-1.1h12.5v1.1c-0.9,0-1.5,0.2-1.8,0.6c-0.3,0.4-0.5,1-0.5,1.7v43c0,0.7,0.2,1.2,0.5,1.7
			c0.3,0.4,0.9,0.6,1.8,0.6v1.1h-12.5V860.1z"/>
		<path class="st0" d="M614.9,854.4c-0.4-0.4-0.9-0.7-1.4-0.7c-0.3,0-1,0.4-1.9,1.2c-1,0.8-2.4,1.7-4.2,2.7c-1.8,1-4.1,1.9-6.9,2.6
			c-2.8,0.8-6.2,1.2-10.1,1.2c-4.4,0-8.5-0.6-12.1-1.9c-3.7-1.3-6.8-3.1-9.4-5.4c-2.6-2.4-4.7-5.2-6.1-8.4
			c-1.5-3.2-2.2-6.8-2.2-10.7c0-3.2,0.7-6.3,2-9.2c1.4-2.9,3.3-5.5,5.9-7.7c2.6-2.2,5.6-4,9.3-5.3c3.6-1.3,7.7-2,12.3-2
			c3.2,0,6,0.3,8.4,0.8c2.5,0.5,4.6,1.1,6.4,1.8c1.8,0.6,3.3,1.2,4.5,1.8c1.2,0.5,2,0.8,2.4,0.8c0.5,0,0.8-0.1,0.9-0.2
			c0.1-0.2,0.3-0.4,0.5-0.6l1.1,0.8l-5.9,10.1l-1.2-0.6c0.3-0.3,0.5-0.7,0.5-1.2c0-0.5-0.5-1.2-1.4-1.9c-0.9-0.8-2.2-1.5-3.9-2.3
			c-1.6-0.7-3.6-1.4-5.8-1.9c-2.2-0.5-4.6-0.8-7.1-0.8c-2.5,0-5.1,0.4-7.6,1.1s-4.8,1.8-6.8,3.4c-2,1.5-3.6,3.4-4.9,5.8
			c-1.3,2.4-1.9,5.2-1.9,8.5c0,2.8,0.6,5.4,1.9,7.8c1.3,2.4,3,4.4,5.2,6.1c2.1,1.7,4.6,3,7.3,4c2.7,0.9,5.6,1.4,8.5,1.4
			c2.3,0,4.4-0.3,6.5-1c2.1-0.7,3.9-1.5,5.4-2.4c1.6-0.9,2.8-1.9,3.8-2.9c0.9-1,1.4-1.8,1.4-2.4c0-0.6-0.2-1-0.5-1.3l1.2-0.8l7,9.1
			L614.9,854.4z"/>
		<path class="st0" d="M656.4,855.5c-0.3,0.6-0.5,1.2-0.9,1.9c-0.3,0.7-0.5,1.2-0.5,1.6c0,0.7,0.5,1,1.6,1v1.1H645v-1.1
			c0.4,0,0.7,0,1-0.1c0.3-0.1,0.6-0.3,0.8-0.6c0.3-0.3,0.5-0.8,0.9-1.4c0.3-0.6,0.7-1.4,1.2-2.4l17.1-38.3c0.5-1.1,0.9-1.9,1.1-2.4
			c0.3-0.5,0.4-1,0.4-1.3c0-0.8-0.6-1.1-1.7-1.1v-1.1h13.8v1.1c-1,0-1.5,0.4-1.5,1.1c0,0.4,0.2,0.9,0.5,1.5c0.3,0.6,0.7,1.4,1.2,2.5
			l18.2,37.7c0.6,1.1,1,2,1.3,2.7c0.3,0.6,0.6,1.1,0.9,1.4c0.3,0.3,0.6,0.5,0.9,0.6c0.3,0.1,0.8,0.1,1.3,0.1v1.1h-13.2v-1.1
			c0.8,0,1.3-0.1,1.5-0.3c0.3-0.2,0.4-0.6,0.4-1c0-0.3-0.1-0.6-0.2-1c-0.2-0.3-0.5-1.1-1-2.2l-3.6-7.6h-26.8L656.4,855.5z
			 M683.1,841.7l-10.7-22.3l-9.8,22.3H683.1z"/>
		<path class="st0" d="M745.6,812.5c-0.9,0-1.5,0.2-1.8,0.7c-0.3,0.4-0.5,1.1-0.5,2v39.8h31.8c2.2,0,3.3-0.9,3.3-2.8h1.1V863h-1.1
			c0-1.2-1.1-1.8-3.3-1.8h-42v-1.1c0.9,0,1.5-0.2,1.8-0.6c0.3-0.4,0.5-1,0.5-1.7v-43c0-0.7-0.2-1.2-0.5-1.7
			c-0.3-0.4-0.9-0.6-1.8-0.6v-1.1h12.5V812.5z"/>
		<path class="st0" d="M810.5,860.1c0.9,0,1.5-0.2,1.8-0.6c0.3-0.4,0.5-1,0.5-1.7v-43c0-0.7-0.2-1.2-0.5-1.7
			c-0.3-0.4-0.9-0.6-1.8-0.6v-1.1H823v1.1c-0.9,0-1.5,0.2-1.8,0.6c-0.3,0.4-0.5,1-0.5,1.7v43c0,0.7,0.2,1.2,0.5,1.7
			c0.3,0.4,0.9,0.6,1.8,0.6v1.1h-12.5V860.1z"/>
	</g>
	<g>
		<linearGradient id="SVGID_1_" gradientUnits="userSpaceOnUse" x1="543.0805" y1="662.4987" x2="536.6099" y2="135.1603">
			<stop  offset="0" style="stop-color:#84542D"/>
			<stop  offset="6.110269e-02" style="stop-color:#8C5C33"/>
			<stop  offset="0.297" style="stop-color:#A77945"/>
			<stop  offset="0.5332" style="stop-color:#BB8D52"/>
			<stop  offset="0.7681" style="stop-color:#C6995A"/>
			<stop  offset="1" style="stop-color:#CA9D5D"/>
		</linearGradient>
		<path class="st1" d="M539.9,217.9L351.5,403.4L539.9,580l188.4-176.6L539.9,217.9z M491.4,453.9v3.5H457v-3.5
			c3.1-0.5,5.4-1.6,7.1-3.3c1.6-1.7,3.7-5.4,6.4-11.1l51.4-119.4c1.4-2.9,2-4.8,2-5.9c0-1.9-1.8-3.4-5.5-4.3v-3.5h37.5v3.5
			c-3.7,1.2-5.5,2.7-5.5,4.6c0,0.8,0.7,2.7,2,5.5l54.1,115.1c4,8.5,6.6,13.5,7.9,14.9c1.3,1.5,4.1,2.7,8.4,3.8v3.5h-36.6v-3.5
			c4.4-0.6,6.6-2.2,6.6-4.9c0-1.2-0.8-3.5-2.5-6.9l-9.9-21.3l-9.3-20.2h0.1l-8.6-18.4l-0.2-0.4l-26-55.9l-49.8,117.7
			c-1.3,2.7-1.9,4.6-1.9,5.7C484.7,451.7,487,453.2,491.4,453.9z"/>
		<path class="st2" d="M614.4,450.1c-1.3-1.5-3.9-6.5-7.9-14.9l-54.1-115.1c-1.4-2.9-2-4.7-2-5.5c0-1.9,1.8-3.5,5.5-4.6v-3.5h-37.5
			v3.5c3.7,1,5.5,2.4,5.5,4.3c0,1-0.7,3-2,5.9l-51.4,119.4c-2.6,5.7-4.8,9.4-6.4,11.1c-1.6,1.7-4,2.8-7.1,3.3v3.5h34.4v-3.5
			c-4.5-0.7-6.7-2.2-6.7-4.4c0-1.1,0.6-3,1.9-5.7L536.4,326l26,55.9l0.2,0.4l8.6,18.4H571l9.3,20.2l9.9,21.3
			c1.7,3.4,2.5,5.7,2.5,6.9c0,2.7-2.2,4.3-6.6,4.9v3.5h36.6v-3.5C618.5,452.9,615.7,451.6,614.4,450.1z"/>
	</g>
</g>
</svg>
