<svg width="25" height="30" viewBox="0 0 25 30" fill="none" xmlns="http://www.w3.org/2000/svg">
<path d="M12.0503 29.4119C11.3358 28.6355 10.6638 27.8534 9.93666 27.1251C7.62807 24.8119 5.20136 22.6089 2.99713 20.1993C-1.00649 15.8219 -0.970935 8.82842 2.9352 4.35001C6.43765 0.334924 11.6558 -1.07798 16.6032 0.85903C20.897 2.5403 23.4958 5.75948 24.24 10.3377C24.9373 14.6246 23.5141 18.2337 20.4566 21.2395C17.8521 23.7993 15.2328 26.3418 12.6191 28.8901C12.4849 29.0208 12.3427 29.1435 12.0514 29.4108L12.0503 29.4119ZM12.0079 26.0723C12.0663 26.0253 12.1237 25.9771 12.1822 25.9301C12.2567 25.8739 12.3381 25.8257 12.4047 25.7615C14.6444 23.5699 16.8934 21.3875 19.116 19.1787C20.2697 18.0318 21.108 16.6843 21.5668 15.1016C22.693 11.2196 21.4521 7.11734 18.3659 4.61952C14.5126 1.50011 8.96299 1.77191 5.34586 5.25716C1.61175 8.85595 1.36518 14.9136 4.86533 18.7153C6.39063 20.3725 8.05699 21.899 9.63733 23.5068C10.4527 24.3371 11.2188 25.2156 12.0067 26.0723H12.0079Z" fill="#293641"/>
<path d="M7.3584 13.4238V11.0636H10.9721V7.42468H13.3747C13.3747 8.40294 13.4137 9.37316 13.3598 10.3377C13.3266 10.9409 13.5341 11.0842 14.1007 11.0579C15.0503 11.012 16.0044 11.0453 16.9999 11.0453V13.4032H13.3759V17.0547H10.9962C10.9962 16.2565 10.9962 15.4629 10.9962 14.6693C10.9962 13.839 10.5898 13.4238 9.77708 13.4238C8.99494 13.4238 8.21394 13.4238 7.3584 13.4238Z" fill="#293641"/>
</svg>
