<svg width="25" height="30" viewBox="0 0 25 30" fill="none" xmlns="http://www.w3.org/2000/svg">
<path d="M12.706 29.21C11.613 28.1469 10.5316 27.0998 9.45583 26.047C7.62662 24.2568 5.76071 22.501 3.98196 20.6603C-0.347359 16.1796 -0.648978 9.1896 3.34432 4.41645C6.26303 0.926618 10.0843 -0.528722 14.5834 0.170851C19.6329 0.956436 22.9668 3.95428 24.4267 8.78477C25.7215 13.0717 24.8189 17.0925 21.7408 20.3828C18.9631 23.3508 15.9561 26.1043 13.0489 28.9497C12.956 29.0403 12.8413 29.1091 12.7071 29.21H12.706ZM2.94981 12.0487C2.91999 14.738 3.70672 16.9399 5.43157 18.7141C7.70919 21.0548 10.0843 23.3003 12.4055 25.5997C12.7381 25.9289 12.925 25.7328 13.1567 25.5057C15.299 23.4058 17.4562 21.322 19.5836 19.2072C22.0573 16.7484 23.008 13.7368 22.3612 10.3479C21.4036 5.33278 16.9149 2.08378 12.0695 2.4565C6.79745 2.86134 2.93948 7.03125 2.94981 12.0487Z" fill="#293641"/>
<path d="M7.90277 13.3469C7.90277 12.6485 7.90965 12.0017 7.90047 11.3537C7.89474 10.9259 8.19406 10.9833 8.45669 10.9833C10.1391 10.981 11.8215 10.9821 13.5028 10.9821C14.6691 10.9821 15.8355 10.9982 17.0006 10.9752C17.4731 10.9661 17.6566 11.1324 17.6314 11.6083C17.6016 12.176 17.6245 12.746 17.6245 13.3469H7.90277Z" fill="#293641"/>
</svg>
